<svg xmlns="http://www.w3.org/2000/svg" viewBox="0 0 241.49 80.05"><g data-name="Layer 2"><g data-name="Layer 1"><path d="M126.61 79.11V58h-18.93v21.11h-5.49V33.35h5.49v19.83h18.93V33.35H132v45.76zm14.5 0V33.35h5.49v45.76zm14.48 0V33.35h23.53v4.87h-18v15h17.56v4.87h-17.6v21zm39.07 0V38.22h-10.91v-4.87H211v4.87h-10.92v40.89zm19.19-4.94l3-4.18a14.05 14.05 0 0010.7 5.08c5.76 0 8.37-3.64 8.37-7.55 0-11.11-20.72-8.16-20.72-22.91 0-7 5.56-12 13.17-12 5.08 0 9.26 1.72 12.21 4.87l-2.81 4.12a12.47 12.47 0 00-9.53-4.12c-4.25 0-7.48 2.74-7.48 6.86 0 9.67 20.71 7.55 20.71 22.84 0 6.72-4.39 12.76-13.92 12.76a17.85 17.85 0 01-13.7-5.77zm-145.24 0l3-4.18a14.05 14.05 0 0010.7 5.08c5.76 0 8.37-3.64 8.37-7.55C90.7 56.4 70 59.35 70 44.6c0-7 5.56-12 13.17-12 5.08 0 9.26 1.72 12.21 4.87l-2.81 4.12A12.47 12.47 0 0083 37.47c-4.25 0-7.48 2.74-7.48 6.86 0 9.67 20.71 7.55 20.71 22.84 0 6.72-4.39 12.76-13.92 12.76a17.85 17.85 0 01-13.7-5.76z" fill="#020202"></path><path fill-rule="evenodd" fill="#020202" d="M55.39 38.5H27.33V33h35.5v4L41.51 80H34.3l21.09-41.5z"></path><path d="M46.14 6.81a1.14 1.14 0 00.08-.37c0-.25 0-.56-.1-.56h4.12a3.06 3.06 0 002.84-3v-.57C53.06.84 51.79 0 50.23 0H32.42c-1.57 0-2.84.84-2.84 2.31v.55a3.06 3.06 0 002.84 3h3.53c-.07 0-.1.31-.1.56a1.1 1.1 0 000 .26 42.4 42.4 0 00-23.19 10.8C4.5 24.92 0 34.64 0 44.86 0 60.49 9.67 74 23.52 80l2.76-5.34C14.35 69.63 6 58.17 6 44.86c0-18.57 18.13-32.44 34.33-32.44a40.2 40.2 0 0124.17 8.31l2.7-5.49a46.14 46.14 0 00-21.06-8.43z" fill="#fb7448" fill-rule="evenodd"></path></g></g></svg>