<svg xmlns="http://www.w3.org/2000/svg" xmlns:xlink="http://www.w3.org/1999/xlink" width="235" height="60" viewBox="0 0 235 60">
  <defs>
    <polygon id="acumatica-logo-a" points=".173 .283 34.417 .283 34.417 34.406 .173 34.406"/>
    <polygon id="acumatica-logo-c" points=".324 .294 8.627 .294 8.627 11.52 .324 11.52"/>
    <polygon id="acumatica-logo-e" points=".26 .112 3.127 .112 3.127 12 .26 12"/>
    <polygon id="acumatica-logo-g" points=".479 .311 7.357 .311 7.357 8.64 .479 8.64"/>
  </defs>
  <g fill="none" fill-rule="evenodd" transform="translate(0 .197)">
    <mask id="acumatica-logo-b" fill="#fff">
      <use xlink:href="#acumatica-logo-a"/>
    </mask>
    <path fill="#49C8F5" d="M24.0648649,24.089616 L17.2948949,24.089616 C13.5553153,24.089616 10.5249249,21.068976 10.5249249,17.344656 C10.5249249,13.617936 13.5553153,10.595376 17.2948949,10.595376 C21.0344745,10.595376 24.0648649,13.617936 24.0648649,17.344656 L24.0648649,24.089616 Z M17.2948949,0.282576 C7.8375976,0.282576 0.172972973,7.921776 0.172972973,17.344656 C0.172972973,26.768496 7.8375976,34.405776 17.2948949,34.405776 L34.4168168,34.405776 L34.4168168,17.344656 C34.4168168,7.921776 26.7497898,0.282576 17.2948949,0.282576 L17.2948949,0.282576 Z" mask="url(#acumatica-logo-b)"/>
    <path fill="#0D1130" d="M58.6139099,8.581728 L60.7001562,8.581728 L64.1173333,23.395008 L55.1097658,23.395008 L58.6139099,8.581728 Z M54.5769129,3.808608 L47.2543904,34.405248 L52.4911471,34.405248 L53.9998559,28.389408 L65.1373934,28.389408 L66.8253213,34.405248 L72.0615976,34.405248 L64.8265225,3.808608 L54.5769129,3.808608 Z"/>
    <path fill="#0D1130" d="M16.4775495 6.890688L16.2983303 11.268288C16.2983303 11.268288 12.7941862 10.870368 11.1086607 10.870368 6.58157357 10.870368 5.56151351 12.549408 5.56151351 17.326848 5.56151351 22.632288 6.49172372 24.355488 11.1514234 24.355488 12.8388709 24.355488 16.343015 23.957568 16.343015 23.957568L16.4775495 28.337568C16.4775495 28.337568 11.9504625 29.131008 9.59803003 29.131008 2.85352553 29.131008.411243243 25.728768.411243243 17.326848.411243243 9.410688 3.11923123 6.049728 9.73256456 6.049728 12.1267988 6.049728 16.4775495 6.890688 16.4775495 6.890688M38.5313634 6.581088L38.5313634 28.644288 33.4733453 28.644288 33.4733453 27.537888C33.4733453 27.537888 30.0114835 29.131968 27.6172492 29.131968 21.2254174 29.131968 19.9391712 25.861248 19.9391712 18.121248L19.9391712 6.581088 24.9967087 6.581088 24.9967087 18.076608C24.9967087 22.764768 25.2652973 24.578208 28.6377898 24.578208 30.589021 24.578208 33.4733453 23.560608 33.4733453 23.560608L33.4733453 6.581088 38.5313634 6.581088zM42.439015 28.644432L42.439015 6.581232 47.4542703 6.581232 47.4542703 7.774992C47.4542703 7.774992 49.3185345 6.757392 51.3149309 6.404592 52.1115676 6.225552 52.9543303 6.094032 53.6221982 6.094032 55.8843003 6.183312 57.4818979 6.802512 58.5903664 7.951632 60.543039 7.199952 63.6945105 6.051312 66.3126486 6.051312 72.346042 6.051312 74.0310871 9.366672 74.0310871 17.104272L74.0310871 28.644432 68.9735495 28.644432 68.9735495 19.094352C68.9735495 13.124592 68.8865826 10.782192 65.3372733 10.782192 63.1621381 10.782192 60.543039 11.843952 60.4993153 11.885712 60.6328889 12.196272 60.8101862 15.159312 60.8101862 17.193552L60.8101862 28.644432 55.7521682 28.644432 55.7521682 17.280912C55.7521682 12.592752 55.3067628 10.782192 52.1115676 10.782192 50.1598559 10.782192 47.498955 11.798352 47.498955 11.798352L47.498955 28.644432 42.439015 28.644432zM94.9385225 22.630848C94.9832072 24.180288 95.4684925 24.620448 96.7576216 24.844128L96.5788829 29.131968C93.117021 29.131968 91.9643483 28.600128 90.6348589 27.582048 90.6348589 27.582048 86.816961 29.131968 83.3997838 29.131968 79.1835676 29.131968 76.9656697 26.433408 76.9656697 22.055808 76.9656697 17.325888 79.5818859 15.689088 84.3756396 15.336288L89.8785826 14.893248 89.8785826 13.567488C89.8785826 11.843808 88.8133574 10.913568 87.1278318 10.913568 83.8451892 10.913568 78.5637477 11.311488 78.5637477 11.311488L78.3864505 7.021248C78.3864505 7.021248 84.108973 6.049248 87.3944985 6.049248 92.2752192 6.049248 94.9385225 8.085408 94.9385225 13.522368L94.9385225 22.630848zM84.9978619 19.093728C83.0889129 19.270848 82.0683724 20.110848 82.0683724 21.924768 82.0683724 23.782368 82.8674114 24.799008 84.3333574 24.799008 86.6853093 24.799008 89.8785826 23.914368 89.8785826 23.914368L89.8785826 18.828288 84.9978619 19.093728zM105.633441 11.135472L105.633441 20.156592C105.633441 23.207952 105.720889 24.354672 107.940709 24.354672 109.185634 24.354672 111.536625 24.222672 111.536625 24.222672L111.756204 28.555632C111.756204 28.555632 108.784432 29.175312 107.23152 29.175312 102.126414 29.175312 100.575423 27.230352 100.575423 20.862672L100.575423 11.135472 97.7809489 11.135472 97.7809489 6.581712 100.575423 6.581712 100.575423.169392 105.633441.169392 105.633441 6.581712 111.624072 6.581712 111.624072 11.135472 105.633441 11.135472z" transform="translate(73.514 5.76)"/>
    <path fill="#0D1130" d="M188.643844,34.40544 L193.701381,34.40544 L193.701381,12.34176 L188.643844,12.34176 L188.643844,34.40544 Z M188.643844,8.76 L193.701381,8.76 L193.701381,3.4104 L188.643844,3.4104 L188.643844,8.76 Z"/>
    <path fill="#0D1130" d="M16.4456456 1.130688L16.2683483 5.508288C16.2683483 5.508288 12.7622823 5.110368 11.0762763 5.110368 6.55159159 5.110368 5.52912913 6.789408 5.52912913 11.566848 5.52912913 16.872288 6.46222222 18.595488 11.1195195 18.595488 12.806967 18.595488 16.3111111 18.197568 16.3111111 18.197568L16.4456456 22.577568C16.4456456 22.577568 11.92 23.371008 9.56852853 23.371008 2.82306306 23.371008.381261261 19.968768.381261261 11.566848.381261261 3.650688 3.08924925.289728 9.70066066.289728 12.0968168.289728 16.4456456 1.130688 16.4456456 1.130688M36.3715075 16.870848C36.4142703 18.420288 36.9029189 18.860448 38.1901261 19.084128L38.0113874 23.371968C34.550006 23.371968 33.3973333 22.840128 32.0654414 21.822048 32.0654414 21.822048 28.2499459 23.371968 24.8322883 23.371968 20.6184745 23.371968 18.3986547 20.673408 18.3986547 16.295808 18.3986547 11.565888 21.0172733 9.929088 25.811027 9.576288L31.3115676 9.133248 31.3115676 7.807488C31.3115676 6.083808 30.2487447 5.153568 28.5603363 5.153568 25.2776937 5.153568 19.9967327 5.551488 19.9967327 5.551488L19.8199159 1.261248C19.8199159 1.261248 25.5443604.289248 28.8274835.289248 33.7082042.289248 36.3715075 2.325408 36.3715075 7.762368L36.3715075 16.870848zM26.4308468 13.333728C24.5238198 13.510848 23.5013574 14.350848 23.5013574 16.164768 23.5013574 18.022368 24.3027988 19.039008 25.7663423 19.039008 28.1178138 19.039008 31.3115676 18.154368 31.3115676 18.154368L31.3115676 13.068288 26.4308468 13.333728z" transform="translate(196.517 11.52)"/>
    <polygon fill="#49C8F5" points="78.103 48.013 78.103 49.635 81.236 49.635 81.236 58.841 83.158 58.841 83.158 49.635 86.291 49.635 86.291 48.013"/>
    <g transform="translate(87.928 47.04)">
      <path fill="#49C8F5" d="M.0863423423.112128L1.99240841.112128 1.99240841 3.125568 1.92562162 4.698528C2.2682042 4.378848 2.64682282 4.093728 3.060997 3.846048 3.47565165 3.597408 3.9643003 3.472608 4.5279039 3.472608 5.40045646 3.472608 6.03613213 3.751968 6.43396997 4.309248 6.83132733 4.866528 7.03024625 5.664288 7.03024625 6.702048L7.03024625 11.801568 5.12466066 11.801568 5.12466066 6.950208C5.12466066 6.277728 5.0252012 5.802528 4.82628228 5.526528 4.62736336 5.250048 4.30111712 5.112288 3.84802402 5.112288 3.49487087 5.112288 3.18255856 5.198688 2.91204805 5.368608 2.64105706 5.540448 2.33451051 5.791008 1.99240841 6.122208L1.99240841 11.801568.0863423423 11.801568.0863423423.112128zM8.88605405 7.745232C8.88605405 7.082352 8.99127928 6.486192 9.20124925 5.957232 9.41073874 5.427312 9.6898979 4.979472 10.0377658 4.615632 10.3861141 4.251792 10.7863544 3.969552 11.2394474 3.770832 11.6925405 3.572112 12.1562042 3.472752 12.6313994 3.472752 13.183952 3.472752 13.6701982 3.566832 14.0901381 3.754992 14.5095976 3.942192 14.8608288 4.208112 15.1423904 4.549872 15.4244324 4.891632 15.6368048 5.300592 15.7804685 5.774352 15.9241321 6.249072 15.9962042 6.767472 15.9962042 7.330992 15.9962042 7.706352 15.9683363 8.004432 15.9135616 8.225232L10.7421502 8.225232C10.8305586 8.964432 11.0876156 9.533232 11.5133213 9.930672 11.9380661 10.328112 12.4824505 10.526352 13.1455135 10.526352 13.4991471 10.526352 13.8277958 10.474512 14.1314595 10.368912 14.4356036 10.264272 14.7363844 10.117872 15.0347628 9.930672L15.681009 11.122512C15.2942222 11.376432 14.8637117 11.585712 14.3885165 11.750832 13.9133213 11.917392 13.416024 11.999952 12.8966246 11.999952 12.333021 11.999952 11.8083363 11.902512 11.3225706 11.710032 10.8358438 11.516592 10.4110991 11.238672 10.0464144 10.873872 9.68172973 10.510032 9.39728529 10.065552 9.1926006 9.541392 8.98791592 9.016752 8.88605405 8.418672 8.88605405 7.745232L8.88605405 7.745232zM14.3385465 7.016592C14.3385465 6.365232 14.2030511 5.857872 13.9325405 5.493072 13.66203 5.129232 13.244973 4.947312 12.6813694 4.947312 12.1951231 4.947312 11.7698979 5.120592 11.4052132 5.467632 11.0405285 5.816112 10.8142222 6.332592 10.7262943 7.016592L14.3385465 7.016592z"/>
      <g transform="translate(20.66 .48)">
        <mask id="acumatica-logo-d" fill="#fff">
          <use xlink:href="#acumatica-logo-c"/>
        </mask>
        <path fill="#49C8F5" d="M0.323747748,5.940528 C0.323747748,5.056848 0.453477477,4.265328 0.712936937,3.565008 C0.972876877,2.863248 1.32891291,2.270448 1.78248649,1.785168 C2.2350991,1.298928 2.76506907,0.929808 3.37335736,0.675888 C3.98068468,0.421968 4.6326967,0.294288 5.32891291,0.294288 C5.9914955,0.294288 6.58536937,0.433488 7.11005405,0.708048 C7.63473874,0.984528 8.06861261,1.304208 8.4111952,1.669008 L7.33395796,2.861328 C7.0572012,2.585328 6.76218619,2.366448 6.44699099,2.206608 C6.13227628,2.046768 5.76470871,1.967088 5.34524925,1.967088 C4.89167568,1.967088 4.48038438,2.058288 4.11041441,2.240208 C3.73996396,2.422128 3.41996396,2.681328 3.14897297,3.017808 C2.87846246,3.354768 2.66897297,3.765648 2.51954354,4.251408 C2.37059459,4.737168 2.29563964,5.283888 2.29563964,5.890128 C2.29563964,7.127088 2.56374775,8.095728 3.09948348,8.796048 C3.63521922,9.497808 4.36170571,9.848208 5.27942342,9.848208 C5.76470871,9.848208 6.18753153,9.753168 6.54645045,9.566928 C6.90584985,9.378288 7.24026426,9.113808 7.54921321,8.771568 L8.62693093,9.947088 C8.18488889,10.454448 7.68182583,10.844688 7.1187027,11.114448 C6.5550991,11.385168 5.93047447,11.520048 5.24578979,11.520048 C4.54957357,11.520048 3.90332733,11.398608 3.30657057,11.156208 C2.71029429,10.912848 2.19041441,10.553808 1.74885285,10.079088 C1.30729129,9.605328 0.958942943,9.019728 0.704768769,8.324688 C0.450594595,7.629168 0.323747748,6.834288 0.323747748,5.940528" mask="url(#acumatica-logo-d)"/>
      </g>
      <g transform="translate(30.75)">
        <mask id="acumatica-logo-f" fill="#fff">
          <use xlink:href="#acumatica-logo-e"/>
        </mask>
        <path fill="#49C8F5" d="M0.26018018,0.112128 L2.16624625,0.112128 L2.16624625,9.814368 C2.16624625,10.046688 2.20996997,10.208448 2.29885886,10.302528 C2.38678679,10.397088 2.48096096,10.443648 2.58042042,10.443648 L2.70534535,10.443648 C2.74378378,10.443648 2.80144144,10.432128 2.8787988,10.410528 L3.12720721,11.834688 C2.87255255,11.944128 2.5366967,12.000288 2.11675676,12.000288 C1.43159159,12.000288 0.951111111,11.796288 0.674834835,11.386848 C0.398558559,10.979808 0.26018018,10.422048 0.26018018,9.715008 L0.26018018,0.112128 Z" mask="url(#acumatica-logo-f)"/>
      </g>
      <path fill="#49C8F5" d="M35.053982,7.745232 C35.053982,7.071792 35.1596877,6.469392 35.3691772,5.940432 C35.5796276,5.410512 35.8640721,4.962672 36.222991,4.598832 C36.5819099,4.235472 36.9936817,3.956112 37.4573453,3.763632 C37.92197,3.570192 38.4077357,3.472752 38.9160841,3.472752 C39.423952,3.472752 39.9126006,3.570192 40.3825105,3.763632 C40.8524204,3.956112 41.2637117,4.235472 41.6178258,4.598832 C41.9704985,4.962672 42.2549429,5.410512 42.4706787,5.940432 C42.6864144,6.469392 42.794042,7.071792 42.794042,7.745232 C42.794042,8.418672 42.6864144,9.019632 42.4706787,9.550032 C42.2549429,10.078992 41.9704985,10.526352 41.6178258,10.890192 C41.2637117,11.254512 40.8524204,11.530512 40.3825105,11.718672 C39.9126006,11.905872 39.423952,11.999952 38.9160841,11.999952 C38.4077357,11.999952 37.92197,11.905872 37.4573453,11.718672 C36.9936817,11.530512 36.5819099,11.254512 36.222991,10.890192 C35.8640721,10.526352 35.5796276,10.078992 35.3691772,9.550032 C35.1596877,9.019632 35.053982,8.418672 35.053982,7.745232 M37.010018,7.745232 C37.010018,8.561712 37.1786667,9.215472 37.515964,9.706992 C37.8527808,10.198032 38.3198078,10.443792 38.9160841,10.443792 C39.5128408,10.443792 39.9817898,10.198032 40.3248529,9.706992 C40.6674354,9.215472 40.838967,8.561712 40.838967,7.745232 C40.838967,6.917232 40.6674354,6.257232 40.3248529,5.765712 C39.9817898,5.275632 39.5128408,5.029872 38.9160841,5.029872 C38.3198078,5.029872 37.8527808,5.275632 37.515964,5.765712 C37.1786667,6.257232 37.010018,6.917232 37.010018,7.745232"/>
      <g transform="translate(44.204 3.36)">
        <mask id="acumatica-logo-h" fill="#fff">
          <use xlink:href="#acumatica-logo-g"/>
        </mask>
        <path fill="#49C8F5" d="M0.479087087,0.311328 L2.38515315,0.311328 L2.38515315,5.163168 C2.38515315,5.836608 2.48461261,6.310848 2.68353153,6.587328 C2.88196997,6.863328 3.20245045,7.000608 3.64401201,7.000608 C3.99812613,7.000608 4.30995796,6.912288 4.58094895,6.736128 C4.85097898,6.559488 5.14215015,6.272448 5.45061862,5.875488 L5.45061862,0.311328 L7.35668468,0.311328 L7.35668468,8.441088 L5.79944745,8.441088 L5.64953754,7.248768 L5.60052853,7.248768 C5.24641441,7.668288 4.86251051,8.004768 4.44785586,8.259648 C4.03368168,8.513088 3.54455255,8.640288 2.98142943,8.640288 C2.10887688,8.640288 1.4732012,8.361408 1.07584384,7.803168 C0.678006006,7.245888 0.479087087,6.449088 0.479087087,5.410848 L0.479087087,0.311328 Z" mask="url(#acumatica-logo-h)"/>
      </g>
      <path fill="#49C8F5" d="M53.5665586,7.745232 C53.5665586,7.082352 53.6626547,6.486192 53.8562883,5.957232 C54.0499219,5.427312 54.3064985,4.979472 54.6279399,4.615632 C54.9479399,4.251792 55.3155075,3.969552 55.7287207,3.770832 C56.1433754,3.572112 56.5714835,3.472752 57.014006,3.472752 C57.4781502,3.472752 57.8702222,3.553392 58.1907027,3.713232 C58.5107027,3.873552 58.8311832,4.091952 59.1516637,4.366992 L59.0853574,3.059952 L59.0853574,0.112272 L60.9914234,0.112272 L60.9914234,11.801232 L59.4173694,11.801232 L59.2842763,10.923792 L59.2184505,10.923792 C58.9200721,11.221872 58.5717237,11.475792 58.1738859,11.685072 C57.776048,11.895312 57.3565886,11.999952 56.915027,11.999952 C55.8867988,11.999952 55.0714234,11.627472 54.4698619,10.882032 C53.8678198,10.137552 53.5665586,9.092112 53.5665586,7.745232 M55.5384505,7.728432 C55.5384505,8.611152 55.6965285,9.282192 56.0117237,9.740112 C56.3264384,10.198032 56.7819339,10.427472 57.3786907,10.427472 C57.9855375,10.427472 58.5549069,10.124112 59.0853574,9.516432 L59.0853574,5.724912 C58.7975495,5.470992 58.5193514,5.294352 58.2483604,5.195472 C57.9773694,5.095632 57.703976,5.046672 57.4276997,5.046672 C56.8982102,5.046672 56.4499219,5.277552 56.0857177,5.741712 C55.7215135,6.204912 55.5384505,6.866832 55.5384505,7.728432"/>
    </g>
    <polygon fill="#49C8F5" points="155.067 48.013 155.067 58.841 161.763 58.841 161.763 57.218 156.99 57.218 156.99 54.023 160.884 54.023 160.884 52.401 156.99 52.401 156.99 49.635 161.598 49.635 161.598 48.013"/>
    <path fill="#49C8F5" d="M6.13833033 10.841328L3.80175375 6.602448 2.1440961 6.602448 2.1440961 10.841328.222174174 10.841328.222174174.0125279985 3.88535736.0125279985C4.448.0125279985 4.9722042.0682079985 5.45893093.179087999 5.94517718.289007999 6.36511712.469007999 6.71827027.716207999 7.0719039.965327999 7.35058258 1.293168 7.55526727 1.702608 7.75947147 2.110608 7.86229429 2.618448 7.86229429 3.225168 7.86229429 4.052688 7.66577778 4.721328 7.27418619 5.228688 6.88163363 5.736048 6.35935135 6.100368 5.70781982 6.321168L8.29232432 10.841328 6.13833033 10.841328zM2.1440961 5.079888L3.68595796 5.079888C4.42637838 5.079888 4.99238438 4.925328 5.38541742 4.615248 5.77604805 4.307088 5.97304505 3.843888 5.97304505 3.225168 5.97304505 2.596368 5.77604805 2.160528 5.38541742 1.916688 4.99238438 1.673808 4.42637838 1.552848 3.68595796 1.552848L2.1440961 1.552848 2.1440961 5.079888zM10.2317838.0127199985L13.8786306.0127199985C14.4749069.0127199985 15.0250571.0679199985 15.5271592.178799998 16.0292613.288719998 16.4640961.476879998 16.8283003.741839998 17.192985 1.00728 17.4798318 1.35192 17.6902823 1.77672 17.8997718 2.20152 18.004997 2.72808 18.004997 3.35784 18.004997 3.95352 17.8997718 4.4724 17.6902823 4.91352 17.4798318 5.3556 17.1901021 5.7228 16.8196517 6.01464 16.4501622 6.30744 16.0134054 6.52296 15.5103423 6.6612 15.0077598 6.79896 14.4638559 6.8676 13.8786306 6.8676L12.1546667 6.8676 12.1546667 10.84152 10.2317838 10.84152 10.2317838.0127199985zM13.7287207 5.32776C15.3200721 5.32776 16.1152673 4.67112 16.1152673 3.35784 16.1152673 2.67384 15.9163483 2.20152 15.5185105 1.94232 15.1211532 1.68264 14.5243964 1.55304 13.7287207 1.55304L12.1546667 1.55304 12.1546667 5.32776 13.7287207 5.32776z" transform="translate(163.844 48)"/>
  </g>
</svg>
