<svg width="120" height="46" viewBox="0 0 120 46" fill="none" xmlns="http://www.w3.org/2000/svg">
<path fill-rule="evenodd" clip-rule="evenodd" d="M14.871 25.7334C14.9329 25.7304 14.9948 25.7398 15.053 25.761C15.1113 25.7822 15.1647 25.8149 15.21 25.8571C15.2554 25.8993 15.2919 25.9501 15.3173 26.0065C15.3427 26.063 15.3566 26.124 15.358 26.1859V30.4729C15.3767 30.7059 15.347 30.9403 15.2708 31.1613C15.1946 31.3823 15.0734 31.5852 14.915 31.7573C14.7565 31.9293 14.5642 32.0668 14.35 32.1611C14.1359 32.2554 13.9045 32.3046 13.6704 32.3054H8.15461C7.7616 32.3506 7.36345 32.3114 6.98687 32.1903C6.61028 32.0693 6.26396 31.8692 5.97114 31.6036C5.67832 31.3379 5.44576 31.0128 5.28906 30.65C5.13236 30.2872 5.05514 29.8952 5.06258 29.5001V28.4595C5.05299 27.7718 5.23325 27.0947 5.58358 26.5026C5.82412 26.2289 6.12583 26.0156 6.46428 25.88C6.80273 25.7444 7.1684 25.6903 7.53167 25.7221L14.871 25.7334ZM1.3816 15.6324C1.72139 16.9671 2.82002 16.9671 3.59019 16.9671C5.47032 16.9671 5.85541 16.7522 6.98802 16.6843C8.40603 16.5341 9.83296 16.485 11.258 16.5373C13.761 16.6617 14.2707 17.0915 14.4519 17.2386C14.802 17.612 15.0648 18.0583 15.2214 18.5453C15.3781 19.0323 15.4248 19.5479 15.358 20.0551V20.8243C15.3537 20.9474 15.3058 21.0649 15.2228 21.1561C15.1399 21.2472 15.0272 21.306 14.905 21.322H6.87476C5.03847 21.2044 3.2234 21.7683 1.77802 22.9056C1.18609 23.4946 0.726453 24.2027 0.429629 24.9828C0.132806 25.7629 0.00559583 26.5972 0.0564495 27.4301V30.3259C0.0414868 31.2285 0.211621 32.1247 0.556383 32.9592C0.901145 33.7937 1.41324 34.549 2.06117 35.1785C3.35705 36.2725 4.99667 36.8771 6.69354 36.8865H16.1961C21.3608 36.8865 21.055 32.4185 21.0664 31.6606V19.8402C21.1755 17.8287 20.6095 15.8384 19.4581 14.1845C19.4581 14.1845 16.366 9.34321 2.84267 12.0919C2.39321 12.216 1.99594 12.4818 1.71006 12.8497C1.27058 13.7081 1.15403 14.6955 1.3816 15.6324V15.6324Z" fill="#FE5A00"/>
<path fill-rule="evenodd" clip-rule="evenodd" d="M30.9542 37.5199C30.9542 35.2011 32.5851 35.0993 33.8423 35.6422C35.6793 36.477 37.6801 36.8905 39.6979 36.8526C43.2656 36.7281 47.9886 35.5065 47.898 24.1725C47.898 19.9872 47.2411 16.7635 45.9952 14.5012C44.7494 12.2389 42.7446 11.3114 39.9584 11.3114C38.5425 11.3567 37.1588 11.7448 35.9263 12.4425C33.2194 13.9243 33.1854 15.9491 33.1854 15.9717C33.1854 16.7974 33.4912 17.3856 34.7597 16.8201C35.8131 16.345 40.1396 14.7388 41.5554 18.3245C42.1874 20.0058 42.4426 21.8051 42.3029 23.5956C42.3867 25.7242 42.1422 27.853 41.5781 29.9074C40.6833 32.3732 37.6592 32.3959 34.2841 31.7964C33.4112 31.6249 32.552 31.3905 31.713 31.095C31.4627 31.0246 31.2407 30.8776 31.0782 30.6747C30.9157 30.4719 30.8208 30.2233 30.8069 29.9639V13.2683C30.835 12.9851 30.7986 12.6992 30.7004 12.432C30.6023 12.1648 30.445 11.9232 30.2403 11.7252C30.0355 11.5273 29.7886 11.3781 29.518 11.2888C29.2475 11.1995 28.9602 11.1724 28.6776 11.2096H26.9447C26.6657 11.1956 26.3867 11.239 26.1252 11.3372C25.8636 11.4354 25.6251 11.5862 25.4243 11.7804C25.2236 11.9745 25.065 12.2077 24.9583 12.4656C24.8516 12.7235 24.7991 13.0006 24.8041 13.2796V43.696C24.7867 43.9289 24.8182 44.1629 24.8968 44.383C24.9753 44.6031 25.0991 44.8042 25.2602 44.9736C25.4213 45.143 25.6161 45.2769 25.8321 45.3666C26.0481 45.4563 26.2805 45.4999 26.5143 45.4945H29.4478C29.7723 45.4994 30.0899 45.4003 30.3539 45.2117C30.5562 45.0205 30.7155 44.7885 30.8209 44.531C30.9264 44.2735 30.9757 43.9966 30.9655 43.7186C30.9542 41.5129 30.9768 39.7256 30.9542 37.5199Z" fill="#86C440"/>
<path fill-rule="evenodd" clip-rule="evenodd" d="M75.7716 34.9749V13.0647C75.7716 11.4132 74.7636 11.2548 73.9481 11.2435H71.9547C71.2639 11.2435 69.9387 11.2435 69.95 13.1778V35.0653C69.95 36.434 70.7315 36.8752 71.5244 36.8752H74.0161C74.4578 36.8978 75.8849 36.9996 75.7716 34.9749Z" fill="#86C440"/>
<path fill-rule="evenodd" clip-rule="evenodd" d="M63.7659 16.0283C64.0824 16.0297 64.3957 15.9649 64.6856 15.838C64.9754 15.7111 65.2354 15.525 65.4489 15.2916C65.6623 15.0582 65.8244 14.7827 65.9247 14.4829C66.025 14.1831 66.0612 13.8657 66.0312 13.5511V12.1937C66.0349 11.9529 65.9469 11.7197 65.785 11.5412C65.6231 11.3627 65.3994 11.2523 65.1591 11.2322H60.4927C60.3219 11.2399 60.1514 11.2128 59.9915 11.1524C59.8316 11.092 59.6857 10.9998 59.5628 10.8812C59.4398 10.7626 59.3423 10.6202 59.2763 10.4628C59.2103 10.3053 59.1772 10.136 59.1789 9.96534V5.91586C59.1929 5.65597 59.1481 5.39625 59.0478 5.15605C58.9475 4.91584 58.7942 4.70133 58.5993 4.52848C58.4045 4.35563 58.1731 4.2289 57.9224 4.15772C57.6718 4.08654 57.4083 4.07274 57.1515 4.11735H55.3167C55.0672 4.10206 54.8171 4.13723 54.5815 4.22075C54.3459 4.30427 54.1297 4.43443 53.9457 4.60342C53.7616 4.77241 53.6137 4.97675 53.5106 5.20421C53.4076 5.43168 53.3516 5.67757 53.3459 5.92717C53.3459 5.92717 53.3459 9.65993 53.3459 9.81829C53.3571 10.004 53.3293 10.19 53.2642 10.3643C53.1992 10.5386 53.0984 10.6975 52.9683 10.8306C52.8382 10.9637 52.6816 11.0682 52.5087 11.1374C52.3358 11.2066 52.1503 11.2389 51.9641 11.2322H51.0354C49.7782 11.2322 49.1553 11.8996 49.1553 12.8384V15.1007C49.1553 15.3358 49.248 15.5614 49.4133 15.7286C49.5787 15.8959 49.8034 15.9913 50.0387 15.9943H51.9868C53.1194 15.9943 53.3912 16.5146 53.3912 17.2725V29.6246C53.2489 31.5801 53.8381 33.5188 55.0448 35.0653C55.6406 35.7235 56.3785 36.2376 57.2027 36.5688C58.0268 36.9 58.9156 37.0396 59.8018 36.977C60.9344 36.977 64.8306 36.977 65.3856 34.1831C65.4759 33.549 65.4759 32.9054 65.3856 32.2714C65.3556 32.0615 65.251 31.8694 65.0909 31.7303C64.9307 31.5911 64.7258 31.5142 64.5135 31.5136H62.0217C61.6209 31.5671 61.2133 31.5385 60.8239 31.4296C60.4344 31.3207 60.0712 31.1338 59.7565 30.8801C59.2622 30.2356 59.0388 29.4241 59.1336 28.6178V17.3743C59.1083 17.0465 59.2128 16.7219 59.4246 16.4702C59.6364 16.2186 59.9385 16.0599 60.2662 16.0283H63.7659Z" fill="#86C440"/>
<path fill-rule="evenodd" clip-rule="evenodd" d="M108.73 16.0396C110.758 16.0396 112.128 16.5373 112.966 17.7023C113.805 18.8674 114.099 20.994 114.099 24.082C114.099 27.17 113.748 29.2626 112.966 30.4277C112.185 31.5927 110.701 32.1357 108.742 32.0791C106.782 32.0226 105.242 31.5814 104.449 30.4277C103.656 29.2739 103.317 27.1474 103.317 24.082C103.317 21.0166 103.656 18.8561 104.449 17.7023C105.242 16.5486 106.658 15.983 108.73 16.0396ZM108.73 11.2322C104.642 11.2322 101.708 12.1598 99.9527 14.1619C98.1972 16.164 97.3251 19.4669 97.4044 24.082C97.4837 28.697 98.2085 31.9999 99.9754 33.9794C101.742 35.9589 104.63 36.9317 108.73 36.8752C112.831 36.8186 115.707 35.9589 117.452 33.9794C119.196 31.9999 120.057 28.697 120.057 24.082C120.057 19.4669 119.252 16.164 117.508 14.1619C115.764 12.1598 112.797 11.187 108.73 11.2322Z" fill="#86C440"/>
<path fill-rule="evenodd" clip-rule="evenodd" d="M69.9047 4.2644V6.27783C69.9047 7.89536 70.6975 8.70978 72.1699 8.72109C72.1699 8.72109 77.7197 8.86814 78.0481 2.05867C78.1501 1.64015 78.252 -3.44071e-06 75.8848 -3.44071e-06H74.3218C73.75 -0.015053 73.181 0.0838829 72.6479 0.291021C72.1148 0.49816 71.6284 0.809345 71.2171 1.20639C70.8059 1.60343 70.478 2.07836 70.2526 2.60343C70.0273 3.12849 69.909 3.69315 69.9047 4.2644V4.2644Z" fill="#FE5A00"/>
<path fill-rule="evenodd" clip-rule="evenodd" d="M94.2898 16.0283C94.6063 16.0297 94.9195 15.9649 95.2094 15.838C95.4992 15.7111 95.7593 15.525 95.9727 15.2916C96.1861 15.0582 96.3482 14.7827 96.4485 14.4829C96.5488 14.1831 96.5851 13.8657 96.555 13.5511V12.1937C96.5558 11.9518 96.4653 11.7186 96.3016 11.5404C96.1379 11.3622 95.9129 11.2521 95.6716 11.2322H91.0052C90.835 11.24 90.665 11.2128 90.5057 11.1523C90.3464 11.0918 90.2012 10.9994 90.0791 10.8806C89.957 10.7619 89.8606 10.6194 89.7959 10.462C89.7312 10.3045 89.6994 10.1355 89.7027 9.96534C89.7027 9.80698 89.7027 5.91586 89.7027 5.91586C89.715 5.65542 89.6686 5.39556 89.5669 5.15543C89.4652 4.9153 89.3108 4.70103 89.1152 4.52842C88.9195 4.35581 88.6875 4.22927 88.4364 4.15812C88.1852 4.08697 87.9213 4.07304 87.664 4.11735H85.8292C85.576 4.09563 85.3211 4.12602 85.0802 4.20662C84.8393 4.28723 84.6175 4.41634 84.4285 4.58598C84.2395 4.75561 84.0874 4.96217 83.9816 5.19286C83.8757 5.42355 83.8184 5.67347 83.8131 5.92717V9.81829C83.8243 10.004 83.7965 10.19 83.7315 10.3643C83.6664 10.5386 83.5656 10.6975 83.4355 10.8306C83.3054 10.9637 83.1489 11.0682 82.9759 11.1374C82.803 11.2066 82.6175 11.2389 82.4314 11.2322H81.5479C80.2907 11.2322 79.6678 11.8996 79.6791 12.8384V15.1007C79.6761 15.217 79.6964 15.3327 79.7389 15.441C79.7814 15.5493 79.8451 15.648 79.9264 15.7313C80.0077 15.8146 80.1049 15.8807 80.2122 15.9259C80.3195 15.9711 80.4348 15.9944 80.5512 15.9943H82.522C83.6546 15.9943 83.9264 16.5146 83.9264 17.2725V29.6246C83.7777 31.5772 84.3587 33.5156 85.5574 35.0653C86.1547 35.7215 86.8928 36.2343 87.7166 36.5653C88.5404 36.8963 89.4284 37.0371 90.3143 36.977C91.4469 36.977 95.3431 36.977 95.8981 34.1831C96.0001 33.5499 96.0001 32.9046 95.8981 32.2714C95.8707 32.0625 95.7684 31.8705 95.6101 31.7312C95.4518 31.5918 95.2483 31.5145 95.0373 31.5136H92.5342C92.1334 31.5664 91.726 31.5375 91.3366 31.4287C90.9473 31.3198 90.5841 31.1332 90.269 30.8801C89.7801 30.233 89.5572 29.4237 89.6461 28.6178V17.3743C89.6208 17.0465 89.7253 16.7219 89.9371 16.4702C90.1489 16.2186 90.451 16.0599 90.7787 16.0283H94.2898Z" fill="#86C440"/>
</svg>
