<?xml version="1.0" encoding="utf-8"?>
<!-- Generator: Adobe Illustrator 21.0.2, SVG Export Plug-In . SVG Version: 6.00 Build 0)  -->
<svg version="1.1" id="Layer_1" xmlns="http://www.w3.org/2000/svg" xmlns:xlink="http://www.w3.org/1999/xlink" x="0px" y="0px"
	 viewBox="0 0 175.1 56.7" style="enable-background:new 0 0 175.1 56.7;" xml:space="preserve">
<style type="text/css">
	.st0{fill:#CE0A24;}
	.st1{fill:#FFFFFF;}
</style>
<g>
	<g>
		<path id="Nando_x27_s_1_" class="st0" d="M88.9,45.8c-0.1,0-0.2,0-0.3,0c-0.3,0-0.6,0.2-0.8,0.3c-0.2,0.1-0.4,0.2-0.6,0.2l0,0
			c0,0-0.1,0-0.1-0.1c-0.3-0.3-0.1-1.5,0-2l0-0.1c0.2-1.2,0.4-2.6,0.5-3.8l0,0l0.1-0.6c0.1-0.7,0.3-2,0.3-2.3c0-1-0.2-1.2-0.5-1.5
			l-0.1-0.1c-0.4-0.4-1-0.9-2.1-1.5c-0.3-0.2-0.7-0.4-1-0.3c-0.3,0-0.6,0.3-0.7,0.6c-0.1,0.1-0.1,0.3-0.3,0.6l0,0.1
			c0,0-0.1,0-0.1,0.1c-0.1,0-0.2,0-0.3-0.1c-0.1,0-0.1-0.1-0.2-0.1c-1.4-0.6-3.3-0.8-3.4-0.8c0,0-0.3,0-0.7,0c-0.4,0-0.7,0-1.1,0
			c-1.8,0.1-3.1,0.5-3.4,0.7c-0.4,0.1-0.9,0.3-1.3,0.5c-2.1,1-3.7,2.6-4.6,4.7c-0.2,0.5-1.8,5.1,1.8,8c0.1,0.1,0.1,0.1,0.2,0.2
			l0.1,0.1c0.1,0.1,0.2,0.2,0.3,0.2l0.1,0.1c0,0,0.1,0.1,0.1,0.1c0.4,0.3,0.9,0.5,1.3,0.7l0.3,0.1l0,0c0.6,0.2,1.1,0.3,1.3,0.4
			l0.1,0c0.5,0.1,1.5,0.2,1.9,0.2c0,0,0.1,0,0.1,0c2.3-0.1,3.8-0.6,4.7-1.1l0,0l0.2-0.2c0.5-0.3,0.9-0.7,1.1-0.9l0,0l0,0
			c0,0.1,0.1,0.1,0.1,0.2l0,0c0.3,0.5,1.4,1.6,3.3,1.6h0c0.2,0,0.5,0,0.7,0c1-0.1,2.9-0.6,3.4-2.5c0.1-0.2,0.2-0.7,0-1
			C89.3,46,89.2,45.9,88.9,45.8z M82.6,38.2c0,0.3-0.3,3.2-0.6,4.4c-0.1,0.6-0.5,2.2-1.3,3c-1,1-1.8,1.4-3,1.6c-0.1,0-0.3,0-0.5,0
			c-0.6,0-1.2-0.2-1.8-0.7c-0.8-0.6-1.6-2-1.5-4c0-0.4,0.1-0.8,0.2-1.2l0,0c0.1-0.5,0.3-0.9,0.6-1.3c1.7-2.9,4.9-3.1,4.9-3.1
			c0.3,0,0.5,0,0.8,0C82.5,37,82.6,38.2,82.6,38.2z M112.9,41.4C112.9,41.4,112.9,41.4,112.9,41.4c0,0.6-0.2,2.7-1.3,4.3
			c-1.3,1.9-3,3-4.2,3.7c-0.1,0.1-0.2,0.1-0.4,0.2c-0.7,0.4-1.5,0.8-2.5,1c-0.1,0-0.1,0-0.2,0c-0.1,0-0.2,0-0.3-0.1l0,0
			c-0.2-0.1-0.4-0.2-0.4-0.5c0-0.1,0-0.2,0.2-0.6c0.6-0.7,2.4-3.4,2.9-7.3c0.3-2.2,0-3.7-0.7-4.5c-0.5-0.5-1.2-0.8-2.1-0.8
			c-0.1,0-0.3,0-0.4,0c-2.5,0.2-3.7,2.5-3.9,3.8c-0.3,1.4-0.6,3.5-0.9,5c0,0.5-0.1,1.6,0.7,1.9c0.8,0.3,1.2,0.8,1,1.3
			c-0.1,0.4-0.4,0.7-0.9,0.7c-0.6,0-1.3,0-1.9,0c-0.4,0-0.7,0-1,0c-0.6,0-1.3,0-1.9,0c-0.3,0-0.6,0-0.9,0c-0.1,0-0.2,0-0.3,0
			c-0.2,0-0.3,0-0.4,0c-0.1,0-0.2,0-0.4,0c-0.1,0-0.2,0-0.3,0c-0.3,0-0.7,0-1.1,0c-0.4,0-0.6-0.1-0.8-0.2c-0.2-0.2-0.2-0.5-0.2-0.6
			c0-0.3,0.1-0.6,0.3-0.8c0.2-0.2,0.5-0.3,0.8-0.4c0.5-0.1,1-0.3,1.3-1.5c0.2-1.1,0.4-2.8,0.7-4.3c0.2-1.5,0.5-2.9,0.6-3.7
			c0,0,0-0.1,0-0.1c0-0.1,0-0.1,0-0.2c0,0-0.1,0-0.3,0c-0.1,0-1.6,0.1-1.8-0.7c-0.3-1,0.3-1.2,0.7-1.4l0.1,0c0.4-0.1,4-1.2,4.7-1.2
			c0.1,0,0.2,0,0.3,0c0.1,0,0.3,0,0.4,0c0.2,0,0.4,0.1,0.5,0.2c0.5,0.4,0.5,1.1,0.5,1.7c0.9-0.9,2.4-1.9,4.5-2v0
			c0.1,0,0.4-0.1,1-0.1c0.1,0,0.1,0,0.2,0c0.7,0,1.4,0.1,1.5,0.1c2.1,0.3,3.6,1.1,4.8,2.6C112,37.6,112.9,39.1,112.9,41.4z
			 M67.8,30.5l-3.2,18.3l0,0c0,0.1-0.1,0.7-0.1,0.7c-0.1,0.5-0.6,0.8-1,0.8l0,0c-1,0-2.1-1.5-2.2-1.6l-0.1-0.2
			c-1.2-1.6-8.1-12.2-9.5-14.3l-1.9,11.2c0,0-0.4,1.7,0.6,2.1c1.5,0.6,1.5,1.2,1.3,1.6c-0.1,0.2-0.2,0.5-0.7,0.6c0,0-0.1,0-0.1,0
			c0,0,0,0,0,0l0,0c-0.1,0-0.3,0-0.4,0c-0.1,0-0.3,0-0.4,0l-0.1,0c-0.4,0-1.4-0.1-3-0.1c-1.1,0-2.2,0.1-2.9,0.2
			c-0.3,0-0.6,0.1-0.8,0.1l0,0c0,0-0.1,0-0.2,0c-0.2,0-0.6,0-0.8-0.3c-0.2-0.2-0.3-0.5-0.2-0.9c0-0.5,0.7-0.7,1.4-0.8l0.1,0
			c1.3-0.3,1.8-1.9,1.9-2.6c0,0,0,0,0,0c0.3-1.5,0.9-5.3,1.4-8.6c0.5-3.1,0.9-5.7,1-6.3c0.2-1-0.1-1.8-1-2.3l0,0
			c-0.4-0.2-0.6-0.3-0.9-0.5c-0.2-0.2-0.5-0.6-0.5-0.9c0-0.3,0.3-0.6,0.6-0.7l0,0l0,0c0,0,0,0,0,0l0,0c0,0,0.3,0,0.7-0.1l0,0l0,0
			l0,0l0,0l0,0c0.6-0.1,1.1-0.1,1.7-0.1c0.2,0,0.4,0,0.6,0c0.2,0,0.3,0,0.5,0l0.1,0c0.2,0,0.5,0,0.8,0.1c0.2,0,0.2,0,0.2,0v0
			c2.6,0.4,4.9,2.6,7.6,7c1,1.6,2.2,3.6,3.2,5.1c0.3,0.6,0.7,1.1,0.9,1.5l1.5-9.2c0,0,0.3-1.9-1-2.5c-0.8-0.3-1.2-0.8-1.1-1.3
			c0.1-0.6,0.5-0.9,1.2-0.8l0,0c0.1,0,0.2,0,0.2,0c0.1,0,0.3,0,0.4,0l0.1,0c0.4,0,1.4,0.1,3,0.1c1.1,0,2.2-0.1,2.9-0.2
			c0.4,0,0.7-0.1,0.9-0.1c0.1,0,0.1,0,0.1,0c0,0,0,0,0,0c0.3,0,0.5,0.2,0.7,0.4l0,0l0,0.1c0.1,0.8-0.4,1.3-1.6,1.6
			C68.1,28.3,67.8,30.4,67.8,30.5L67.8,30.5L67.8,30.5z M136,45.9c-0.1,0-0.2,0-0.3,0h0c-0.3,0-0.6,0.2-0.8,0.3
			c-0.2,0.1-0.4,0.2-0.6,0.2c0,0-0.1,0-0.1-0.1c-0.3-0.3-0.1-1.6,0-2l0-0.1c0.1-0.7,0.2-1.5,0.4-2.6c0.1-0.5,0.2-1.1,0.2-1.6
			c0.2-1.3,0.7-3.9,1-5.3c0.8-3.7,1.7-6.2,2.2-7.4c0.2-0.6,0.3-0.8,0.3-0.9c0-0.2,0-0.8-0.5-1c-0.1,0-0.2-0.1-0.3-0.1
			c-0.6,0-1.4,0.6-1.8,0.9c-3.6,2.6-5,7.2-5.5,8.9c0,0-0.1,0-0.2-0.1c-0.1,0-0.1-0.1-0.2-0.1c-1.4-0.6-3.4-0.8-3.4-0.8
			c0,0-0.3,0-0.7,0h-0.1c-0.4,0-0.7,0-1.1,0c-1.9,0.1-3.1,0.6-3.5,0.7c-0.4,0.1-0.9,0.3-1.3,0.5c-2.1,1-3.7,2.6-4.6,4.8
			c-0.2,0.5-1.8,5.1,1.8,8.1c0.1,0.1,0.1,0.1,0.2,0.2l0.1,0.1c0.1,0.1,0.2,0.2,0.3,0.2l0.1,0.1c0,0,0.1,0.1,0.1,0.1
			c0.4,0.3,0.9,0.5,1.4,0.7l0,0h0c0.4,0.2,1,0.3,1.7,0.5c0.5,0.1,1.5,0.2,1.9,0.2h0c0,0,0.1,0,0.1,0c2.3-0.1,3.9-0.6,4.8-1.2l0,0
			l0.2-0.2c0.5-0.3,0.9-0.7,1.1-0.9c0,0.1,0.1,0.2,0.1,0.2l0,0c0.3,0.5,1.4,1.6,3.2,1.6c0.3,0,0.6,0,0.8,0c1-0.1,2.9-0.6,3.5-2.5
			c0.1-0.2,0.2-0.7,0-1C136.4,46.1,136.2,45.9,136,45.9z M120.9,42.7c0-0.4,0.1-0.8,0.2-1.2l0,0c0.1-0.5,0.3-0.9,0.6-1.3
			c1.7-2.9,4.9-3.1,5-3.1c0.3,0,0.5,0,0.8,0c1.6,0,2,0.7,2.1,1c0,0.1,0,0.2,0,0.2c0,0.3-0.3,3.3-0.6,4.5c-0.1,0.5-0.3,1.5-0.7,2.2
			c-0.2,0.3-0.3,0.5-0.5,0.7c-1,1.1-1.8,1.5-3.1,1.6c-0.1,0-0.3,0-0.5,0c-0.6,0-1.2-0.2-1.9-0.7C121.5,46.1,120.8,44.7,120.9,42.7z
			 M122.7,50.1L122.7,50.1L122.7,50.1L122.7,50.1z M175.1,45c0,1.1-0.6,2.3-1.6,3.3c-1,0.9-2.3,1.5-3.8,1.8
			c-0.4,0.1-1.7,0.3-3.4,0.3h0c-1.2,0-2.4-0.1-3.4-0.4l0,0l-0.3-0.1c-0.9-0.3-1.6-0.7-2.1-1.1c-0.1-0.1-0.2-0.2-0.3-0.3c0,0,0,0,0,0
			c-0.7-0.8-0.8-1.9-0.3-2.8c0.3-0.6,0.8-1,1.4-1.3c1-0.4,1.9-0.4,2.1-0.4l0.1,0c0,0,0.1,0,0.1,0c0.4,0,1.1,0.1,1.4,0.5
			c0.1,0.2,0.2,0.3,0.1,0.5c0,0.1-0.1,0.3-0.4,0.4c-0.7,0.4-1.2,0.7-1.3,1c0,0.2,0,0.3,0.1,0.5c0.2,0.4,1.1,0.7,2.3,0.7l0.1,0
			c1.2,0,2.2-0.3,2.7-0.9c0.2-0.3,0.3-0.6,0.3-0.8c0-0.1,0-0.2-0.1-0.3c-0.5-1.1-2.1-2.5-4.8-4.4c-0.1-0.1-0.2-0.1-0.3-0.2
			c-1.7-1.2-1.6-2.2-1.6-2.5l0,0c0,0,0,0,0,0c0-0.4,0.1-0.7,0.1-0.7l0,0c0.7-2.2,3.2-2.8,4.6-3c0.5-0.1,1-0.1,1.2-0.1l0.1,0
			c0.2,0,0.5,0,0.7,0c1.2,0,2.1,0.1,2.5,0.2c0.2,0.1,0.4,0.1,0.6,0.1c0.6,0,0.8-0.3,1-0.6l0,0c0.1-0.2,0.5-0.5,0.9-0.4l0.1,0
			c0.4,0,0.7,0.2,0.6,1.3c0,0.7-0.2,2.9-0.3,3.3c0,0.4-0.1,0.6-0.3,0.8c-0.1,0.1-0.3,0.2-0.6,0.1c-0.4,0-0.7-0.6-0.8-0.7l0,0
			c-0.2-0.6-1.1-1.3-2.8-1.3l-0.1,0c-0.9,0-1.2,0.2-1.3,0.3c-0.1,0.1-0.1,0.2,0,0.3l0,0c0,0.3,0.5,0.6,0.9,0.9
			c0.2,0.1,0.3,0.2,0.4,0.3c0.9,0.7,1.6,1.2,2.1,1.6c0.6,0.4,1.1,0.8,1.4,1.1C174,42.2,175.1,43.1,175.1,45z M160.2,34.9
			c-0.1,0.1-0.3,0.1-0.5,0.2c-0.1,0-0.1,0-0.2,0c-0.2,0-0.3,0-0.5-0.1c-0.3-0.3-0.2-0.6-0.1-0.8c1-1.5,0.8-3.8,0.5-4.9l0,0l0,0
			l0-0.1c-0.1-0.3-0.1-0.5-0.1-0.8c0-1.2,0.7-1.7,0.8-1.7c0,0,0.1,0,0.2-0.1l0,0l0.1,0c0,0,0.2-0.1,0.3-0.1c0.1,0,0.1,0,0.1,0
			c0,0,0.1,0,0.1,0c0,0,0,0,0.1,0c0.4-0.1,0.9-0.1,1.5,0.2c0,0,0.1,0,0.1,0.1c0.3,0.1,0.5,0.3,0.8,0.6c0.2,0.3,0.3,0.6,0.4,0.9
			c0.1,0.5,0.1,1,0.1,1.7c0,0-0.1,0.8-0.3,1.3l-0.2,0.5c-0.2,0.4-0.2,0.6-0.5,1c0,0-0.1,0.1-0.1,0.2c0,0-0.1,0.1-0.1,0.1
			c-0.2,0.3-0.3,0.4-0.5,0.6c0,0.1-0.1,0.1-0.2,0.2l-0.1,0.1c-0.1,0.1-0.3,0.3-0.5,0.5C160.9,34.6,160.5,34.8,160.2,34.9L160.2,34.9
			z M156.5,36.4c-2.1-2-5.1-2.3-6.8-2.3c-0.9,0-1.5,0.1-1.5,0.1c-4,0.6-6.9,2.1-8.8,4.5c-1.8,2.4-1.8,4.8-1.7,5.5
			c0.3,3.4,2.3,5.4,6,6l0,0c0,0,1.1,0.2,2.7,0.2c1.9,0,3.6-0.3,5.1-0.8c1.6-0.5,2.6-1.4,2.7-1.4l0,0c2-1.5,2.9-3.1,2.9-3.2
			C158.3,42.5,159.2,39.1,156.5,36.4L156.5,36.4z M143.7,44.2c0-0.1,0-0.3,0-0.4l0,0c0,0,0,0,0,0c0-0.8,0.3-2,0.4-2.3l0-0.1
			c0.3-0.9,0.4-1.2,0.9-1.9c0.7-1.1,1-1.4,1.8-1.9c0.7-0.5,1.6-0.6,1.7-0.6l0,0c0.1,0,0.3,0,0.6,0c0.3,0,0.5,0,0.6,0l0,0
			c0.1,0,0.8,0.1,1.5,0.7c0.7,0.7,1.1,1.6,1.2,2.7c0,0.6,0,1-0.1,1.8c-0.2,1.4-0.7,2.3-1.1,2.9c-0.6,0.8-1.1,1.4-1.9,1.9
			c-0.4,0.2-1.1,0.6-2.3,0.6c-0.3,0-0.6,0-0.9-0.1c-0.4-0.1-0.9-0.4-0.9-0.4c0,0-0.2-0.2-0.3-0.3C144.2,46.2,143.9,45.3,143.7,44.2z
			"/>
	</g>
	<g>
		<g>
			<path id="barci_black_2_" d="M29.5,28.2c0.1-1.3,0.2-4.5,0.4-7c0.3,0.4,0.7,0.7,1.4,0.6c0.3-0.1,1-0.3,1.1-1.3
				c0-0.6-0.4-1.4-1.6-2.6c-0.1-0.1-0.2-0.2-0.3-0.2c0.7-0.6,1.8-1.7,2.3-2.7l0.1-0.2l-0.2-0.2c-1.1-0.9-2.6-1.8-3.4-2.2
				c-0.3-0.2-0.6-0.3-0.9-0.5c0,0,0.1-0.1,0.1-0.1c0.7-0.7,3.4-3.8,1.7-8c-1.7-4.2-6-4.1-8.3-3.6c-0.8,0.2-1.6,0.6-2,0.9
				c-1.5,1-2.7,2.5-3,4.3c-0.4,1.9,0.2,4.1,1.7,5.5c0.3,0.3,0.4,0.3,0.5,0.3c0,0,0.1-0.4,0.7-0.9c0.2-0.2,1.3-1.1,2.8-0.6
				c0.9,0.3,1.3,0.7,1.5,1.4c0.1,0.3,0.2,0.7,0.2,1c0,0-0.1,0-0.1,0c-1.1,0.7-2.4,2.3-2.1,6.1c0.3,4.4,0.7,8,0.9,10.1
				c-0.7,0-1.3,0.1-1.9,0.2c0.9-4,0.7-8.6-3.7-11.4c-4.2-2.6-10.1-1.8-13.8,1.4c-3.7,3.2-4.6,8.6-2.6,13c0.2,0.4,0.4,0.8,0.6,1.1
				c0.6,1.1,1.5,2.1,2.5,2.8c1,0.8,2.2,1.3,3.4,1.7c0.8,0.2,1.5,0.4,2.3,0.6c0.1,0,0.2-0.1,0.1-0.2c-0.1-0.1-0.1-0.2-0.1-0.2
				c-0.2-0.4-0.4-0.8-0.5-1.3c-0.3-1.6,0.2-3.5,1.6-4.5c1.3-0.9,3-1,4.3,0c0.2,0.2,0.4,0.3,0.6,0.6c-0.7,1.6-0.7,3.4-0.5,4.5
				c0.1,0.8,0.3,1.1,0.4,1.4c0.7,2.1,2.5,4.3,3.2,5.1c1,1.2,3.7,4.1,4.7,5.1v4.3c-0.4,0.2-2.7,1.7-3.7,3.9c-0.1,0.2,0.1,0.5,0.4,0.4
				c1.8-0.3,4-0.4,6.2-0.4c2.2,0,4.2,0.2,6,0.4c0.3,0,0.5-0.2,0.4-0.4c-1-2.2-3.4-3.7-3.7-3.9v-4.2c0.9-1,3.5-3.9,4.4-5.2
				c0.6-0.8,3.1-4,3.5-6.5C37.4,34,37,28.5,29.5,28.2z M31.7,15c-0.4,0.7-1.2,1.3-1.7,1.8c0-1.4-0.3-2.4-0.6-3.2
				C30.7,14.1,31.7,15,31.7,15z"/>
		</g>
		<path id="barci_red_2_" class="st0" d="M31.3,20.2c0.1,0.3,0,0.6-0.2,0.7c-0.2,0.1-0.5,0-0.6-0.2l0,0c0,0,0,0,0,0c0,0,0,0,0-0.1
			c0,0,0,0,0-0.1c0-0.1-0.1-0.3-0.2-0.5c-0.1-0.3-0.2-1-0.3-1.3c0-0.1,0-0.2,0-0.2c0,0,0,0,0.1,0.1c0.3,0.3,0.8,0.8,0.9,1
			C31.2,19.9,31.2,20,31.3,20.2C31.3,20.1,31.3,20.1,31.3,20.2z M18.1,19.1c-1.2-1.2-2.9-1.9-4.5-2.2c-4.5-0.7-9.3,1.2-11.3,5.4
			c-1.7,3.5-1,8.4,1.8,11.2c1.3,1.3,2.6,2,4.2,2.4c0,0-0.2-1.1,0.1-2.3c0.3-1.3,1-2.9,2.9-3.7c2.9-1.1,4.6,0.3,5.5,1
			c0.6-0.7,1.1-1,1.8-1.3c0.5-0.3,0.9-0.4,1.3-0.5c0.6-1.3,0.8-3.7,0.6-5.1C20,22.2,19.7,20.6,18.1,19.1z M29.1,32.9
			c-2-0.2-2.8,1.6-2.8,1.6c0-0.1-0.8-1.8-2.8-1.6c-2,0.2-3.4,2.6-0.6,6.5c2.6,3.7,3.4,3.9,3.5,3.9l0,0l0,0l0,0l0,0
			c0,0,0.8-0.2,3.5-3.9C32.5,35.6,31.1,33.1,29.1,32.9z M25.4,11.4L25.4,11.4c0,0.1,0,0.2,0,0.2l0,0c0,0,0,0,0,0
			c0.6-0.1,1.3-0.1,1.8,0l0,0c1.1-0.9,1.9-2.3,2.2-3.9c0.3-1.8-0.1-3.5-1.1-4.6c-1.1-1.2-2.5-1.9-4.3-1.9c-0.1,0-0.2,0-0.2,0
			c-1.7,0-2.7,0.4-3.9,1.4c-0.5,0.4-1.6,1.5-1.8,3.3c-0.1,1,0,1.7,0.1,2.1c0,0.1,0,0.1,0.1,0.2c0.1,0.4,0.2,0.7,0.6,1.2c0,0,0,0,0,0
			c0.5-0.5,1.1-0.8,1.7-1C21,8.3,21.5,8.3,22,8.3c0.2,0,1.4,0.2,2.3,0.8C25.4,10,25.4,10.9,25.4,11.4z"/>
		<g>
			<path id="barci_white_2_" class="st1" d="M26,18.8c0.2-0.3,0.5-0.5,0.8-0.3c0.3,0.1,0.4,0.4,0.3,0.7l0,0c0,0,0,0,0,0
				c0,0,0,0,0,0.1c0,0,0,0,0,0.1c-0.1,0.1-0.2,0.3-0.3,0.5c-0.2,0.3-0.8,0.9-1.1,1.2c-0.1,0.1-0.1,0.1-0.1,0.1c0,0,0,0,0-0.2
				c0.1-0.4,0.2-1.3,0.3-1.6C25.8,19.2,25.9,19,26,18.8C25.9,18.8,25.9,18.8,26,18.8z M28.1,15.2c0,0.9-0.8,1.7-1.7,1.7
				s-1.7-0.8-1.7-1.7c0-0.9,0.8-1.7,1.7-1.7S28.1,14.2,28.1,15.2z M27.1,15.2c0-0.4-0.3-0.8-0.8-0.8c-0.4,0-0.8,0.3-0.8,0.8
				s0.3,0.8,0.8,0.8C26.8,15.9,27.1,15.6,27.1,15.2z M29.4,13.6c0.4,0.8,0.6,1.8,0.6,3.2c0.5-0.4,1.2-1.1,1.7-1.8
				C31.7,15,30.7,14.1,29.4,13.6z"/>
			<g>
				<circle class="st1" cx="14.6" cy="19.6" r="0.8"/>
				<circle class="st1" cx="17" cy="21.7" r="0.8"/>
				<circle class="st1" cx="17.8" cy="24.7" r="0.8"/>
				<circle class="st1" cx="5.9" cy="32.4" r="0.8"/>
				<circle class="st1" cx="4.1" cy="30" r="0.8"/>
				<circle class="st1" cx="3.4" cy="27" r="0.8"/>
				<circle class="st1" cx="3.8" cy="24" r="0.8"/>
				<circle class="st1" cx="5.4" cy="21.3" r="0.8"/>
				<circle class="st1" cx="8.2" cy="19.6" r="0.8"/>
				<circle class="st1" cx="11.4" cy="18.9" r="0.8"/>
				<circle class="st1" cx="17.2" cy="27.6" r="0.8"/>
			</g>
		</g>
	</g>
</g>
</svg>
