<?xml version="1.0" encoding="UTF-8"?>
<svg width="106px" height="106px" viewBox="0 0 106 106" version="1.1" xmlns="http://www.w3.org/2000/svg" xmlns:xlink="http://www.w3.org/1999/xlink">
    <!-- Generator: Sketch 42 (36781) - http://www.bohemiancoding.com/sketch -->
    <title>CoInspect-logo-icon</title>
    <desc>Created with Sketch.</desc>
    <defs></defs>
    <g id="Website" stroke="none" stroke-width="1" fill="none" fill-rule="evenodd">
        <g id="iPhone-6" transform="translate(-135.000000, -125.000000)">
            <g id="Group-9" transform="translate(76.000000, 125.000000)">
                <g id="CoInspect-logo-icon" transform="translate(59.000000, 0.000000)">
                    <ellipse id="Oval-1" fill="#169DDC" cx="52.8040831" cy="53.3217701" rx="52.5452395" ry="52.5452395"></ellipse>
                    <g id="Imported-Layers" transform="translate(4.141497, 4.141497)">
                        <path d="M14.8898824,46.6072312 L14.8898824,46.6072312 C14.8898824,27.8725936 30.051754,12.6850288 48.7555666,12.6850288 C60.8968819,12.6850288 71.5435607,19.0854279 77.521238,28.700389 C79.5720184,31.9184327 81.0962002,35.5064165 81.9695198,39.3424779 C82.5221877,41.7718963 82.8141632,44.3014162 82.8141632,46.8979606 C82.8141632,53.4019429 80.3288954,59.2879077 76.5297378,64.6428996 C72.873092,69.7976886 67.9972747,74.4571931 62.9485313,78.697142 C58.1613494,82.719479 53.2160141,86.3649124 49.0049624,89.6978552 C46.9724304,88.1092888 44.7826141,86.4484753 42.5284935,84.7119329 C39.3593426,82.2703282 36.0641903,79.6763952 32.9045981,76.9109841 C23.3102478,68.5633943 14.8898824,58.646388 14.8898824,46.6072312 M48.9085062,3.36863112 C36.6003478,3.36863112 25.0299489,8.17001852 16.3271667,16.8875484 C7.62438451,25.6042078 2.83198873,37.1950843 2.83198873,49.5232297 C2.83198873,61.851375 7.62438451,73.4413811 16.3271667,82.158911 C25.0299489,90.8764408 36.6003478,95.6778282 48.9085062,95.6778282 C61.2157957,95.6778282 72.7861946,90.8764408 81.4889767,82.158911 C90.1917589,73.4413811 94.9841547,61.851375 94.9841547,49.5232297 C94.9841547,37.1950843 90.1917589,25.6042078 81.4889767,16.8875484 C72.7861946,8.17001852 61.2157957,3.36863112 48.9085062,3.36863112" id="Fill-1" fill="#D9D9D9"></path>
                        <path d="M2.83198873,49.5232297 L2.83198873,49.5232297 C2.83198873,37.1950843 7.62438451,25.6042078 16.3271667,16.8875484 C25.0299489,8.17001852 36.6003478,3.36863112 48.9085062,3.36863112 C61.2157957,3.36863112 72.7861946,8.17001852 81.4889767,16.8875484 C90.1917589,25.6042078 94.9841547,37.1950843 94.9841547,49.5232297 C94.9841547,61.851375 90.1917589,73.4413811 81.4889767,82.158911 C72.7861946,90.8764408 61.2157957,95.6778282 48.9085062,95.6778282 C36.6003478,95.6778282 25.0299489,90.8764408 16.3271667,82.158911 C7.62438451,73.4413811 2.83198873,61.851375 2.83198873,49.5232297 M48.9085062,1.11765436 C36.0007552,1.11765436 23.8655227,6.15232164 14.7378119,15.2955003 C5.61097,24.4378084 0.583951036,36.5936052 0.583951036,49.5232297 C0.583951036,62.4528541 5.61097,74.6086509 14.7378119,83.7509591 C23.8655227,92.8941377 36.0007552,97.928805 48.9085062,97.928805 C61.8162572,97.928805 73.9514897,92.8941377 83.0783316,83.7509591 C92.2051734,74.6086509 97.2321924,62.4528541 97.2321924,49.5232297 C97.2321924,36.5936052 92.2051734,24.4378084 83.0783316,15.2955003 C73.9514897,6.15232164 61.8162572,1.11765436 48.9085062,1.11765436" id="Fill-2" fill="#D9D9D9"></path>
                        <path d="M77.521238,28.700389 C79.4738243,31.8409629 80.929357,35.3236226 81.7748694,39.0395622 C82.3292753,41.4733329 82.6203819,44.0063346 82.6203819,46.6072312 L82.6195129,46.7125553 L82.6203819,46.8013409 C82.6203819,53.2870439 80.1429348,59.1564701 76.3550739,64.495794 C72.7088558,69.6357854 67.846942,74.2822332 62.8121023,78.5099958 C58.038824,82.521017 53.1073922,86.156005 48.9085062,89.4793729 L48.8311675,89.419312 L48.7555666,89.4793729 C46.7195588,87.8873248 44.5262665,86.2247704 42.2686701,84.4847462 C39.1864166,82.1101659 35.9851136,79.5910914 32.9045981,76.9109841 C36.0641903,79.6763952 39.3593426,82.2703282 42.5284935,84.7119329 C44.7826141,86.4484753 46.9724304,88.1092888 49.0049624,89.6978552 C53.2160141,86.3649124 58.1613494,82.719479 62.9485313,78.697142 C67.9972747,74.4571931 72.873092,69.7976886 76.5297378,64.6428996 C80.3288954,59.2879077 82.8141632,53.4019429 82.8141632,46.8979606 C82.8141632,44.3014162 82.5221877,41.7718963 81.9695198,39.3424779 C81.0962002,35.5064165 79.5720184,31.9184327 77.521238,28.700389" id="Fill-3" fill="#D9D9D9"></path>
                        <path d="M48.7555666,12.6850288 C30.051754,12.6850288 14.8898824,27.8725936 14.8898824,46.6072312 C14.8898824,58.646388 23.3102478,68.5633943 32.9045981,76.9109841 C35.9851136,79.5910914 39.1864166,82.1101659 42.2686701,84.4847462 C44.5262665,86.2247704 46.7195588,87.8873248 48.7555666,89.4793729 L48.8311675,89.419312 C46.8264427,87.8533773 44.6696473,86.2178068 42.4502858,84.5073778 C29.8240826,74.7792586 15.1957616,62.6339072 15.1957616,46.8013409 C15.1957616,28.1502662 30.2889841,13.0314668 48.9085062,13.0314668 C64.9419594,13.0314668 78.3606676,24.2436987 81.7783453,39.2676194 C82.3240615,41.66222 82.6125611,44.1543106 82.6195129,46.7125553 L82.6203819,46.6072312 C82.6203819,44.0063346 82.3292753,41.4733329 81.7748694,39.0395622 C80.929357,35.3236226 79.4738243,31.8409629 77.521238,28.700389 C71.5435607,19.0854279 60.8968819,12.6850288 48.7555666,12.6850288" id="Fill-4" fill="#D9D9D9"></path>
                        <path d="M48.8998165,27.9370067 L49.0075693,27.9352658 C58.483739,27.9352658 66.1663449,35.6308905 66.1663449,45.1231185 C66.1663449,53.723138 59.861064,60.8477493 51.6283972,62.1116388 L51.6283972,73.4213608 C51.6283972,74.4275979 50.8150368,75.2423366 49.811371,75.2423366 L48.2037677,75.2423366 C47.8414052,75.2423366 47.504243,75.1344011 47.2209572,74.9516072 C46.6048541,74.6600073 46.1781875,74.0341557 46.1781875,73.3064617 L46.1781875,62.0768209 C44.9146982,61.8670431 43.6981336,61.5188642 42.5441351,61.0488226 C36.1815019,58.5480275 31.6758678,52.3417381 31.6758678,45.081337 C31.6758678,35.6117407 39.3393562,27.9352658 48.7929326,27.9352658 L48.8998165,27.9370067 M48.9085062,13.0314668 C30.2889841,13.0314668 15.1957616,28.1502662 15.1957616,46.8013409 C15.1957616,62.6339072 29.8240826,74.7792586 42.4502858,84.5073778 C44.6696473,86.2178068 46.8264427,87.8533773 48.8311675,89.419312 L48.9085062,89.4793729 C53.1073922,86.156005 58.038824,82.521017 62.8121023,78.5099958 C67.846942,74.2822332 72.7088558,69.6357854 76.3550739,64.495794 C80.1429348,59.1564701 82.6203819,53.2870439 82.6203819,46.8013409 L82.6195129,46.7125553 C82.6125611,44.1543106 82.3240615,41.66222 81.7783453,39.2676194 C78.3606676,24.2436987 64.9419594,13.0314668 48.9085062,13.0314668" id="Fill-5" fill="#D9D9D9"></path>
                        <path d="M42.5441351,61.0488226 C43.6981336,61.5188642 44.9146982,61.8670431 46.1781875,62.0768209 L46.1781875,62.0280758 C44.9155672,61.8348365 43.6998715,61.5023257 42.5441351,61.0488226" id="Fill-6" fill="#D9D9D9"></path>
                        <path d="M49.0075693,27.9352658 L48.8998165,27.9370067 C58.3038613,27.9953266 65.9099973,35.6482994 65.9099973,45.081337 C65.9099973,53.6604658 59.619489,60.7676681 51.4076776,62.0280758 L51.4076776,73.3064617 C51.4076776,74.3118284 50.5943172,75.1274375 49.5906514,75.1274375 L47.9952137,75.1274375 C47.7180108,75.1274375 47.4564494,75.0630244 47.2209572,74.9516072 C47.504243,75.1344011 47.8414052,75.2423366 48.2037677,75.2423366 L49.811371,75.2423366 C50.8150368,75.2423366 51.6283972,74.4275979 51.6283972,73.4213608 L51.6283972,62.1116388 C59.861064,60.8477493 66.1663449,53.723138 66.1663449,45.1231185 C66.1663449,35.6308905 58.483739,27.9352658 49.0075693,27.9352658" id="Fill-7" fill="#D9D9D9"></path>
                        <path d="M35.7748217,45.0169239 L35.7748217,45.0169239 C35.7748217,37.8505312 41.5743593,32.0420362 48.7277595,32.0420362 C55.8820286,32.0420362 61.6806972,37.8505312 61.6806972,45.0169239 L61.6798282,45.0491305 L61.6806972,45.081337 C61.6806972,52.211171 55.9107048,57.9918116 48.7929326,57.9918116 L48.7607805,57.9909412 L48.7277595,57.9918116 C41.5743593,57.9918116 35.7748217,52.1824462 35.7748217,45.0169239 M48.7929326,27.9352658 C39.3393562,27.9352658 31.6758678,35.6117407 31.6758678,45.081337 C31.6758678,52.3417381 36.1815019,58.5480275 42.5441351,61.0488226 C43.6998715,61.5023257 44.9155672,61.8348365 46.1781875,62.0280758 L46.1781875,73.3064617 C46.1781875,74.0341557 46.6048541,74.6600073 47.2209572,74.9516072 C47.4564494,75.0630244 47.7180108,75.1274375 47.9952137,75.1274375 L49.5906514,75.1274375 C50.5943172,75.1274375 51.4076776,74.3118284 51.4076776,73.3064617 L51.4076776,62.0280758 C59.619489,60.7676681 65.9099973,53.6604658 65.9099973,45.081337 C65.9099973,35.6482994 58.3038613,27.9953266 48.8998165,27.9370067 L48.7929326,27.9352658" id="Fill-8" fill="#D9D9D9"></path>
                        <path d="M48.7277595,32.0420362 C41.5743593,32.0420362 35.7748217,37.8505312 35.7748217,45.0169239 C35.7748217,52.1824462 41.5743593,57.9918116 48.7277595,57.9918116 L48.7607805,57.9909412 C41.6577808,57.9726618 35.904299,52.2007256 35.904299,45.081337 C35.904299,37.951503 41.6751603,32.1717329 48.7929326,32.1717329 C55.9002771,32.1717329 61.6624487,37.9340941 61.6798282,45.0491305 L61.6806972,45.0169239 C61.6806972,37.8505312 55.8820286,32.0420362 48.7277595,32.0420362" id="Fill-9" fill="#D9D9D9"></path>
                        <path d="M50.325804,39.5270127 L50.325804,39.5270127 C50.325804,37.71213 51.7952403,36.2410741 53.6070527,36.2410741 C55.4188651,36.2410741 56.8874324,37.71213 56.8874324,39.5270127 C56.8874324,41.3418953 55.4188651,42.8129513 53.6070527,42.8129513 C51.7952403,42.8129513 50.325804,41.3418953 50.325804,39.5270127 M48.7929326,32.1717329 C41.6751603,32.1717329 35.904299,37.951503 35.904299,45.081337 C35.904299,52.2007256 41.6577808,57.9726618 48.7607805,57.9909412 L48.7929326,57.9918116 C55.9107048,57.9918116 61.6806972,52.211171 61.6806972,45.081337 L61.6798282,45.0491305 C61.6624487,37.9340941 55.9002771,32.1717329 48.7929326,32.1717329" id="Fill-10" fill="#D9D9D9"></path>
                        <path d="M53.6070527,36.2410741 C51.7952403,36.2410741 50.325804,37.71213 50.325804,39.5270127 C50.325804,41.3418953 51.7952403,42.8129513 53.6070527,42.8129513 C55.4188651,42.8129513 56.8874324,41.3418953 56.8874324,39.5270127 C56.8874324,37.71213 55.4188651,36.2410741 53.6070527,36.2410741" id="Fill-11" fill="#D9D9D9"></path>
                        <path d="M81.4889767,16.0171011 C72.7861946,7.2995712 61.2157957,2.4981838 48.9085062,2.4981838 C36.6003478,2.4981838 25.0299489,7.2995712 16.3271667,16.0171011 C7.62438451,24.7337605 2.83198873,36.324637 2.83198873,48.6527824 C2.83198873,60.9809277 7.62438451,72.5709338 16.3271667,81.2884636 C25.0299489,90.0059935 36.6003478,94.8073809 48.9085062,94.8073809 C61.2157957,94.8073809 72.7861946,90.0059935 81.4889767,81.2884636 C90.1917589,72.5709338 94.9841547,60.9809277 94.9841547,48.6527824 C94.9841547,36.324637 90.1917589,24.7337605 81.4889767,16.0171011 L81.4889767,16.0171011 Z M76.5297378,63.7724523 C72.873092,68.9272413 67.9972747,73.5867458 62.9485313,77.8266947 C58.1613494,81.8490317 53.2160141,85.4944651 49.0049624,88.8282783 C46.9724304,87.2388415 44.7826141,85.578028 42.5284935,83.8414856 C39.3593426,81.3998809 36.0641903,78.8059479 32.9045981,76.0405368 C23.3102478,67.692947 14.8898824,57.7768111 14.8898824,45.7367838 C14.8898824,27.0021462 30.051754,11.8145814 48.7555666,11.8145814 C60.8968819,11.8145814 71.5435607,18.2149806 77.521238,27.8299416 C79.5720184,31.0479854 81.0962002,34.6359692 81.9695198,38.4720305 C82.5221877,40.901449 82.8141632,43.4309689 82.8141632,46.0275133 C82.8141632,52.5314956 80.3288954,58.4174604 76.5297378,63.7724523 L76.5297378,63.7724523 Z" id="Fill-12" fill="#1380B9"></path>
                        <path d="M83.0783316,14.4250529 C73.9514897,5.28187432 61.8162572,0.247207038 48.9085062,0.247207038 C36.0007552,0.247207038 23.8655227,5.28187432 14.7378119,14.4250529 C5.61097,23.5673611 0.583951036,35.7231579 0.583951036,48.6527824 C0.583951036,61.5824068 5.61097,73.7382036 14.7378119,82.8805118 C23.8655227,92.0236904 36.0007552,97.0583577 48.9085062,97.0583577 C61.8162572,97.0583577 73.9514897,92.0236904 83.0783316,82.8805118 C92.2051734,73.7382036 97.2321924,61.5824068 97.2321924,48.6527824 C97.2321924,35.7231579 92.2051734,23.5673611 83.0783316,14.4250529 L83.0783316,14.4250529 Z M48.9085062,94.8073809 C36.6003478,94.8073809 25.0299489,90.0059935 16.3271667,81.2884636 C7.62438451,72.5709338 2.83198873,60.9809277 2.83198873,48.6527824 C2.83198873,36.324637 7.62438451,24.7337605 16.3271667,16.0171011 C25.0299489,7.2995712 36.6003478,2.4981838 48.9085062,2.4981838 C61.2157957,2.4981838 72.7861946,7.2995712 81.4889767,16.0171011 C90.1917589,24.7337605 94.9841547,36.324637 94.9841547,48.6527824 C94.9841547,60.9809277 90.1917589,72.5709338 81.4889767,81.2884636 C72.7861946,90.0059935 61.2157957,94.8073809 48.9085062,94.8073809 L48.9085062,94.8073809 Z" id="Fill-13" fill="#FFFFFF"></path>
                        <path d="M81.9695198,38.4720305 C81.0962002,34.6359692 79.5720184,31.0479854 77.521238,27.8299416 C79.4738243,30.9705156 80.929357,34.4531753 81.7748694,38.1691149 C82.3292753,40.6028856 82.6203819,43.1358873 82.6203819,45.7367838 L82.6195129,45.8412375 L82.6203819,45.9308936 C82.6203819,52.4165966 80.1429348,58.2860228 76.3550739,63.6253467 C72.7088558,68.7653381 67.846942,73.4117859 62.8121023,77.6395485 C58.038824,81.6505697 53.1073922,85.2855577 48.9085062,88.6089256 L48.8311675,88.5488647 L48.7555666,88.6089256 C46.7195588,87.0168774 44.5262665,85.3543231 42.2686701,83.6142989 C39.1864166,81.2397186 35.9851136,78.7206441 32.9045981,76.0405368 C36.0641903,78.8059479 39.3593426,81.3998809 42.5284935,83.8414856 C44.7826141,85.578028 46.9724304,87.2388415 49.0049624,88.8282783 C53.2160141,85.4944651 58.1613494,81.8490317 62.9485313,77.8266947 C67.9972747,73.5867458 72.873092,68.9272413 76.5297378,63.7724523 C80.3288954,58.4174604 82.8141632,52.5314956 82.8141632,46.0275133 C82.8141632,43.4309689 82.5221877,40.901449 81.9695198,38.4720305" id="Fill-14" fill="#44A9D2"></path>
                        <path d="M48.7555666,88.6089256 L48.8311675,88.5488647 C46.8264427,86.98293 44.6696473,85.3473595 42.4502858,83.6369305 C29.8240826,73.9088113 15.1957616,61.7634599 15.1957616,45.9308936 C15.1957616,27.2798189 30.2889841,12.1610195 48.9085062,12.1610195 C64.9419594,12.1610195 78.3606676,23.3732514 81.7783453,38.3971721 C82.3240615,40.7917726 82.6125611,43.2838633 82.6195129,45.8412375 L82.6203819,45.7367838 C82.6203819,43.1358873 82.3292753,40.6028856 81.7748694,38.1691149 C80.929357,34.4531753 79.4738243,30.9705156 77.521238,27.8299416 C71.5435607,18.2149806 60.8968819,11.8145814 48.7555666,11.8145814 C30.051754,11.8145814 14.8898824,27.0021462 14.8898824,45.7367838 C14.8898824,57.7768111 23.3102478,67.692947 32.9045981,76.0405368 C35.9851136,78.7206441 39.1864166,81.2397186 42.2686701,83.6142989 C44.5262665,85.3543231 46.7195588,87.0168774 48.7555666,88.6089256" id="Fill-15" fill="#51C8F1"></path>
                        <path d="M48.9085062,12.1610195 C30.2889841,12.1610195 15.1957616,27.2798189 15.1957616,45.9308936 C15.1957616,61.7634599 29.8240826,73.9088113 42.4502858,83.6369305 C44.6696473,85.3473595 46.8264427,86.98293 48.8311675,88.5488647 L48.9085062,88.6089256 C53.1073922,85.2855577 58.038824,81.6505697 62.8121023,77.6395485 C67.846942,73.4117859 72.7088558,68.7653381 76.3550739,63.6253467 C80.1429348,58.2860228 82.6203819,52.4165966 82.6203819,45.9308936 L82.6195129,45.8412375 C82.6125611,43.2838633 82.3240615,40.7917726 81.7783453,38.3971721 C78.3606676,23.3732514 64.9419594,12.1610195 48.9085062,12.1610195 L48.9085062,12.1610195 Z M46.1781875,72.4360144 L46.1781875,61.2063736 C44.9146982,60.9965958 43.6981336,60.6484168 42.5441351,60.1783753 C36.1815019,57.6775802 31.6758678,51.4712908 31.6758678,44.2108897 C31.6758678,34.7412933 39.3393562,27.0648184 48.7929326,27.0648184 L48.8998165,27.0665593 L49.0075693,27.0648184 C58.483739,27.0648184 66.1663449,34.7604432 66.1663449,44.2526712 C66.1663449,52.8526907 59.861064,59.977302 51.6283972,61.2411915 L51.6283972,72.5509135 C51.6283972,73.5562801 50.8150368,74.3718893 49.811371,74.3718893 L48.2037677,74.3718893 C47.8414052,74.3718893 47.504243,74.2639538 47.2209572,74.0811598 C46.6048541,73.78956 46.1781875,73.1637084 46.1781875,72.4360144 L46.1781875,72.4360144 Z" id="Fill-16" fill="#47B5E7"></path>
                        <path d="M42.5441351,60.1783753 C43.6981336,60.6484168 44.9146982,60.9965958 46.1781875,61.2063736 L46.1781875,61.1576285 C44.9155672,60.9643892 43.6998715,60.6318783 42.5441351,60.1783753" id="Fill-17" fill="#D1D2D3"></path>
                        <path d="M49.811371,74.3718893 C50.8150368,74.3718893 51.6283972,73.5562801 51.6283972,72.5509135 L51.6283972,61.2411915 C59.861064,59.977302 66.1663449,52.8526907 66.1663449,44.2526712 C66.1663449,34.7604432 58.483739,27.0648184 49.0075693,27.0648184 L48.8998165,27.0665593 C58.3038613,27.1248793 65.9099973,34.7778521 65.9099973,44.2108897 C65.9099973,52.7900185 59.619489,59.8972208 51.4076776,61.1576285 L51.4076776,72.4360144 C51.4076776,73.4413811 50.5943172,74.2569902 49.5906514,74.2569902 L47.9952137,74.2569902 C47.7180108,74.2569902 47.4564494,74.1925771 47.2209572,74.0811598 C47.504243,74.2639538 47.8414052,74.3718893 48.2037677,74.3718893 L49.811371,74.3718893" id="Fill-18" fill="#D1D2D3"></path>
                        <path d="M49.5906514,74.2569902 C50.5943172,74.2569902 51.4076776,73.4413811 51.4076776,72.4360144 L51.4076776,61.1576285 C59.619489,59.8972208 65.9099973,52.7900185 65.9099973,44.2108897 C65.9099973,34.7778521 58.3038613,27.1248793 48.8998165,27.0665593 L48.7929326,27.0648184 C39.3393562,27.0648184 31.6758678,34.7412933 31.6758678,44.2108897 C31.6758678,51.4712908 36.1815019,57.6775802 42.5441351,60.1783753 C43.6998715,60.6318783 44.9155672,60.9643892 46.1781875,61.1576285 L46.1781875,72.4360144 C46.1781875,73.1637084 46.6048541,73.78956 47.2209572,74.0811598 C47.4564494,74.1925771 47.7180108,74.2569902 47.9952137,74.2569902 L49.5906514,74.2569902 L49.5906514,74.2569902 Z M61.6806972,44.1464766 L61.6798282,44.1786832 L61.6806972,44.2108897 C61.6806972,51.3407237 55.9107048,57.1213643 48.7929326,57.1213643 L48.7607805,57.1204939 L48.7277595,57.1213643 C41.5743593,57.1213643 35.7748217,51.3119989 35.7748217,44.1464766 C35.7748217,36.9800838 41.5743593,31.1715889 48.7277595,31.1715889 C55.8820286,31.1715889 61.6806972,36.9800838 61.6806972,44.1464766 L61.6806972,44.1464766 Z" id="Fill-19" fill="#FFFFFF"></path>
                        <path d="M35.7748217,44.1464766 C35.7748217,51.3119989 41.5743593,57.1213643 48.7277595,57.1213643 L48.7607805,57.1204939 C41.6577808,57.1030849 35.904299,51.3302783 35.904299,44.2108897 C35.904299,37.0810557 41.6751603,31.3012855 48.7929326,31.3012855 C55.9002771,31.3012855 61.6624487,37.0636468 61.6798282,44.1786832 L61.6806972,44.1464766 C61.6806972,36.9800838 55.8820286,31.1715889 48.7277595,31.1715889 C41.5743593,31.1715889 35.7748217,36.9800838 35.7748217,44.1464766" id="Fill-20" fill="#76B6D5"></path>
                        <path d="M48.7929326,31.3012855 C41.6751603,31.3012855 35.904299,37.0810557 35.904299,44.2108897 C35.904299,51.3302783 41.6577808,57.1030849 48.7607805,57.1204939 L48.7929326,57.1213643 C55.9107048,57.1213643 61.6806972,51.3407237 61.6806972,44.2108897 L61.6798282,44.1786832 C61.6624487,37.0636468 55.9002771,31.3012855 48.7929326,31.3012855 L48.7929326,31.3012855 Z M53.6070527,35.3706267 C55.4179961,35.3706267 56.8874324,36.8416827 56.8874324,38.6565654 C56.8874324,40.471448 55.4179961,41.942504 53.6070527,41.942504 C51.7952403,41.942504 50.325804,40.471448 50.325804,38.6565654 C50.325804,36.8416827 51.7952403,35.3706267 53.6070527,35.3706267 L53.6070527,35.3706267 Z" id="Fill-21" fill="#86D2F6"></path>
                        <path d="M53.6070527,41.942504 C55.4179961,41.942504 56.8874324,40.471448 56.8874324,38.6565654 C56.8874324,36.8416827 55.4179961,35.3706267 53.6070527,35.3706267 C51.7952403,35.3706267 50.325804,36.8416827 50.325804,38.6565654 C50.325804,40.471448 51.7952403,41.942504 53.6070527,41.942504" id="Fill-22" fill="#FFFFFF"></path>
                    </g>
                </g>
            </g>
        </g>
    </g>
</svg>