<svg id="svg" version="1.1" xmlns="http://www.w3.org/2000/svg" xmlns:xlink="http://www.w3.org/1999/xlink" width="400" height="97.33333333333333" viewBox="0, 0, 400,97.33333333333333"><g id="svgg"><path id="path0" d="M38.637 0.359 C 38.569 0.812,37.764 1.109,35.795 1.409 C 34.684 1.579,34.155 1.754,33.558 2.149 C 33.128 2.434,32.583 2.667,32.346 2.668 C 31.681 2.669,30.674 2.991,30.015 3.414 C 29.686 3.625,29.004 3.928,28.500 4.086 C 27.996 4.245,27.425 4.519,27.232 4.695 C 27.038 4.870,26.494 5.161,26.022 5.340 C 25.551 5.519,24.854 5.891,24.474 6.166 C 24.094 6.442,23.690 6.667,23.576 6.667 C 23.462 6.667,23.192 6.858,22.976 7.091 C 22.760 7.325,22.224 7.703,21.785 7.931 C 20.467 8.615,18.676 10.009,17.445 11.307 C 17.154 11.614,16.702 11.976,16.440 12.112 C 15.892 12.398,12.000 16.230,12.000 16.484 C 12.000 16.578,11.701 16.975,11.335 17.369 C 9.394 19.455,8.437 20.633,8.030 21.436 C 7.839 21.813,7.492 22.349,7.258 22.627 C 7.024 22.904,6.833 23.201,6.833 23.286 C 6.833 23.372,6.571 23.811,6.250 24.262 C 5.929 24.714,5.551 25.429,5.411 25.851 C 5.271 26.273,4.976 26.787,4.757 26.993 C 4.538 27.199,4.271 27.733,4.164 28.179 C 4.057 28.624,3.757 29.310,3.498 29.703 C 3.239 30.095,2.872 31.041,2.683 31.804 C 2.494 32.567,2.187 33.405,2.001 33.666 C 1.786 33.967,1.576 34.710,1.426 35.695 C 1.136 37.607,0.788 38.500,0.331 38.500 C 0.004 38.500,0.000 38.634,0.000 48.750 C 0.000 58.844,0.005 59.000,0.329 59.000 C 0.816 59.000,1.154 59.805,1.426 61.614 C 1.562 62.525,1.804 63.432,1.989 63.732 C 2.167 64.021,2.476 64.856,2.674 65.587 C 2.873 66.318,3.254 67.251,3.521 67.659 C 3.788 68.067,4.053 68.691,4.110 69.046 C 4.170 69.418,4.447 69.971,4.767 70.354 C 5.072 70.719,5.370 71.276,5.429 71.592 C 5.489 71.908,5.791 72.485,6.100 72.875 C 6.410 73.265,6.664 73.661,6.665 73.755 C 6.670 74.238,8.822 77.262,10.022 78.473 C 10.356 78.808,10.724 79.271,10.841 79.500 C 11.562 80.910,17.164 86.500,17.856 86.500 C 17.951 86.500,18.359 86.819,18.761 87.208 C 19.939 88.349,20.694 88.929,21.594 89.382 C 22.058 89.616,22.539 89.930,22.664 90.080 C 22.788 90.230,23.147 90.460,23.460 90.591 C 23.773 90.722,24.252 91.015,24.522 91.243 C 24.793 91.471,25.308 91.737,25.667 91.833 C 26.025 91.930,26.547 92.201,26.827 92.437 C 27.106 92.672,27.782 93.000,28.328 93.165 C 28.874 93.330,29.521 93.623,29.766 93.816 C 30.234 94.184,31.642 94.667,32.248 94.667 C 32.442 94.667,32.955 94.891,33.388 95.165 C 34.000 95.554,34.480 95.699,35.559 95.821 C 37.139 96.001,38.167 96.412,38.167 96.864 C 38.167 97.153,38.641 97.167,48.833 97.167 C 59.347 97.167,59.500 97.162,59.500 96.837 C 59.500 96.304,60.170 96.014,61.795 95.846 C 62.913 95.730,63.512 95.577,64.035 95.273 C 64.428 95.045,65.237 94.736,65.833 94.587 C 66.429 94.438,67.104 94.181,67.333 94.017 C 67.978 93.555,68.696 93.225,69.311 93.107 C 69.620 93.049,70.121 92.782,70.425 92.515 C 70.728 92.249,71.382 91.913,71.876 91.769 C 72.370 91.625,72.914 91.353,73.085 91.164 C 73.256 90.976,73.701 90.684,74.073 90.517 C 74.863 90.162,76.340 89.218,77.151 88.551 C 77.464 88.294,77.964 87.933,78.263 87.750 C 80.502 86.378,85.171 81.940,88.964 77.579 C 89.998 76.390,91.018 75.227,91.230 74.995 C 91.442 74.762,91.712 74.394,91.829 74.175 C 91.946 73.956,92.876 72.928,93.896 71.890 C 95.541 70.215,96.575 69.130,99.424 66.083 C 99.853 65.625,100.549 64.837,100.971 64.333 C 101.393 63.829,102.307 62.779,103.003 62.000 C 104.373 60.465,105.000 59.634,105.000 59.354 C 105.000 58.902,97.321 52.000,96.818 52.000 C 96.736 52.000,96.047 51.381,95.287 50.625 C 94.528 49.869,93.433 48.824,92.854 48.304 L 91.800 47.357 92.083 46.879 C 92.415 46.317,102.546 36.182,103.190 35.768 C 103.487 35.578,103.694 35.234,103.824 34.717 L 104.018 33.948 102.956 32.933 C 102.372 32.374,100.964 31.054,99.828 30.000 C 98.691 28.946,97.490 27.821,97.159 27.500 C 96.517 26.878,95.364 25.869,92.928 23.799 C 90.021 21.328,89.097 20.501,87.189 18.667 C 82.161 13.831,79.143 11.171,78.047 10.606 C 77.751 10.454,77.435 10.189,77.343 10.017 C 77.251 9.845,76.892 9.538,76.546 9.335 C 76.200 9.132,75.856 8.860,75.782 8.731 C 75.708 8.602,75.258 8.300,74.782 8.059 C 74.306 7.819,73.670 7.408,73.369 7.145 C 73.068 6.882,72.714 6.667,72.583 6.667 C 72.452 6.667,72.099 6.453,71.797 6.191 C 71.496 5.929,70.872 5.591,70.410 5.439 C 69.949 5.287,69.325 4.939,69.025 4.665 C 68.725 4.391,68.390 4.166,68.281 4.166 C 67.775 4.163,66.799 3.783,66.367 3.419 C 66.104 3.198,65.373 2.892,64.737 2.737 C 64.102 2.582,63.208 2.248,62.750 1.995 C 62.183 1.682,61.472 1.477,60.526 1.352 C 58.875 1.135,58.269 0.881,58.197 0.373 L 58.143 0.000 48.417 0.000 L 38.690 0.000 38.637 0.359 M52.542 9.404 C 53.340 9.445,54.486 9.649,55.273 9.890 C 56.019 10.118,57.354 10.396,58.239 10.507 C 59.418 10.656,60.153 10.855,60.982 11.253 C 61.605 11.551,62.445 11.850,62.849 11.917 C 63.666 12.052,64.089 12.235,64.583 12.665 C 64.767 12.824,65.283 13.077,65.731 13.225 C 66.179 13.374,66.797 13.687,67.104 13.921 C 67.410 14.155,67.981 14.458,68.372 14.595 C 68.763 14.732,69.271 15.034,69.500 15.265 C 70.015 15.786,71.370 16.721,72.218 17.141 C 72.568 17.314,73.130 17.727,73.468 18.058 C 77.015 21.535,79.760 23.967,82.472 26.033 C 83.336 26.692,84.427 27.673,86.050 29.250 C 86.710 29.892,87.914 31.017,88.725 31.750 C 91.105 33.901,91.201 33.447,87.593 37.075 C 83.955 40.734,83.828 40.792,82.373 39.425 C 81.311 38.428,78.743 36.239,77.670 35.417 C 76.690 34.666,75.695 33.774,73.985 32.115 C 73.342 31.491,72.014 30.251,71.033 29.359 C 70.052 28.467,69.025 27.526,68.750 27.269 C 67.969 26.536,66.322 25.333,66.101 25.333 C 65.991 25.333,65.608 25.033,65.250 24.667 C 64.892 24.300,64.517 24.000,64.416 24.000 C 64.315 24.000,63.926 23.775,63.551 23.499 C 63.177 23.224,62.543 22.883,62.143 22.742 C 61.744 22.601,61.135 22.292,60.791 22.053 C 60.447 21.815,59.622 21.489,58.958 21.329 C 58.293 21.168,57.375 20.842,56.917 20.603 C 56.232 20.246,55.771 20.151,54.333 20.069 C 53.371 20.015,52.043 19.864,51.382 19.735 C 49.985 19.462,47.670 19.427,46.835 19.666 C 46.516 19.758,45.241 19.912,44.002 20.009 C 41.983 20.168,41.629 20.244,40.583 20.748 C 39.942 21.056,39.079 21.359,38.667 21.420 C 38.254 21.481,37.654 21.707,37.333 21.922 C 37.012 22.137,36.314 22.475,35.780 22.673 C 35.247 22.871,34.772 23.132,34.726 23.253 C 34.679 23.374,34.218 23.674,33.700 23.919 C 32.427 24.521,31.096 25.630,28.363 28.363 C 25.594 31.132,24.286 32.707,23.993 33.625 C 23.883 33.969,23.587 34.475,23.334 34.750 C 23.081 35.025,22.750 35.632,22.599 36.099 C 22.447 36.566,22.148 37.187,21.933 37.478 C 21.716 37.772,21.493 38.376,21.432 38.833 C 21.372 39.287,21.097 40.162,20.821 40.778 C 19.632 43.428,19.624 53.889,20.809 56.503 C 21.080 57.100,21.354 57.962,21.418 58.419 C 21.482 58.876,21.701 59.512,21.906 59.833 C 22.111 60.154,22.414 60.792,22.581 61.250 C 22.747 61.708,23.082 62.346,23.326 62.667 C 23.569 62.987,23.871 63.512,23.997 63.833 C 24.213 64.385,24.722 65.051,26.094 66.583 C 26.423 66.950,27.042 67.669,27.471 68.181 C 27.899 68.693,28.662 69.459,29.167 69.883 C 29.671 70.308,30.383 70.924,30.750 71.252 C 32.090 72.453,32.766 72.964,33.500 73.330 C 33.912 73.536,34.400 73.840,34.583 74.006 C 34.767 74.172,35.314 74.464,35.799 74.655 C 36.284 74.845,36.885 75.151,37.133 75.335 C 37.382 75.519,38.055 75.752,38.630 75.853 C 39.205 75.954,39.932 76.212,40.247 76.425 C 41.012 76.945,41.868 77.165,43.127 77.166 C 43.701 77.166,44.863 77.329,45.710 77.527 C 47.641 77.979,50.323 78.021,51.667 77.622 C 52.171 77.472,53.483 77.276,54.583 77.186 C 56.206 77.054,56.725 76.945,57.333 76.607 C 57.746 76.379,58.571 76.069,59.167 75.919 C 59.762 75.770,60.552 75.434,60.921 75.173 C 61.290 74.913,61.905 74.615,62.288 74.512 C 62.671 74.409,63.195 74.149,63.451 73.935 C 63.707 73.721,64.226 73.388,64.604 73.197 C 64.983 73.005,65.335 72.735,65.388 72.598 C 65.441 72.461,65.806 72.185,66.200 71.986 C 67.292 71.434,68.756 70.055,76.935 61.875 C 81.083 57.727,84.559 54.333,84.661 54.333 C 84.958 54.333,86.085 54.951,86.332 55.249 C 86.457 55.399,86.781 55.637,87.053 55.777 C 87.324 55.918,88.127 56.607,88.837 57.308 C 89.546 58.009,90.315 58.712,90.545 58.869 C 91.347 59.417,91.268 60.423,90.345 61.417 C 89.459 62.370,88.367 63.716,87.967 64.349 C 87.816 64.587,87.481 65.017,87.222 65.305 C 86.476 66.132,84.121 68.639,82.882 69.925 C 82.259 70.571,80.700 72.248,79.417 73.652 C 78.133 75.056,76.108 77.055,74.917 78.094 C 73.725 79.133,72.486 80.251,72.162 80.578 C 71.839 80.905,71.298 81.249,70.959 81.343 C 70.621 81.436,70.135 81.687,69.880 81.901 C 69.625 82.114,69.028 82.485,68.553 82.724 C 68.079 82.964,67.646 83.232,67.592 83.319 C 67.538 83.407,67.064 83.638,66.538 83.833 C 66.013 84.028,65.321 84.367,65.000 84.587 C 64.679 84.807,63.929 85.110,63.333 85.261 C 62.737 85.412,61.800 85.751,61.250 86.014 C 60.563 86.342,59.691 86.569,58.466 86.741 C 57.485 86.878,55.985 87.198,55.133 87.453 C 53.593 87.914,53.553 87.917,48.750 87.917 L 43.917 87.917 42.000 87.388 C 40.946 87.097,39.446 86.779,38.667 86.680 C 37.718 86.560,36.920 86.339,36.250 86.010 C 35.700 85.740,34.773 85.401,34.191 85.258 C 33.609 85.115,32.913 84.842,32.646 84.652 C 32.379 84.462,31.700 84.126,31.137 83.905 C 30.575 83.685,29.992 83.394,29.843 83.258 C 29.693 83.123,29.232 82.863,28.817 82.679 C 28.402 82.496,27.917 82.182,27.740 81.982 C 27.562 81.782,27.079 81.469,26.667 81.286 C 25.541 80.787,24.030 79.497,20.849 76.321 C 18.079 73.554,17.167 72.568,17.167 72.343 C 17.167 72.100,15.767 70.003,15.270 69.500 C 15.043 69.271,14.713 68.698,14.536 68.228 C 14.359 67.758,14.022 67.120,13.789 66.811 C 13.555 66.503,13.275 65.912,13.167 65.500 C 13.059 65.087,12.836 64.600,12.673 64.417 C 12.234 63.925,12.053 63.504,11.920 62.667 C 11.855 62.254,11.553 61.354,11.250 60.667 C 10.879 59.826,10.635 58.925,10.506 57.917 C 10.401 57.092,10.094 55.580,9.824 54.557 C 9.077 51.726,9.078 45.602,9.825 42.777 C 10.096 41.754,10.406 40.204,10.515 39.333 C 10.655 38.219,10.855 37.467,11.191 36.794 C 11.454 36.268,11.748 35.443,11.845 34.961 C 12.078 33.798,12.299 33.249,12.669 32.915 C 12.836 32.763,13.064 32.262,13.174 31.801 C 13.285 31.341,13.580 30.728,13.830 30.440 C 14.080 30.152,14.414 29.524,14.572 29.044 C 14.730 28.564,15.024 28.039,15.226 27.877 C 15.657 27.532,17.074 25.419,17.242 24.871 C 17.392 24.381,24.168 17.591,24.889 17.208 C 25.866 16.689,27.010 15.930,27.748 15.314 C 28.145 14.982,28.683 14.657,28.943 14.592 C 29.204 14.527,29.665 14.285,29.969 14.054 C 30.273 13.823,30.948 13.465,31.469 13.260 C 31.990 13.054,32.695 12.696,33.036 12.463 C 33.376 12.230,34.000 11.988,34.422 11.925 C 34.844 11.861,35.705 11.562,36.336 11.260 C 37.181 10.855,37.909 10.656,39.094 10.507 C 39.980 10.396,41.315 10.114,42.060 9.880 C 43.918 9.300,47.415 9.141,52.542 9.404 M391.000 19.876 C 390.283 20.471,390.274 20.609,390.903 21.433 C 391.375 22.050,391.504 22.376,391.520 22.982 C 391.552 24.228,391.717 24.718,392.193 24.986 C 392.911 25.389,393.114 25.063,393.251 23.286 C 393.483 20.271,394.833 20.429,394.833 23.471 C 394.833 25.338,395.211 25.523,397.203 24.633 L 397.990 24.281 398.629 24.724 C 399.938 25.631,400.000 25.534,400.000 22.565 L 400.000 19.963 399.375 20.077 C 399.031 20.140,398.589 20.295,398.391 20.422 C 398.123 20.595,397.893 20.612,397.475 20.490 C 395.693 19.969,391.380 19.560,391.000 19.876 M151.000 20.164 C 150.108 20.237,149.275 20.417,148.750 20.652 C 148.292 20.857,147.245 21.170,146.424 21.347 C 145.515 21.543,144.692 21.835,144.317 22.095 C 143.979 22.329,143.309 22.625,142.828 22.751 C 142.347 22.878,141.756 23.172,141.514 23.403 C 141.272 23.635,140.814 23.911,140.495 24.016 C 140.177 24.122,139.654 24.411,139.333 24.660 C 139.012 24.909,138.563 25.210,138.333 25.329 C 138.104 25.448,137.687 25.779,137.405 26.064 C 137.124 26.350,136.312 27.108,135.602 27.750 C 132.969 30.127,130.180 33.541,129.365 35.383 C 129.171 35.823,128.863 36.372,128.681 36.603 C 128.499 36.834,128.227 37.446,128.077 37.961 C 127.928 38.477,127.593 39.319,127.333 39.833 C 126.983 40.527,126.831 41.129,126.742 42.175 C 126.676 42.950,126.479 43.950,126.304 44.398 C 125.577 46.263,125.552 50.928,126.258 53.250 C 126.397 53.708,126.623 54.827,126.760 55.736 C 126.897 56.646,127.117 57.583,127.248 57.820 C 127.864 58.925,128.160 59.614,128.163 59.953 C 128.165 60.156,128.399 60.586,128.682 60.909 C 128.966 61.232,129.297 61.826,129.419 62.229 C 129.656 63.018,130.473 64.232,131.395 65.167 C 131.711 65.487,132.021 65.925,132.084 66.138 C 132.232 66.644,135.542 69.989,136.466 70.567 C 136.860 70.813,137.223 71.120,137.273 71.250 C 137.323 71.380,137.676 71.669,138.057 71.892 C 138.438 72.116,138.896 72.459,139.073 72.655 C 139.251 72.852,139.737 73.163,140.154 73.348 C 140.571 73.532,141.067 73.828,141.256 74.006 C 141.445 74.183,142.022 74.474,142.540 74.652 C 143.057 74.830,143.692 75.132,143.951 75.323 C 144.210 75.515,144.847 75.741,145.368 75.825 C 145.888 75.910,146.862 76.221,147.532 76.516 C 150.007 77.606,161.289 77.598,163.374 76.505 C 163.926 76.216,164.762 75.935,165.231 75.881 C 166.105 75.781,167.096 75.339,170.833 73.388 C 171.246 73.173,171.733 72.814,171.917 72.590 C 172.100 72.367,172.542 72.062,172.900 71.913 C 173.742 71.561,175.390 70.229,177.167 68.463 C 178.979 66.660,179.482 66.017,180.959 63.610 C 181.119 63.349,181.473 62.787,181.745 62.360 C 182.212 61.628,182.926 59.997,183.110 59.243 C 183.157 59.046,183.052 58.729,182.861 58.493 L 182.530 58.084 179.149 58.142 C 175.441 58.205,175.080 58.274,174.784 58.969 C 174.188 60.371,168.242 66.260,166.981 66.698 C 166.671 66.805,166.132 67.100,165.783 67.351 C 165.435 67.603,164.761 67.893,164.286 67.995 C 163.811 68.097,163.178 68.324,162.880 68.499 C 160.593 69.849,151.073 69.914,148.338 68.599 C 147.653 68.270,146.927 68.000,146.724 68.000 C 146.171 68.000,145.468 67.694,145.000 67.250 C 144.771 67.033,144.246 66.709,143.833 66.531 C 143.421 66.353,142.902 66.010,142.679 65.770 C 142.457 65.530,142.188 65.333,142.082 65.333 C 141.975 65.333,141.624 65.052,141.301 64.708 C 140.977 64.365,140.534 63.927,140.315 63.736 C 139.042 62.624,137.346 60.656,137.198 60.118 C 137.107 59.790,136.809 59.235,136.535 58.886 C 136.261 58.536,135.945 57.950,135.834 57.583 C 135.722 57.217,135.436 56.628,135.199 56.276 C 134.844 55.751,134.701 55.180,134.401 53.109 C 133.778 48.806,133.779 48.832,134.240 45.620 C 134.475 43.990,134.667 42.482,134.667 42.270 C 134.667 42.057,134.890 41.575,135.162 41.199 C 135.435 40.823,135.744 40.173,135.849 39.755 C 135.955 39.338,136.222 38.828,136.445 38.623 C 136.667 38.418,137.004 37.950,137.194 37.583 C 138.090 35.850,141.276 32.404,142.426 31.923 C 142.785 31.773,143.230 31.513,143.414 31.344 C 143.599 31.176,144.064 30.880,144.449 30.687 C 144.833 30.494,145.413 30.156,145.738 29.935 C 146.063 29.715,146.724 29.443,147.206 29.331 C 147.689 29.219,148.574 28.915,149.174 28.656 C 151.743 27.546,159.077 27.491,161.419 28.563 C 162.191 28.916,162.816 29.086,164.622 29.433 C 164.827 29.473,165.245 29.726,165.553 29.995 C 165.860 30.265,166.431 30.558,166.823 30.646 C 167.299 30.753,167.715 31.003,168.081 31.403 C 168.382 31.731,168.707 32.000,168.802 32.000 C 169.100 32.000,173.144 36.136,173.489 36.794 C 173.669 37.136,174.186 37.829,174.638 38.333 L 175.460 39.250 178.522 39.268 C 180.206 39.278,181.658 39.306,181.750 39.329 C 183.121 39.686,183.291 37.564,182.040 35.706 C 181.833 35.399,181.505 34.836,181.311 34.456 C 181.117 34.076,180.791 33.633,180.585 33.472 C 180.380 33.310,180.114 32.932,179.994 32.631 C 179.264 30.797,175.700 27.221,172.931 25.544 C 172.664 25.382,172.176 25.019,171.847 24.737 C 171.519 24.454,170.918 24.093,170.511 23.934 C 170.105 23.775,169.558 23.464,169.295 23.244 C 169.033 23.023,168.503 22.759,168.117 22.657 C 167.732 22.556,167.081 22.278,166.670 22.040 C 166.260 21.802,165.267 21.473,164.464 21.309 C 163.661 21.144,162.700 20.854,162.327 20.663 C 161.172 20.074,155.299 19.815,151.000 20.164 M220.953 20.175 C 220.304 20.251,219.563 20.460,219.213 20.667 C 218.877 20.865,217.940 21.168,217.131 21.341 C 216.206 21.539,215.459 21.807,215.121 22.063 C 214.825 22.287,214.158 22.593,213.639 22.743 C 213.120 22.893,212.595 23.136,212.472 23.283 C 212.350 23.431,211.800 23.767,211.250 24.031 C 209.945 24.657,208.634 25.498,208.024 26.101 C 207.756 26.366,207.153 26.921,206.683 27.333 C 205.419 28.443,202.833 31.053,202.833 31.219 C 202.833 31.298,202.515 31.686,202.125 32.080 C 201.301 32.915,200.286 34.487,200.012 35.355 C 199.907 35.688,199.672 36.094,199.490 36.259 C 199.308 36.424,199.038 36.977,198.891 37.488 C 198.744 37.999,198.405 38.853,198.137 39.386 C 197.811 40.036,197.596 40.804,197.483 41.719 C 197.391 42.469,197.234 43.421,197.135 43.833 C 196.657 45.825,196.512 46.884,196.506 48.417 C 196.501 50.014,196.799 52.287,197.130 53.167 C 197.216 53.396,197.339 54.182,197.404 54.913 C 197.487 55.865,197.677 56.600,198.071 57.497 C 198.373 58.186,198.743 59.171,198.892 59.687 C 199.041 60.202,199.288 60.727,199.441 60.853 C 199.593 60.980,199.932 61.533,200.193 62.083 C 201.208 64.221,201.622 64.735,205.167 68.265 C 208.411 71.496,210.113 72.863,211.404 73.272 C 211.590 73.331,212.109 73.632,212.556 73.940 C 213.004 74.248,213.506 74.500,213.672 74.500 C 213.837 74.500,214.479 74.769,215.098 75.097 C 215.757 75.447,216.644 75.759,217.237 75.850 C 217.794 75.936,218.775 76.249,219.417 76.545 L 220.583 77.083 226.667 77.083 L 232.750 77.083 233.870 76.553 C 234.487 76.261,235.349 75.973,235.787 75.914 C 236.892 75.765,237.679 75.507,238.151 75.139 C 238.372 74.968,238.970 74.706,239.481 74.557 C 239.992 74.409,240.674 74.081,240.997 73.829 C 241.319 73.576,241.859 73.283,242.195 73.176 C 242.531 73.070,242.894 72.878,243.001 72.749 C 243.108 72.620,243.545 72.312,243.972 72.065 C 244.400 71.817,244.975 71.407,245.250 71.153 C 245.873 70.579,250.484 65.955,251.213 65.174 C 251.792 64.553,253.333 62.043,253.333 61.722 C 253.333 61.614,253.524 61.299,253.757 61.023 C 253.989 60.746,254.354 60.009,254.566 59.385 C 254.778 58.761,255.142 57.875,255.375 57.416 C 255.663 56.846,255.835 56.161,255.917 55.250 C 255.983 54.516,256.181 53.504,256.357 53.000 C 257.100 50.870,257.140 46.196,256.433 44.207 C 256.294 43.816,256.068 42.741,255.930 41.816 C 255.762 40.685,255.547 39.908,255.273 39.440 C 255.049 39.058,254.738 38.297,254.581 37.748 C 254.425 37.199,254.120 36.561,253.905 36.331 C 253.689 36.101,253.403 35.600,253.269 35.220 C 252.974 34.385,252.078 32.993,251.249 32.083 C 250.915 31.717,250.201 30.892,249.661 30.250 C 249.122 29.608,248.413 28.858,248.085 28.583 C 247.758 28.308,247.159 27.783,246.755 27.417 C 244.297 25.191,243.903 24.901,242.247 24.105 C 241.603 23.796,240.975 23.420,240.850 23.270 C 240.725 23.120,240.202 22.876,239.687 22.729 C 239.171 22.582,238.508 22.280,238.212 22.059 C 237.879 21.809,237.113 21.536,236.202 21.341 C 235.393 21.168,234.462 20.868,234.135 20.675 C 233.080 20.053,224.726 19.736,220.953 20.175 M373.457 20.665 C 372.855 21.138,372.410 21.930,372.173 22.948 C 372.062 23.424,371.762 24.144,371.505 24.549 C 371.248 24.954,370.984 25.465,370.919 25.684 C 370.806 26.066,370.045 27.707,368.648 30.583 C 368.291 31.317,368.000 32.074,368.000 32.267 C 368.000 32.460,367.814 32.872,367.587 33.184 C 367.048 33.923,366.881 34.272,366.672 35.103 C 366.577 35.480,366.284 36.059,366.022 36.389 C 365.759 36.720,365.498 37.281,365.441 37.636 C 365.384 37.991,365.115 38.562,364.844 38.904 C 364.572 39.246,364.235 39.920,364.094 40.403 C 363.954 40.886,363.686 41.475,363.499 41.713 C 363.312 41.951,363.049 42.469,362.914 42.864 C 362.680 43.547,362.248 44.475,360.560 47.917 C 360.155 48.742,359.826 49.517,359.829 49.639 C 359.831 49.762,359.613 50.174,359.344 50.556 C 359.061 50.957,358.807 51.580,358.743 52.032 C 358.667 52.567,358.460 53.015,358.087 53.450 C 357.750 53.844,357.497 54.360,357.421 54.807 C 357.351 55.220,357.103 55.752,356.839 56.055 C 356.585 56.346,356.257 57.003,356.108 57.515 C 355.960 58.028,355.686 58.642,355.499 58.880 C 355.312 59.117,355.051 59.635,354.918 60.031 C 354.784 60.426,354.416 61.275,354.100 61.917 C 352.960 64.225,352.024 66.258,351.912 66.667 C 351.849 66.896,351.586 67.421,351.327 67.833 C 351.068 68.246,350.767 68.941,350.658 69.378 C 350.548 69.815,350.252 70.433,349.999 70.752 C 349.733 71.086,349.491 71.647,349.426 72.078 C 349.352 72.570,349.122 73.055,348.750 73.500 C 348.206 74.151,348.152 74.327,347.953 76.117 C 347.860 76.950,348.289 77.041,351.964 76.974 C 354.372 76.930,355.183 76.861,355.400 76.681 C 355.940 76.232,357.057 74.093,357.260 73.117 C 357.389 72.499,357.621 71.975,357.889 71.694 C 358.126 71.447,358.396 70.883,358.499 70.421 C 358.601 69.965,358.908 69.202,359.181 68.725 C 359.454 68.247,359.795 67.458,359.938 66.970 C 360.081 66.482,360.408 65.708,360.665 65.250 C 360.922 64.792,361.182 64.117,361.243 63.750 C 361.518 62.092,360.981 62.160,373.842 62.152 C 386.947 62.144,386.155 62.026,386.660 64.068 C 386.776 64.535,387.121 65.374,387.428 65.932 C 387.736 66.490,388.068 67.309,388.167 67.751 C 388.266 68.193,388.559 68.797,388.818 69.092 C 389.123 69.439,389.332 69.910,389.409 70.426 C 389.475 70.864,389.777 71.716,390.080 72.320 C 390.384 72.923,390.753 73.829,390.902 74.333 C 391.088 74.965,391.410 75.509,391.942 76.083 L 392.712 76.917 396.356 76.972 L 400.000 77.028 400.000 75.431 C 400.000 73.964,399.974 73.833,399.679 73.833 C 399.226 73.833,398.733 73.138,398.502 72.173 C 398.393 71.720,398.186 71.252,398.042 71.133 C 397.707 70.856,397.175 69.691,397.170 69.224 C 397.168 69.027,396.908 68.556,396.593 68.178 C 396.212 67.722,395.981 67.240,395.907 66.745 C 395.842 66.311,395.600 65.752,395.330 65.413 C 395.074 65.091,394.775 64.453,394.666 63.995 C 394.556 63.537,394.291 62.905,394.077 62.590 C 393.863 62.275,393.494 61.478,393.256 60.820 C 393.019 60.161,392.687 59.426,392.519 59.186 C 392.351 58.946,392.050 58.308,391.850 57.768 C 391.651 57.228,391.339 56.597,391.157 56.367 C 390.976 56.136,390.714 55.559,390.576 55.084 C 390.438 54.609,390.136 53.965,389.905 53.652 C 389.675 53.339,389.366 52.671,389.221 52.167 C 389.075 51.663,388.748 51.012,388.495 50.722 C 388.229 50.417,387.983 49.888,387.913 49.472 C 387.836 49.009,387.597 48.533,387.247 48.144 C 386.891 47.748,386.662 47.287,386.586 46.811 C 386.522 46.411,386.282 45.793,386.052 45.438 C 385.822 45.082,385.491 44.376,385.316 43.868 C 385.142 43.359,384.822 42.637,384.605 42.263 C 384.389 41.889,384.053 41.152,383.859 40.625 C 383.664 40.098,383.322 39.385,383.098 39.042 C 382.874 38.698,382.613 38.115,382.516 37.746 C 382.420 37.377,382.148 36.814,381.913 36.496 C 381.678 36.177,381.366 35.504,381.221 35.000 C 381.075 34.496,380.746 33.843,380.489 33.549 C 380.197 33.214,379.980 32.728,379.908 32.249 C 379.832 31.743,379.607 31.261,379.245 30.827 C 378.906 30.422,378.653 29.899,378.583 29.461 C 378.520 29.070,378.291 28.486,378.073 28.164 C 377.854 27.842,377.533 27.164,377.359 26.657 C 377.184 26.150,376.815 25.326,376.537 24.826 C 376.260 24.326,375.915 23.504,375.770 23.000 C 375.523 22.138,374.467 20.512,374.070 20.383 C 373.971 20.351,373.695 20.478,373.457 20.665 M274.333 20.642 C 273.269 20.942,273.333 19.131,273.337 48.667 C 273.341 79.031,273.240 76.813,274.617 76.851 C 276.905 76.913,279.821 76.875,280.205 76.777 C 281.172 76.532,281.167 76.591,281.167 66.116 L 281.167 56.549 281.542 56.008 L 281.917 55.467 288.254 55.489 L 294.591 55.511 295.913 55.079 C 296.640 54.842,297.726 54.605,298.326 54.553 C 299.101 54.486,299.731 54.298,300.500 53.904 C 301.096 53.598,301.921 53.193,302.333 53.002 C 303.539 52.446,304.636 51.763,305.213 51.209 C 308.900 47.674,310.257 46.004,310.600 44.583 C 310.666 44.308,310.948 43.558,311.226 42.917 C 311.789 41.620,312.066 36.727,311.694 34.667 C 311.024 30.957,307.390 25.892,303.893 23.795 C 301.538 22.382,299.558 21.535,298.167 21.346 C 297.479 21.252,296.504 21.049,296.000 20.894 C 295.031 20.596,275.311 20.367,274.333 20.642 M327.140 20.708 C 326.279 21.404,326.333 19.536,326.333 48.626 C 326.333 77.463,326.302 76.371,327.142 76.820 C 327.666 77.100,332.546 77.055,333.244 76.763 C 334.417 76.273,334.333 78.439,334.333 48.664 C 334.333 31.310,334.275 21.703,334.169 21.504 C 333.668 20.568,328.093 19.937,327.140 20.708 M230.783 27.842 C 232.679 27.997,233.051 28.081,234.120 28.594 C 234.782 28.912,235.671 29.219,236.097 29.278 C 236.660 29.355,237.070 29.555,237.595 30.011 C 237.994 30.355,238.540 30.686,238.809 30.745 C 239.078 30.804,239.433 31.000,239.597 31.181 C 239.761 31.363,240.162 31.675,240.489 31.875 C 241.577 32.542,245.262 36.439,245.474 37.147 C 245.580 37.499,245.891 38.070,246.166 38.416 C 246.441 38.762,246.741 39.316,246.833 39.647 C 246.925 39.979,247.218 40.569,247.484 40.959 C 247.829 41.465,248.001 41.967,248.083 42.709 C 248.147 43.282,248.355 44.387,248.545 45.167 C 249.021 47.119,249.022 49.879,248.546 51.917 C 248.354 52.742,248.144 53.867,248.081 54.416 C 247.961 55.454,247.698 56.128,247.276 56.479 C 247.140 56.591,246.942 57.048,246.835 57.494 C 246.727 57.944,246.401 58.588,246.102 58.944 C 245.805 59.295,245.460 59.846,245.334 60.167 C 245.071 60.838,244.831 61.116,242.453 63.500 C 240.639 65.320,240.130 65.721,238.772 66.400 C 238.326 66.623,237.726 67.031,237.439 67.307 C 237.044 67.686,236.653 67.855,235.833 68.001 C 235.237 68.107,234.351 68.421,233.864 68.699 C 231.848 69.848,221.453 69.832,219.433 68.676 C 218.931 68.389,218.055 68.072,217.486 67.971 C 216.721 67.837,216.296 67.651,215.851 67.258 C 215.520 66.966,215.014 66.632,214.726 66.517 C 214.438 66.402,214.055 66.171,213.877 66.005 C 213.698 65.838,213.304 65.574,213.000 65.417 C 211.987 64.893,208.396 61.036,207.958 60.000 C 207.822 59.679,207.479 59.154,207.196 58.833 C 206.912 58.512,206.596 57.898,206.492 57.467 C 206.389 57.036,206.193 56.591,206.058 56.479 C 205.589 56.090,205.364 55.405,205.170 53.776 C 205.062 52.877,204.868 51.753,204.738 51.279 C 204.298 49.674,204.260 47.899,204.631 46.333 C 204.816 45.554,205.057 44.204,205.166 43.333 C 205.323 42.077,205.466 41.589,205.859 40.969 C 206.131 40.540,206.427 39.923,206.517 39.599 C 206.606 39.275,206.854 38.802,207.066 38.547 C 207.519 38.004,208.000 37.107,208.000 36.805 C 208.000 36.574,208.292 36.255,210.827 33.708 C 211.763 32.769,212.594 32.000,212.675 32.000 C 212.756 32.000,213.078 31.775,213.392 31.499 C 213.705 31.224,214.252 30.878,214.606 30.730 C 214.960 30.583,215.518 30.220,215.846 29.924 C 216.272 29.540,216.673 29.355,217.253 29.275 C 217.698 29.214,218.593 28.903,219.240 28.584 C 220.967 27.732,225.720 27.427,230.783 27.842 M297.500 28.608 C 298.096 28.896,298.856 29.218,299.189 29.323 C 300.014 29.582,302.605 32.171,302.761 32.892 C 302.824 33.180,303.108 33.867,303.393 34.417 C 304.189 35.950,304.187 39.527,303.390 41.167 C 303.101 41.762,302.811 42.533,302.746 42.880 C 302.572 43.807,299.740 46.597,298.814 46.753 C 298.460 46.813,297.903 47.044,297.576 47.266 C 296.592 47.933,295.882 47.992,288.708 47.996 C 282.053 48.000,281.823 47.989,281.500 47.667 C 281.036 47.202,280.972 29.019,281.432 28.362 L 281.697 27.984 289.057 28.034 L 296.417 28.083 297.500 28.608 M53.465 30.322 C 55.255 30.644,56.362 30.927,56.715 31.154 C 57.009 31.344,57.642 31.685,58.121 31.912 C 58.600 32.140,59.305 32.553,59.688 32.830 C 60.070 33.107,60.476 33.333,60.589 33.333 C 60.703 33.333,61.048 33.585,61.356 33.893 C 62.628 35.164,66.057 38.080,67.752 39.333 C 68.605 39.965,69.454 40.723,71.481 42.667 C 72.811 43.941,75.197 46.126,76.065 46.863 C 76.993 47.652,76.857 47.821,69.127 55.531 C 65.280 59.369,61.923 62.617,61.669 62.749 C 61.415 62.880,61.162 63.106,61.106 63.251 C 61.050 63.396,60.760 63.620,60.461 63.747 C 60.161 63.875,59.515 64.284,59.025 64.657 C 58.534 65.029,58.007 65.333,57.853 65.333 C 57.698 65.333,57.165 65.595,56.668 65.916 C 56.171 66.236,55.499 66.539,55.174 66.590 C 54.849 66.641,53.642 66.866,52.491 67.091 C 49.775 67.622,48.016 67.621,45.333 67.087 C 44.188 66.859,42.895 66.629,42.461 66.576 C 41.892 66.507,41.537 66.345,41.184 65.992 C 40.867 65.675,40.397 65.439,39.849 65.321 C 39.290 65.201,38.892 64.999,38.676 64.724 C 38.496 64.496,38.064 64.100,37.716 63.845 C 36.434 62.907,33.167 59.484,33.167 59.078 C 33.167 58.958,32.974 58.630,32.739 58.351 C 32.504 58.071,32.165 57.427,31.987 56.920 C 31.809 56.413,31.438 55.567,31.163 55.041 C 29.956 52.726,29.995 44.583,31.226 42.083 C 31.542 41.442,32.014 40.478,32.275 39.941 C 32.536 39.405,32.917 38.643,33.121 38.249 C 33.473 37.568,37.543 33.333,37.845 33.333 C 37.924 33.333,38.247 33.107,38.562 32.830 C 38.877 32.553,39.560 32.180,40.080 32.001 C 40.599 31.823,41.240 31.494,41.505 31.272 C 41.859 30.974,42.418 30.790,43.618 30.577 C 44.516 30.418,45.737 30.193,46.333 30.076 C 48.224 29.707,50.478 29.785,53.465 30.322 M374.381 36.128 C 374.528 36.290,374.730 36.790,374.831 37.240 C 374.936 37.706,375.185 38.217,375.410 38.426 C 375.779 38.767,376.164 39.743,376.166 40.343 C 376.166 40.485,376.357 40.860,376.589 41.174 C 376.821 41.489,377.152 42.203,377.324 42.760 C 377.496 43.317,377.906 44.280,378.235 44.900 C 378.564 45.520,378.833 46.161,378.833 46.324 C 378.833 46.487,379.020 46.895,379.248 47.231 C 379.847 48.114,380.107 48.671,380.230 49.333 C 380.290 49.654,380.523 50.092,380.749 50.305 C 381.123 50.660,381.497 51.577,381.499 52.146 C 381.500 52.273,381.762 52.667,382.083 53.022 C 383.590 54.689,383.574 54.693,374.000 54.693 C 366.316 54.693,365.750 54.673,365.549 54.398 C 365.225 53.955,365.284 53.635,365.810 52.996 C 366.072 52.678,366.408 51.997,366.557 51.485 C 366.706 50.972,366.975 50.365,367.155 50.136 C 367.336 49.906,367.671 49.220,367.900 48.611 C 368.129 48.002,368.503 47.185,368.731 46.794 C 368.958 46.403,369.234 45.726,369.343 45.289 C 369.452 44.852,369.757 44.223,370.021 43.891 C 370.284 43.559,370.500 43.167,370.501 43.019 C 370.503 42.429,370.863 41.509,371.314 40.942 C 371.575 40.612,371.837 40.047,371.894 39.684 C 371.952 39.322,372.195 38.794,372.434 38.510 C 372.672 38.227,372.973 37.645,373.101 37.218 C 373.473 35.982,373.912 35.609,374.381 36.128 " stroke="none" fill="#e9e9e9" fill-rule="evenodd"></path><path id="path1" d="M0.000 19.250 C 0.000 38.346,0.003 38.500,0.331 38.500 C 0.788 38.500,1.136 37.607,1.426 35.695 C 1.576 34.710,1.786 33.967,2.001 33.666 C 2.187 33.405,2.494 32.567,2.683 31.804 C 2.872 31.041,3.239 30.095,3.498 29.703 C 3.757 29.310,4.057 28.624,4.164 28.179 C 4.271 27.733,4.538 27.199,4.757 26.993 C 4.976 26.787,5.271 26.273,5.411 25.851 C 5.551 25.429,5.929 24.714,6.250 24.262 C 6.571 23.811,6.833 23.372,6.833 23.286 C 6.833 23.201,7.024 22.904,7.258 22.627 C 7.492 22.349,7.839 21.813,8.030 21.436 C 8.437 20.633,9.394 19.455,11.335 17.369 C 11.701 16.975,12.000 16.578,12.000 16.484 C 12.000 16.230,15.892 12.398,16.440 12.112 C 16.702 11.976,17.154 11.614,17.445 11.307 C 18.676 10.009,20.467 8.615,21.785 7.931 C 22.224 7.703,22.760 7.325,22.976 7.091 C 23.192 6.858,23.462 6.667,23.576 6.667 C 23.690 6.667,24.094 6.442,24.474 6.166 C 24.854 5.891,25.551 5.519,26.022 5.340 C 26.494 5.161,27.038 4.870,27.232 4.695 C 27.425 4.519,27.996 4.245,28.500 4.086 C 29.004 3.928,29.686 3.625,30.015 3.414 C 30.674 2.991,31.681 2.669,32.346 2.668 C 32.583 2.667,33.128 2.434,33.558 2.149 C 34.155 1.754,34.684 1.579,35.795 1.409 C 37.764 1.109,38.569 0.812,38.637 0.359 L 38.690 0.000 19.345 0.000 L 0.000 0.000 0.000 19.250 M58.197 0.373 C 58.269 0.881,58.875 1.135,60.526 1.352 C 61.472 1.477,62.183 1.682,62.750 1.995 C 63.208 2.248,64.102 2.582,64.737 2.737 C 65.373 2.892,66.104 3.198,66.367 3.419 C 66.799 3.783,67.775 4.163,68.281 4.166 C 68.390 4.166,68.725 4.391,69.025 4.665 C 69.325 4.939,69.949 5.287,70.410 5.439 C 70.872 5.591,71.496 5.929,71.797 6.191 C 72.099 6.453,72.452 6.667,72.583 6.667 C 72.714 6.667,73.068 6.882,73.369 7.145 C 73.670 7.408,74.306 7.819,74.782 8.059 C 75.258 8.300,75.708 8.602,75.782 8.731 C 75.856 8.860,76.200 9.132,76.546 9.335 C 76.892 9.538,77.251 9.845,77.343 10.017 C 77.435 10.189,77.751 10.454,78.047 10.606 C 79.143 11.171,82.161 13.831,87.189 18.667 C 89.097 20.501,90.021 21.328,92.928 23.799 C 95.364 25.869,96.517 26.878,97.159 27.500 C 97.490 27.821,98.691 28.946,99.828 30.000 C 100.964 31.054,102.372 32.374,102.956 32.933 L 104.018 33.948 103.824 34.717 C 103.694 35.234,103.487 35.578,103.190 35.768 C 102.546 36.182,92.415 46.317,92.083 46.879 L 91.800 47.357 92.854 48.304 C 93.433 48.824,94.528 49.869,95.287 50.625 C 96.047 51.381,96.736 52.000,96.818 52.000 C 97.321 52.000,105.000 58.902,105.000 59.354 C 105.000 59.634,104.373 60.465,103.003 62.000 C 102.307 62.779,101.393 63.829,100.971 64.333 C 100.549 64.837,99.853 65.625,99.424 66.083 C 96.575 69.130,95.541 70.215,93.896 71.890 C 92.876 72.928,91.946 73.956,91.829 74.175 C 91.712 74.394,91.442 74.762,91.230 74.995 C 91.018 75.227,89.998 76.390,88.964 77.579 C 85.171 81.940,80.502 86.378,78.263 87.750 C 77.964 87.933,77.464 88.294,77.151 88.551 C 76.340 89.218,74.863 90.162,74.073 90.517 C 73.701 90.684,73.256 90.976,73.085 91.164 C 72.914 91.353,72.370 91.625,71.876 91.769 C 71.382 91.913,70.728 92.249,70.425 92.515 C 70.121 92.782,69.620 93.049,69.311 93.107 C 68.696 93.225,67.978 93.555,67.333 94.017 C 67.104 94.181,66.429 94.438,65.833 94.587 C 65.237 94.736,64.428 95.045,64.035 95.273 C 63.512 95.577,62.913 95.730,61.795 95.846 C 60.170 96.014,59.500 96.304,59.500 96.837 C 59.500 97.165,60.273 97.167,229.750 97.167 L 400.000 97.167 400.000 87.097 L 400.000 77.028 396.356 76.972 L 392.712 76.917 391.942 76.083 C 391.410 75.509,391.088 74.965,390.902 74.333 C 390.753 73.829,390.384 72.923,390.080 72.320 C 389.777 71.716,389.475 70.864,389.409 70.426 C 389.332 69.910,389.123 69.439,388.818 69.092 C 388.559 68.797,388.266 68.193,388.167 67.751 C 388.068 67.309,387.736 66.490,387.428 65.932 C 387.121 65.374,386.776 64.535,386.660 64.068 C 386.155 62.026,386.947 62.144,373.842 62.152 C 360.981 62.160,361.518 62.092,361.243 63.750 C 361.182 64.117,360.922 64.792,360.665 65.250 C 360.408 65.708,360.081 66.482,359.938 66.970 C 359.795 67.458,359.454 68.247,359.181 68.725 C 358.908 69.202,358.601 69.965,358.499 70.421 C 358.396 70.883,358.126 71.447,357.889 71.694 C 357.621 71.975,357.389 72.499,357.260 73.117 C 357.057 74.093,355.940 76.232,355.400 76.681 C 355.183 76.861,354.372 76.930,351.964 76.974 C 348.289 77.041,347.860 76.950,347.953 76.117 C 348.152 74.327,348.206 74.151,348.750 73.500 C 349.122 73.055,349.352 72.570,349.426 72.078 C 349.491 71.647,349.733 71.086,349.999 70.752 C 350.252 70.433,350.548 69.815,350.658 69.378 C 350.767 68.941,351.068 68.246,351.327 67.833 C 351.586 67.421,351.849 66.896,351.912 66.667 C 352.024 66.258,352.960 64.225,354.100 61.917 C 354.416 61.275,354.784 60.426,354.918 60.031 C 355.051 59.635,355.312 59.117,355.499 58.880 C 355.686 58.642,355.960 58.028,356.108 57.515 C 356.257 57.003,356.585 56.346,356.839 56.055 C 357.103 55.752,357.351 55.220,357.421 54.807 C 357.497 54.360,357.750 53.844,358.087 53.450 C 358.460 53.015,358.667 52.567,358.743 52.032 C 358.807 51.580,359.061 50.957,359.344 50.556 C 359.613 50.174,359.831 49.762,359.829 49.639 C 359.826 49.517,360.155 48.742,360.560 47.917 C 362.248 44.475,362.680 43.547,362.914 42.864 C 363.049 42.469,363.312 41.951,363.499 41.713 C 363.686 41.475,363.954 40.886,364.094 40.403 C 364.235 39.920,364.572 39.246,364.844 38.904 C 365.115 38.562,365.384 37.991,365.441 37.636 C 365.498 37.281,365.759 36.720,366.022 36.389 C 366.284 36.059,366.577 35.480,366.672 35.103 C 366.881 34.272,367.048 33.923,367.587 33.184 C 367.814 32.872,368.000 32.460,368.000 32.267 C 368.000 32.074,368.291 31.317,368.648 30.583 C 370.045 27.707,370.806 26.066,370.919 25.684 C 370.984 25.465,371.248 24.954,371.505 24.549 C 371.762 24.144,372.061 23.424,372.170 22.948 C 372.556 21.266,373.704 20.014,374.336 20.585 C 374.876 21.074,375.626 22.368,375.832 23.167 C 375.939 23.579,376.255 24.326,376.534 24.826 C 376.813 25.326,377.184 26.150,377.359 26.657 C 377.533 27.164,377.854 27.842,378.073 28.164 C 378.291 28.486,378.520 29.070,378.583 29.461 C 378.653 29.899,378.906 30.422,379.245 30.827 C 379.607 31.261,379.832 31.743,379.908 32.249 C 379.980 32.728,380.197 33.214,380.489 33.549 C 380.746 33.843,381.075 34.496,381.221 35.000 C 381.366 35.504,381.678 36.177,381.913 36.496 C 382.148 36.814,382.420 37.377,382.516 37.746 C 382.613 38.115,382.874 38.698,383.098 39.042 C 383.322 39.385,383.664 40.098,383.859 40.625 C 384.053 41.152,384.389 41.889,384.605 42.263 C 384.822 42.637,385.142 43.359,385.316 43.868 C 385.491 44.376,385.822 45.082,386.052 45.438 C 386.282 45.793,386.522 46.411,386.586 46.811 C 386.662 47.287,386.891 47.748,387.247 48.144 C 387.597 48.533,387.836 49.009,387.913 49.472 C 387.983 49.888,388.229 50.417,388.495 50.722 C 388.748 51.012,389.075 51.663,389.221 52.167 C 389.366 52.671,389.675 53.339,389.905 53.652 C 390.136 53.965,390.438 54.609,390.576 55.084 C 390.714 55.559,390.976 56.136,391.157 56.367 C 391.339 56.597,391.651 57.228,391.850 57.768 C 392.050 58.308,392.351 58.946,392.519 59.186 C 392.687 59.426,393.019 60.161,393.256 60.820 C 393.494 61.478,393.863 62.275,394.077 62.590 C 394.291 62.905,394.556 63.537,394.666 63.995 C 394.775 64.453,395.074 65.091,395.330 65.413 C 395.600 65.752,395.842 66.311,395.907 66.745 C 395.981 67.240,396.212 67.722,396.593 68.178 C 396.908 68.556,397.168 69.027,397.170 69.224 C 397.175 69.691,397.707 70.856,398.042 71.133 C 398.186 71.252,398.393 71.720,398.502 72.173 C 398.733 73.138,399.226 73.833,399.679 73.833 C 399.995 73.833,400.000 73.417,400.000 49.500 L 400.000 25.167 399.634 25.167 C 399.433 25.167,398.980 24.967,398.629 24.724 L 397.990 24.281 397.203 24.633 C 395.211 25.523,394.833 25.338,394.833 23.471 C 394.833 20.429,393.483 20.271,393.251 23.286 C 393.114 25.063,392.911 25.389,392.193 24.986 C 391.717 24.718,391.552 24.228,391.520 22.982 C 391.504 22.376,391.375 22.050,390.903 21.433 C 390.274 20.609,390.283 20.471,391.000 19.876 C 391.380 19.560,395.693 19.969,397.475 20.490 C 397.893 20.612,398.123 20.595,398.391 20.422 C 398.589 20.295,399.031 20.140,399.375 20.077 L 400.000 19.963 400.000 9.981 L 400.000 0.000 229.072 0.000 L 58.143 0.000 58.197 0.373 M45.917 9.351 C 43.913 9.435,43.148 9.540,42.060 9.880 C 41.315 10.114,39.980 10.396,39.094 10.507 C 37.909 10.656,37.181 10.855,36.336 11.260 C 35.705 11.562,34.844 11.861,34.422 11.925 C 34.000 11.988,33.376 12.230,33.036 12.463 C 32.695 12.696,31.990 13.054,31.469 13.260 C 30.948 13.465,30.273 13.823,29.969 14.054 C 29.665 14.285,29.204 14.527,28.943 14.592 C 28.683 14.657,28.145 14.982,27.748 15.314 C 27.010 15.930,25.866 16.689,24.889 17.208 C 24.168 17.591,17.392 24.381,17.242 24.871 C 17.074 25.419,15.657 27.532,15.226 27.877 C 15.024 28.039,14.730 28.564,14.572 29.044 C 14.414 29.524,14.080 30.152,13.830 30.440 C 13.580 30.728,13.285 31.341,13.174 31.801 C 13.064 32.262,12.836 32.763,12.669 32.915 C 12.299 33.249,12.078 33.798,11.845 34.961 C 11.748 35.443,11.454 36.268,11.191 36.794 C 10.855 37.467,10.655 38.219,10.515 39.333 C 10.406 40.204,10.096 41.754,9.825 42.777 C 9.078 45.602,9.077 51.726,9.824 54.557 C 10.094 55.580,10.401 57.092,10.506 57.917 C 10.635 58.925,10.879 59.826,11.250 60.667 C 11.553 61.354,11.855 62.254,11.920 62.667 C 12.053 63.504,12.234 63.925,12.673 64.417 C 12.836 64.600,13.059 65.087,13.167 65.500 C 13.275 65.912,13.555 66.503,13.789 66.811 C 14.022 67.120,14.359 67.758,14.536 68.228 C 14.713 68.698,15.043 69.271,15.270 69.500 C 15.767 70.003,17.167 72.100,17.167 72.343 C 17.167 73.101,25.146 80.612,26.667 81.286 C 27.079 81.469,27.562 81.782,27.740 81.982 C 27.917 82.182,28.402 82.496,28.817 82.679 C 29.232 82.863,29.693 83.123,29.843 83.258 C 29.992 83.394,30.575 83.685,31.137 83.905 C 31.700 84.126,32.379 84.462,32.646 84.652 C 32.913 84.842,33.609 85.115,34.191 85.258 C 34.773 85.401,35.700 85.740,36.250 86.010 C 36.920 86.339,37.718 86.560,38.667 86.680 C 39.446 86.779,40.946 87.097,42.000 87.388 L 43.917 87.917 48.750 87.917 C 53.553 87.917,53.593 87.914,55.133 87.453 C 55.985 87.198,57.485 86.878,58.466 86.741 C 59.691 86.569,60.563 86.342,61.250 86.014 C 61.800 85.751,62.737 85.412,63.333 85.261 C 63.929 85.110,64.679 84.807,65.000 84.587 C 65.321 84.367,66.013 84.028,66.538 83.833 C 67.064 83.638,67.538 83.407,67.592 83.319 C 67.646 83.232,68.079 82.964,68.553 82.724 C 69.028 82.485,69.625 82.114,69.880 81.901 C 70.135 81.687,70.621 81.436,70.959 81.343 C 71.298 81.249,71.839 80.905,72.162 80.578 C 72.486 80.251,73.725 79.133,74.917 78.094 C 76.108 77.055,78.133 75.056,79.417 73.652 C 80.700 72.248,82.259 70.571,82.882 69.925 C 84.121 68.639,86.476 66.132,87.222 65.305 C 87.481 65.017,87.816 64.587,87.967 64.349 C 88.367 63.716,89.459 62.370,90.345 61.417 C 91.268 60.423,91.347 59.417,90.545 58.869 C 90.315 58.712,89.546 58.009,88.837 57.308 C 88.127 56.607,87.324 55.918,87.053 55.777 C 86.781 55.637,86.457 55.399,86.332 55.249 C 86.085 54.951,84.958 54.333,84.661 54.333 C 84.559 54.333,81.083 57.727,76.935 61.875 C 68.756 70.055,67.292 71.434,66.200 71.986 C 65.806 72.185,65.441 72.461,65.388 72.598 C 65.335 72.735,64.983 73.005,64.604 73.197 C 64.226 73.388,63.707 73.721,63.451 73.935 C 63.195 74.149,62.671 74.409,62.288 74.512 C 61.905 74.615,61.290 74.913,60.921 75.173 C 60.552 75.434,59.762 75.770,59.167 75.919 C 58.571 76.069,57.746 76.379,57.333 76.607 C 56.725 76.945,56.206 77.054,54.583 77.186 C 53.483 77.276,52.171 77.472,51.667 77.622 C 50.323 78.021,47.641 77.979,45.710 77.527 C 44.863 77.329,43.701 77.166,43.127 77.166 C 41.868 77.165,41.012 76.945,40.247 76.425 C 39.932 76.212,39.205 75.954,38.630 75.853 C 38.055 75.752,37.382 75.519,37.133 75.335 C 36.885 75.151,36.284 74.845,35.799 74.655 C 35.314 74.464,34.767 74.172,34.583 74.006 C 34.400 73.840,33.912 73.536,33.500 73.330 C 32.766 72.964,32.090 72.453,30.750 71.252 C 30.383 70.924,29.671 70.308,29.167 69.883 C 28.662 69.459,27.899 68.693,27.471 68.181 C 27.042 67.669,26.423 66.950,26.094 66.583 C 24.722 65.051,24.213 64.385,23.997 63.833 C 23.871 63.512,23.569 62.987,23.326 62.667 C 23.082 62.346,22.747 61.708,22.581 61.250 C 22.414 60.792,22.111 60.154,21.906 59.833 C 21.701 59.512,21.482 58.876,21.418 58.419 C 21.354 57.962,21.080 57.100,20.809 56.503 C 19.624 53.889,19.632 43.428,20.821 40.778 C 21.097 40.162,21.372 39.287,21.432 38.833 C 21.493 38.376,21.716 37.772,21.933 37.478 C 22.148 37.187,22.447 36.566,22.599 36.099 C 22.750 35.632,23.081 35.025,23.334 34.750 C 23.587 34.475,23.883 33.969,23.993 33.625 C 24.286 32.707,25.594 31.132,28.363 28.363 C 31.096 25.630,32.427 24.521,33.700 23.919 C 34.218 23.674,34.679 23.374,34.726 23.253 C 34.772 23.132,35.247 22.871,35.780 22.673 C 36.314 22.475,37.012 22.137,37.333 21.922 C 37.654 21.707,38.254 21.481,38.667 21.420 C 39.079 21.359,39.942 21.056,40.583 20.748 C 41.629 20.244,41.983 20.168,44.002 20.009 C 45.241 19.912,46.516 19.758,46.835 19.666 C 47.670 19.427,49.985 19.462,51.382 19.735 C 52.043 19.864,53.371 20.015,54.333 20.069 C 55.771 20.151,56.232 20.246,56.917 20.603 C 57.375 20.842,58.293 21.168,58.958 21.329 C 59.622 21.489,60.447 21.815,60.791 22.053 C 61.135 22.292,61.744 22.601,62.143 22.742 C 62.543 22.883,63.177 23.224,63.551 23.499 C 63.926 23.775,64.315 24.000,64.416 24.000 C 64.517 24.000,64.892 24.300,65.250 24.667 C 65.608 25.033,65.991 25.333,66.101 25.333 C 66.322 25.333,67.969 26.536,68.750 27.269 C 69.025 27.526,70.052 28.467,71.033 29.359 C 72.014 30.251,73.342 31.491,73.985 32.115 C 75.695 33.774,76.690 34.666,77.670 35.417 C 78.743 36.239,81.311 38.428,82.373 39.425 C 83.828 40.792,83.955 40.734,87.593 37.075 C 91.201 33.447,91.105 33.901,88.725 31.750 C 87.914 31.017,86.710 29.892,86.050 29.250 C 84.427 27.673,83.336 26.692,82.472 26.033 C 79.760 23.967,77.015 21.535,73.468 18.058 C 73.130 17.727,72.568 17.314,72.218 17.141 C 71.370 16.721,70.015 15.786,69.500 15.265 C 69.271 15.034,68.763 14.732,68.372 14.595 C 67.981 14.458,67.410 14.155,67.104 13.921 C 66.797 13.687,66.179 13.374,65.731 13.225 C 65.283 13.077,64.767 12.824,64.583 12.665 C 64.089 12.235,63.666 12.052,62.849 11.917 C 62.445 11.850,61.605 11.551,60.982 11.253 C 60.153 10.855,59.418 10.656,58.239 10.507 C 57.354 10.396,56.019 10.118,55.273 9.890 C 53.496 9.346,50.332 9.164,45.917 9.351 M159.950 20.165 C 161.093 20.268,161.871 20.431,162.327 20.663 C 162.700 20.854,163.661 21.144,164.464 21.309 C 165.267 21.473,166.260 21.802,166.670 22.040 C 167.081 22.278,167.732 22.556,168.117 22.657 C 168.503 22.759,169.033 23.023,169.295 23.244 C 169.558 23.464,170.105 23.775,170.511 23.934 C 170.918 24.093,171.519 24.454,171.847 24.737 C 172.176 25.019,172.664 25.382,172.931 25.544 C 175.700 27.221,179.264 30.797,179.994 32.631 C 180.114 32.932,180.380 33.310,180.585 33.472 C 180.791 33.633,181.117 34.076,181.311 34.456 C 181.505 34.836,181.833 35.399,182.040 35.706 C 183.291 37.564,183.121 39.686,181.750 39.329 C 181.658 39.306,180.206 39.278,178.522 39.268 L 175.460 39.250 174.638 38.333 C 174.186 37.829,173.669 37.136,173.489 36.794 C 173.144 36.136,169.100 32.000,168.802 32.000 C 168.707 32.000,168.382 31.731,168.081 31.403 C 167.715 31.003,167.299 30.753,166.823 30.646 C 166.431 30.558,165.860 30.265,165.553 29.995 C 165.245 29.726,164.827 29.473,164.622 29.433 C 162.816 29.086,162.191 28.916,161.419 28.563 C 159.077 27.491,151.743 27.546,149.174 28.656 C 148.574 28.915,147.689 29.219,147.206 29.331 C 146.724 29.443,146.063 29.715,145.738 29.935 C 145.413 30.156,144.833 30.494,144.449 30.687 C 144.064 30.880,143.599 31.176,143.414 31.344 C 143.230 31.513,142.785 31.773,142.426 31.923 C 141.276 32.404,138.090 35.850,137.194 37.583 C 137.004 37.950,136.667 38.418,136.445 38.623 C 136.222 38.828,135.955 39.338,135.849 39.755 C 135.744 40.173,135.435 40.823,135.162 41.199 C 134.890 41.575,134.667 42.057,134.667 42.270 C 134.667 42.482,134.475 43.990,134.240 45.620 C 133.779 48.832,133.778 48.806,134.401 53.109 C 134.701 55.180,134.844 55.751,135.199 56.276 C 135.436 56.628,135.722 57.217,135.834 57.583 C 135.945 57.950,136.261 58.536,136.535 58.886 C 136.809 59.235,137.107 59.790,137.198 60.118 C 137.346 60.656,139.042 62.624,140.315 63.736 C 140.534 63.927,140.977 64.365,141.301 64.708 C 141.624 65.052,141.975 65.333,142.082 65.333 C 142.188 65.333,142.457 65.530,142.679 65.770 C 142.902 66.010,143.421 66.353,143.833 66.531 C 144.246 66.709,144.771 67.033,145.000 67.250 C 145.468 67.694,146.171 68.000,146.724 68.000 C 146.927 68.000,147.653 68.270,148.338 68.599 C 151.073 69.914,160.593 69.849,162.880 68.499 C 163.178 68.324,163.811 68.097,164.286 67.995 C 164.761 67.893,165.435 67.603,165.783 67.351 C 166.132 67.100,166.671 66.805,166.981 66.698 C 168.242 66.260,174.188 60.371,174.784 58.969 C 175.080 58.274,175.441 58.205,179.149 58.142 L 182.530 58.084 182.861 58.493 C 183.052 58.729,183.157 59.046,183.110 59.243 C 182.926 59.997,182.212 61.628,181.745 62.360 C 181.473 62.787,181.119 63.349,180.959 63.610 C 179.482 66.017,178.979 66.660,177.167 68.463 C 175.390 70.229,173.742 71.561,172.900 71.913 C 172.542 72.062,172.100 72.367,171.917 72.590 C 171.733 72.814,171.246 73.173,170.833 73.388 C 167.096 75.339,166.105 75.781,165.231 75.881 C 164.762 75.935,163.926 76.216,163.374 76.505 C 161.289 77.598,150.007 77.606,147.532 76.516 C 146.862 76.221,145.888 75.910,145.368 75.825 C 144.847 75.741,144.210 75.515,143.951 75.323 C 143.692 75.132,143.057 74.830,142.540 74.652 C 142.022 74.474,141.445 74.183,141.256 74.006 C 141.067 73.828,140.571 73.532,140.154 73.348 C 139.737 73.163,139.251 72.852,139.073 72.655 C 138.896 72.459,138.438 72.116,138.057 71.892 C 137.676 71.669,137.323 71.380,137.273 71.250 C 137.223 71.120,136.860 70.813,136.466 70.567 C 135.542 69.989,132.232 66.644,132.084 66.138 C 132.021 65.925,131.711 65.487,131.395 65.167 C 130.473 64.232,129.656 63.018,129.419 62.229 C 129.297 61.826,128.966 61.232,128.682 60.909 C 128.399 60.586,128.165 60.156,128.163 59.953 C 128.160 59.614,127.864 58.925,127.248 57.820 C 127.117 57.583,126.897 56.646,126.760 55.736 C 126.623 54.827,126.397 53.708,126.258 53.250 C 125.552 50.928,125.577 46.263,126.304 44.398 C 126.479 43.950,126.676 42.950,126.742 42.175 C 126.831 41.129,126.983 40.527,127.333 39.833 C 127.593 39.319,127.928 38.477,128.077 37.961 C 128.227 37.446,128.499 36.834,128.681 36.603 C 128.863 36.372,129.171 35.823,129.365 35.383 C 130.180 33.541,132.969 30.127,135.602 27.750 C 136.312 27.108,137.124 26.350,137.405 26.064 C 137.687 25.779,138.104 25.448,138.333 25.329 C 138.563 25.210,139.012 24.909,139.333 24.660 C 139.654 24.411,140.177 24.122,140.495 24.016 C 140.814 23.911,141.272 23.635,141.514 23.403 C 141.756 23.172,142.347 22.878,142.828 22.751 C 143.309 22.625,143.979 22.329,144.317 22.095 C 144.692 21.835,145.515 21.543,146.424 21.347 C 147.245 21.170,148.292 20.857,148.750 20.652 C 150.064 20.064,155.981 19.807,159.950 20.165 M232.144 20.163 C 233.021 20.264,233.760 20.454,234.135 20.675 C 234.462 20.868,235.393 21.168,236.202 21.341 C 237.113 21.536,237.879 21.809,238.212 22.059 C 238.508 22.280,239.171 22.582,239.687 22.729 C 240.202 22.876,240.725 23.120,240.850 23.270 C 240.975 23.420,241.603 23.796,242.247 24.105 C 243.903 24.901,244.297 25.191,246.755 27.417 C 247.159 27.783,247.758 28.308,248.085 28.583 C 248.413 28.858,249.122 29.608,249.661 30.250 C 250.201 30.892,250.915 31.717,251.249 32.083 C 252.078 32.993,252.974 34.385,253.269 35.220 C 253.403 35.600,253.689 36.101,253.905 36.331 C 254.120 36.561,254.425 37.199,254.581 37.748 C 254.738 38.297,255.049 39.058,255.273 39.440 C 255.547 39.908,255.762 40.685,255.930 41.816 C 256.068 42.741,256.294 43.816,256.433 44.207 C 257.140 46.196,257.100 50.870,256.357 53.000 C 256.181 53.504,255.983 54.516,255.917 55.250 C 255.835 56.161,255.663 56.846,255.375 57.416 C 255.142 57.875,254.778 58.761,254.566 59.385 C 254.354 60.009,253.989 60.746,253.757 61.023 C 253.524 61.299,253.333 61.614,253.333 61.722 C 253.333 62.043,251.792 64.553,251.213 65.174 C 250.484 65.955,245.873 70.579,245.250 71.153 C 244.975 71.407,244.400 71.817,243.972 72.065 C 243.545 72.312,243.108 72.620,243.001 72.749 C 242.894 72.878,242.531 73.070,242.195 73.176 C 241.859 73.283,241.319 73.576,240.997 73.829 C 240.674 74.081,239.992 74.409,239.481 74.557 C 238.970 74.706,238.372 74.968,238.151 75.139 C 237.679 75.507,236.892 75.765,235.787 75.914 C 235.349 75.973,234.487 76.261,233.870 76.553 L 232.750 77.083 226.667 77.083 L 220.583 77.083 219.417 76.545 C 218.775 76.249,217.794 75.936,217.237 75.850 C 216.644 75.759,215.757 75.447,215.098 75.097 C 214.479 74.769,213.837 74.500,213.672 74.500 C 213.506 74.500,213.004 74.248,212.556 73.940 C 212.109 73.632,211.590 73.331,211.404 73.272 C 210.113 72.863,208.411 71.496,205.167 68.265 C 201.622 64.735,201.208 64.221,200.193 62.083 C 199.932 61.533,199.593 60.980,199.441 60.853 C 199.288 60.727,199.041 60.202,198.892 59.687 C 198.743 59.171,198.373 58.186,198.071 57.497 C 197.677 56.600,197.487 55.865,197.404 54.913 C 197.339 54.182,197.216 53.396,197.130 53.167 C 196.799 52.287,196.501 50.014,196.506 48.417 C 196.512 46.884,196.657 45.825,197.135 43.833 C 197.234 43.421,197.391 42.469,197.483 41.719 C 197.596 40.804,197.811 40.036,198.137 39.386 C 198.405 38.853,198.744 37.999,198.891 37.488 C 199.038 36.977,199.308 36.424,199.490 36.259 C 199.672 36.094,199.907 35.688,200.012 35.355 C 200.286 34.487,201.301 32.915,202.125 32.080 C 202.515 31.686,202.833 31.298,202.833 31.219 C 202.833 31.053,205.419 28.443,206.683 27.333 C 207.153 26.921,207.756 26.366,208.024 26.101 C 208.634 25.498,209.945 24.657,211.250 24.031 C 211.800 23.767,212.350 23.431,212.472 23.283 C 212.595 23.136,213.120 22.893,213.639 22.743 C 214.158 22.593,214.825 22.287,215.121 22.063 C 215.459 21.807,216.206 21.539,217.131 21.341 C 217.940 21.168,218.877 20.865,219.213 20.667 C 220.246 20.057,228.446 19.738,232.144 20.163 M296.000 20.894 C 296.504 21.049,297.479 21.252,298.167 21.346 C 299.313 21.502,300.256 21.861,302.451 22.978 C 306.874 25.229,310.912 30.335,311.694 34.667 C 312.066 36.727,311.789 41.620,311.226 42.917 C 310.948 43.558,310.666 44.308,310.600 44.583 C 310.257 46.004,308.900 47.674,305.213 51.209 C 304.636 51.763,303.539 52.446,302.333 53.002 C 301.921 53.193,301.096 53.598,300.500 53.904 C 299.731 54.298,299.101 54.486,298.326 54.553 C 297.726 54.605,296.640 54.842,295.913 55.079 L 294.591 55.511 288.254 55.489 L 281.917 55.467 281.542 56.008 L 281.167 56.549 281.167 66.116 C 281.167 76.591,281.172 76.532,280.205 76.777 C 279.821 76.875,276.905 76.913,274.617 76.851 C 273.240 76.813,273.341 79.031,273.337 48.667 C 273.333 19.131,273.269 20.942,274.333 20.642 C 275.311 20.367,295.031 20.596,296.000 20.894 M333.441 20.848 C 333.751 21.040,334.078 21.335,334.169 21.504 C 334.275 21.703,334.333 31.310,334.333 48.664 C 334.333 78.439,334.417 76.273,333.244 76.763 C 332.546 77.055,327.666 77.100,327.142 76.820 C 326.302 76.371,326.333 77.463,326.333 48.626 C 326.333 19.536,326.279 21.404,327.140 20.708 C 327.629 20.312,332.757 20.426,333.441 20.848 M222.083 27.858 C 220.692 27.980,220.222 28.100,219.240 28.584 C 218.593 28.903,217.698 29.214,217.253 29.275 C 216.673 29.355,216.272 29.540,215.846 29.924 C 215.518 30.220,214.960 30.583,214.606 30.730 C 214.252 30.878,213.705 31.224,213.392 31.499 C 213.078 31.775,212.756 32.000,212.675 32.000 C 212.594 32.000,211.763 32.769,210.827 33.708 C 208.292 36.255,208.000 36.574,208.000 36.805 C 208.000 37.107,207.519 38.004,207.066 38.547 C 206.854 38.802,206.606 39.275,206.517 39.599 C 206.427 39.923,206.131 40.540,205.859 40.969 C 205.466 41.589,205.323 42.077,205.166 43.333 C 205.057 44.204,204.816 45.554,204.631 46.333 C 204.260 47.899,204.298 49.674,204.738 51.279 C 204.868 51.753,205.062 52.877,205.170 53.776 C 205.364 55.405,205.589 56.090,206.058 56.479 C 206.193 56.591,206.389 57.036,206.492 57.467 C 206.596 57.898,206.912 58.512,207.196 58.833 C 207.479 59.154,207.822 59.679,207.958 60.000 C 208.396 61.036,211.987 64.893,213.000 65.417 C 213.304 65.574,213.698 65.838,213.877 66.005 C 214.055 66.171,214.438 66.402,214.726 66.517 C 215.014 66.632,215.520 66.966,215.851 67.258 C 216.296 67.651,216.721 67.837,217.486 67.971 C 218.055 68.072,218.931 68.389,219.433 68.676 C 221.453 69.832,231.848 69.848,233.864 68.699 C 234.351 68.421,235.237 68.107,235.833 68.001 C 236.653 67.855,237.044 67.686,237.439 67.307 C 237.726 67.031,238.326 66.623,238.772 66.400 C 240.130 65.721,240.639 65.320,242.453 63.500 C 244.831 61.116,245.071 60.838,245.334 60.167 C 245.460 59.846,245.805 59.295,246.102 58.944 C 246.401 58.588,246.727 57.944,246.835 57.494 C 246.942 57.048,247.140 56.591,247.276 56.479 C 247.698 56.128,247.961 55.454,248.081 54.416 C 248.144 53.867,248.354 52.742,248.546 51.917 C 249.022 49.879,249.021 47.119,248.545 45.167 C 248.355 44.387,248.147 43.282,248.083 42.709 C 248.001 41.967,247.829 41.465,247.484 40.959 C 247.218 40.569,246.925 39.979,246.833 39.647 C 246.741 39.316,246.441 38.762,246.166 38.416 C 245.891 38.070,245.580 37.499,245.474 37.147 C 245.262 36.439,241.577 32.542,240.489 31.875 C 240.162 31.675,239.761 31.363,239.597 31.181 C 239.433 31.000,239.078 30.804,238.809 30.745 C 238.540 30.686,237.994 30.355,237.595 30.011 C 237.070 29.555,236.660 29.355,236.097 29.278 C 235.671 29.219,234.782 28.912,234.120 28.594 C 232.328 27.734,227.137 27.416,222.083 27.858 M281.432 28.362 C 280.972 29.019,281.036 47.202,281.500 47.667 C 281.823 47.989,282.053 48.000,288.708 47.996 C 295.882 47.992,296.592 47.933,297.576 47.266 C 297.903 47.044,298.460 46.813,298.814 46.753 C 299.740 46.597,302.572 43.807,302.746 42.880 C 302.811 42.533,303.101 41.762,303.390 41.167 C 304.187 39.527,304.189 35.950,303.393 34.417 C 303.108 33.867,302.824 33.180,302.761 32.892 C 302.605 32.171,300.014 29.582,299.189 29.323 C 298.856 29.218,298.096 28.896,297.500 28.608 L 296.417 28.083 289.057 28.034 L 281.697 27.984 281.432 28.362 M46.333 30.076 C 45.737 30.193,44.516 30.418,43.618 30.577 C 42.418 30.790,41.859 30.974,41.505 31.272 C 41.240 31.494,40.599 31.823,40.080 32.001 C 39.560 32.180,38.877 32.553,38.562 32.830 C 38.247 33.107,37.924 33.333,37.845 33.333 C 37.543 33.333,33.473 37.568,33.121 38.249 C 32.917 38.643,32.536 39.405,32.275 39.941 C 32.014 40.478,31.542 41.442,31.226 42.083 C 29.995 44.583,29.956 52.726,31.163 55.041 C 31.438 55.567,31.809 56.413,31.987 56.920 C 32.165 57.427,32.504 58.071,32.739 58.351 C 32.974 58.630,33.167 58.958,33.167 59.078 C 33.167 59.484,36.434 62.907,37.716 63.845 C 38.064 64.100,38.496 64.496,38.676 64.724 C 38.892 64.999,39.290 65.201,39.849 65.321 C 40.397 65.439,40.867 65.675,41.184 65.992 C 41.537 66.345,41.892 66.507,42.461 66.576 C 42.895 66.629,44.188 66.859,45.333 67.087 C 48.016 67.621,49.775 67.622,52.491 67.091 C 53.642 66.866,54.849 66.641,55.174 66.590 C 55.499 66.539,56.171 66.236,56.668 65.916 C 57.165 65.595,57.698 65.333,57.853 65.333 C 58.007 65.333,58.534 65.029,59.025 64.657 C 59.515 64.284,60.161 63.875,60.461 63.747 C 60.760 63.620,61.050 63.396,61.106 63.251 C 61.162 63.106,61.415 62.880,61.669 62.749 C 61.923 62.617,65.280 59.369,69.127 55.531 C 76.857 47.821,76.993 47.652,76.065 46.863 C 75.197 46.126,72.811 43.941,71.481 42.667 C 69.454 40.723,68.605 39.965,67.752 39.333 C 66.057 38.080,62.628 35.164,61.356 33.893 C 61.048 33.585,60.703 33.333,60.589 33.333 C 60.476 33.333,60.070 33.107,59.688 32.830 C 59.305 32.553,58.600 32.140,58.121 31.912 C 57.642 31.685,57.009 31.344,56.715 31.154 C 55.287 30.236,48.906 29.574,46.333 30.076 M373.610 36.137 C 373.459 36.304,373.230 36.790,373.101 37.218 C 372.973 37.645,372.672 38.227,372.434 38.510 C 372.195 38.794,371.952 39.322,371.894 39.684 C 371.837 40.047,371.575 40.612,371.314 40.942 C 370.863 41.509,370.503 42.429,370.501 43.019 C 370.500 43.167,370.284 43.559,370.021 43.891 C 369.757 44.223,369.452 44.852,369.343 45.289 C 369.234 45.726,368.958 46.403,368.731 46.794 C 368.503 47.185,368.129 48.002,367.900 48.611 C 367.671 49.220,367.336 49.906,367.155 50.136 C 366.975 50.365,366.706 50.972,366.557 51.485 C 366.408 51.997,366.072 52.678,365.810 52.996 C 365.284 53.635,365.225 53.955,365.549 54.398 C 365.750 54.673,366.316 54.693,374.000 54.693 C 383.574 54.693,383.590 54.689,382.083 53.022 C 381.762 52.667,381.500 52.273,381.499 52.146 C 381.497 51.577,381.123 50.660,380.749 50.305 C 380.523 50.092,380.290 49.654,380.230 49.333 C 380.107 48.671,379.847 48.114,379.248 47.231 C 379.020 46.895,378.833 46.487,378.833 46.324 C 378.833 46.161,378.564 45.520,378.235 44.900 C 377.906 44.280,377.496 43.317,377.324 42.760 C 377.152 42.203,376.821 41.489,376.589 41.174 C 376.357 40.860,376.166 40.485,376.166 40.343 C 376.164 39.743,375.779 38.767,375.410 38.426 C 375.185 38.217,374.936 37.706,374.831 37.240 C 374.552 35.994,374.105 35.590,373.610 36.137 M0.000 78.083 L 0.000 97.167 19.083 97.167 C 37.406 97.167,38.167 97.155,38.167 96.864 C 38.167 96.412,37.139 96.001,35.559 95.821 C 34.480 95.699,34.000 95.554,33.388 95.165 C 32.955 94.891,32.442 94.667,32.248 94.667 C 31.642 94.667,30.234 94.184,29.766 93.816 C 29.521 93.623,28.874 93.330,28.328 93.165 C 27.782 93.000,27.106 92.672,26.827 92.437 C 26.547 92.201,26.025 91.930,25.667 91.833 C 25.308 91.737,24.793 91.471,24.522 91.243 C 24.252 91.015,23.773 90.722,23.460 90.591 C 23.147 90.460,22.788 90.230,22.664 90.080 C 22.539 89.930,22.058 89.616,21.594 89.382 C 20.694 88.929,19.939 88.349,18.761 87.208 C 18.359 86.819,17.951 86.500,17.856 86.500 C 17.164 86.500,11.562 80.910,10.841 79.500 C 10.724 79.271,10.356 78.808,10.022 78.473 C 8.822 77.262,6.670 74.238,6.665 73.755 C 6.664 73.661,6.410 73.265,6.100 72.875 C 5.791 72.485,5.489 71.908,5.429 71.592 C 5.370 71.276,5.072 70.719,4.767 70.354 C 4.447 69.971,4.170 69.418,4.110 69.046 C 4.053 68.691,3.788 68.067,3.521 67.659 C 3.254 67.251,2.873 66.318,2.674 65.587 C 2.476 64.856,2.167 64.021,1.989 63.732 C 1.804 63.432,1.562 62.525,1.426 61.614 C 1.154 59.805,0.816 59.000,0.329 59.000 C 0.003 59.000,0.000 59.194,0.000 78.083 " stroke="none" fill="#040404" fill-rule="evenodd"></path></g></svg>