<svg xmlns="http://www.w3.org/2000/svg" width="182" height="66" viewBox="0 0 182 66">
    <g fill="none" fill-rule="evenodd">
        <path fill="#FFF" d="M107.547 9.68c0 3.095-2.499 5.604-5.58 5.604-3.083 0-5.581-2.51-5.581-5.604 0-3.095 2.498-5.605 5.58-5.605s5.581 2.51 5.581 5.605M97.174 49.774L106.88 49.774 106.88 16.583 97.174 16.583zM94.99 40.741c-5.012.017-5.173.028-5.337.028-2.347 0-4.249-1.746-4.249-3.899 0-.113-.059-1.341-.119-2.676v-8.981h9.099v-8.624h-9.099V5.253H75.58v31.373h.013c-.004.082-.013.162-.013.244 0 7.132 6.3 12.914 14.073 12.914.163 0 .322-.017 5.338-.022v-9.02zM162.929 41.556c-4.476 0-8.104-3.643-8.104-8.138 0-4.494 3.628-8.138 8.104-8.138 4.475 0 8.104 3.644 8.104 8.138 0 4.495-3.629 8.138-8.104 8.138m-.228-25.389c-9.295 0-16.83 7.628-16.83 17.038s7.535 17.038 16.83 17.038c9.295 0 16.83-7.628 16.83-17.038s-7.535-17.038-16.83-17.038M55.935 41.87c-4.58 0-8.294-3.728-8.294-8.328s3.713-8.33 8.294-8.33c4.58 0 8.294 3.73 8.294 8.33s-3.714 8.329-8.294 8.329zM72.7 49.734V33.394c0-8.842-6.665-16.433-15.445-17.102-.648-.05-1.307-.063-1.973-.038-9.419.349-16.889 8.432-16.565 17.891.317 9.257 7.904 16.256 17.217 16.256 3.171 0 5.535-1.139 8.262-3.115v2.447H72.7zM134.825 34.322c-.18 1.941-1.051 3.678-2.355 4.974-1.452 1.386-3.411 2.242-5.573 2.242-4.472 0-8.098-3.64-8.098-8.132 0-.527.054-1.041.15-1.54.775-3.65 4.001-6.39 7.867-6.39 4.188 0 7.626 3.214 8.01 7.319v1.527zm9.14-.915c0-8.078-5.556-15.24-13.446-16.814-.243-.048-.488-.092-.734-.13-1.01-.191-2.05-.296-3.115-.296-9.288 0-16.818 7.623-16.818 17.026 0 .944.08 1.868.225 2.77 1.128 8.331 8.062 14.347 16.76 14.347 1.349 0 2.6-.198 3.767-.565 1.495-.362 2.912-.926 4.221-1.663v1.996c0 1.297-.363 2.584-1.126 3.63-1.038 1.424-2.89 2.693-6.195 2.693 0 0-5.58 0-7.037-2.924h-9.22s1.456 11.209 17.227 11.209c0 0 3.192-.177 6.728-1.513 5.31-2.007 8.764-7.187 8.764-12.885V33.407zM13.685 30.147l.171-.716c.802-3.354 3.857-5.52 7.426-5.52 3.657 0 6.749 2.177 7.364 5.548l.126.688H13.685zm19.692-8.528c-2.835-3.57-7.016-5.456-12.09-5.456-9.225 0-16.18 7.338-16.18 17.07v.116c0 9.823 7.173 16.952 17.055 16.952 5.585 0 9.612-2.062 12.877-6.128l.421-.525-6.06-4.924-1.04 1.031c-2.344 2.186-3.91 2.587-6.686 2.587-3.096 0-6.545-2.285-7.515-5.355h22.254l.655-.01.046-.656c.058-.816.118-1.66.118-2.385 0-4.814-1.369-9.187-3.855-12.317z" transform="translate(1 .5)"/>
        <path fill="#F5831F" d="M5.02 24.06c2.778-5.406 8.112-9.269 14.4-9.972 1.877-.73 3.21-2.555 3.21-4.697 0-2.784-2.248-5.04-5.02-5.04-.134 0-.266.01-.397.02C16.513 1.85 14.217 0 11.485 0 8.739 0 6.434 1.87 5.747 4.41c-.238-.036-.48-.06-.728-.06C2.247 4.35 0 6.607 0 9.39c0 2.785 2.247 5.041 5.02 5.041v9.628z" transform="translate(1 .5)"/>
    </g>
</svg>
