<svg id="svg" version="1.1" xmlns="http://www.w3.org/2000/svg" xmlns:xlink="http://www.w3.org/1999/xlink" width="400" height="400" viewBox="0, 0, 400,400"><g id="svgg"><path id="path0" d="M0.000 96.200 C 0.000 177.427,0.085 192.400,0.548 192.400 C 0.903 192.400,1.189 191.708,1.357 190.442 C 1.499 189.365,1.873 188.271,2.188 188.010 C 2.502 187.749,2.962 186.920,3.211 186.168 C 3.459 185.416,3.798 184.800,3.964 184.800 C 4.130 184.800,4.833 183.924,5.526 182.854 C 6.220 181.784,7.735 180.083,8.893 179.075 C 10.052 178.067,11.360 176.897,11.800 176.475 C 12.240 176.054,13.005 175.582,13.500 175.428 C 13.995 175.273,14.400 175.007,14.400 174.837 C 14.400 174.419,16.256 173.600,17.205 173.600 C 18.190 173.600,18.782 174.714,18.521 176.079 C 18.408 176.668,18.605 177.729,18.958 178.436 C 20.123 180.771,19.427 183.600,17.688 183.600 C 17.240 183.600,13.200 187.436,13.200 187.861 C 13.200 187.984,12.750 188.619,12.200 189.273 C 11.650 189.927,11.200 190.751,11.200 191.105 C 11.200 191.459,10.795 192.180,10.300 192.706 C 8.911 194.185,8.911 207.198,10.300 208.964 C 10.795 209.593,11.200 210.373,11.200 210.696 C 11.200 211.020,11.650 211.819,12.200 212.473 C 12.750 213.127,13.200 213.918,13.200 214.231 C 13.200 214.544,13.470 214.800,13.800 214.800 C 14.130 214.800,14.400 214.967,14.400 215.171 C 14.400 216.160,19.508 219.740,21.561 220.191 C 22.247 220.342,23.101 220.758,23.459 221.117 C 24.411 222.068,34.530 222.065,36.000 221.113 C 36.550 220.757,37.746 220.269,38.659 220.028 C 39.571 219.788,40.421 219.323,40.546 218.996 C 40.672 218.668,41.044 218.400,41.374 218.400 C 42.118 218.400,47.600 212.918,47.600 212.174 C 47.600 211.875,47.944 211.309,48.365 210.916 C 48.785 210.522,49.256 209.480,49.410 208.600 C 49.564 207.720,49.954 206.579,50.278 206.064 C 50.970 204.962,51.092 197.433,50.430 196.636 C 50.206 196.366,49.816 195.182,49.564 194.005 C 49.311 192.827,48.766 191.501,48.352 191.057 C 47.939 190.613,47.600 189.991,47.600 189.676 C 47.600 188.944,42.920 184.103,41.600 183.471 C 40.652 183.016,40.593 182.793,40.475 179.196 C 40.314 174.346,41.023 172.546,42.739 173.442 C 43.323 173.746,43.985 173.996,44.211 173.998 C 44.437 173.999,44.930 174.360,45.307 174.800 C 45.684 175.240,46.233 175.600,46.526 175.600 C 46.820 175.600,47.483 176.050,48.000 176.600 C 48.517 177.150,49.088 177.600,49.270 177.600 C 50.496 177.600,56.881 185.954,57.456 188.310 C 57.602 188.910,58.055 189.829,58.461 190.354 C 58.873 190.886,59.200 191.959,59.200 192.781 C 59.200 193.592,59.483 195.209,59.830 196.376 C 60.860 199.844,59.443 212.000,58.008 212.000 C 57.840 212.000,57.594 212.676,57.462 213.502 C 57.330 214.328,56.857 215.316,56.411 215.698 C 55.965 216.080,55.600 216.649,55.600 216.962 C 55.600 218.182,47.529 226.400,46.331 226.400 C 45.915 226.400,45.475 226.661,45.352 226.981 C 45.230 227.300,44.470 227.773,43.665 228.031 C 42.859 228.290,41.925 228.740,41.590 229.032 C 41.254 229.323,40.174 229.686,39.190 229.837 C 38.205 229.988,36.860 230.401,36.200 230.756 C 34.480 231.679,25.128 231.667,23.400 230.739 C 22.740 230.385,21.390 229.960,20.400 229.796 C 19.410 229.632,18.171 229.161,17.646 228.749 C 17.121 228.337,16.384 228.000,16.008 228.000 C 15.632 228.000,14.998 227.640,14.600 227.200 C 14.202 226.760,13.707 226.400,13.501 226.400 C 12.669 226.400,8.301 222.513,6.297 219.989 C 5.690 219.225,4.745 218.034,4.197 217.342 C 3.649 216.650,3.200 215.820,3.200 215.496 C 3.200 215.173,2.839 214.448,2.397 213.887 C 1.955 213.325,1.481 212.041,1.342 211.033 C 1.184 209.874,0.891 209.200,0.546 209.200 C 0.086 209.200,0.000 224.292,0.000 304.600 L 0.000 400.000 200.000 400.000 L 400.000 400.000 400.000 313.557 C 400.000 231.389,399.965 227.128,399.300 227.398 C 398.915 227.554,398.060 227.869,397.400 228.098 C 396.740 228.326,395.930 228.738,395.600 229.013 C 395.270 229.288,394.190 229.635,393.200 229.784 C 392.210 229.933,390.552 230.325,389.516 230.654 C 385.723 231.861,375.509 230.649,373.374 228.739 C 372.920 228.332,372.380 227.999,372.174 227.998 C 371.649 227.994,367.600 224.212,367.600 223.724 C 367.600 223.504,367.244 223.001,366.808 222.607 C 366.372 222.213,365.899 221.240,365.757 220.445 C 365.615 219.650,365.206 218.666,364.849 218.258 C 363.875 217.144,363.875 199.256,364.849 198.142 C 365.206 197.734,365.615 196.750,365.757 195.955 C 365.899 195.160,366.372 194.187,366.808 193.793 C 367.244 193.399,367.600 192.886,367.600 192.655 C 367.600 191.847,371.444 188.574,373.782 187.391 C 377.360 185.581,386.992 185.571,390.631 187.374 C 394.430 189.256,398.005 193.278,398.845 196.615 C 399.093 197.597,399.454 198.400,399.647 198.400 C 399.850 198.400,400.000 156.158,400.000 99.200 L 400.000 0.000 200.000 0.000 L 0.000 0.000 0.000 96.200 M165.086 169.595 C 165.912 170.038,167.064 170.400,167.645 170.400 C 168.226 170.400,168.929 170.673,169.206 171.007 C 169.483 171.341,170.315 171.902,171.055 172.253 C 172.398 172.890,172.990 174.788,172.031 175.381 C 171.827 175.507,171.375 176.470,171.026 177.521 C 169.903 180.904,167.596 181.424,164.751 178.936 C 164.284 178.528,162.904 178.359,159.816 178.334 L 155.530 178.299 154.395 179.542 C 153.562 180.453,153.186 181.372,152.984 182.986 C 152.538 186.557,152.208 186.400,160.187 186.400 C 168.903 186.400,168.803 186.343,168.794 191.300 C 168.785 196.024,169.178 195.782,161.315 195.906 C 157.622 195.964,154.195 196.102,153.700 196.213 L 152.800 196.415 152.800 212.585 L 152.800 228.755 151.911 229.377 C 150.700 230.226,144.317 230.264,143.622 229.427 C 143.263 228.994,143.177 222.655,143.273 203.460 L 143.400 178.066 144.300 176.849 C 144.795 176.180,145.200 175.422,145.200 175.165 C 145.200 174.320,149.659 170.450,150.950 170.175 C 151.638 170.028,152.441 169.713,152.735 169.476 C 154.339 168.181,162.596 168.261,165.086 169.595 M33.174 169.900 C 36.880 171.964,38.175 176.399,36.067 179.800 C 33.817 183.430,33.549 184.044,33.527 185.630 C 33.507 187.119,35.102 190.000,35.948 190.000 C 37.293 190.000,41.035 194.848,41.417 197.088 C 41.560 197.919,41.878 199.192,42.124 199.916 C 42.449 200.870,42.452 201.425,42.136 201.931 C 41.895 202.316,41.564 203.434,41.398 204.415 C 40.780 208.088,37.718 211.106,32.936 212.757 L 30.165 213.714 27.047 212.788 C 16.418 209.633,14.239 197.762,23.009 190.793 C 26.870 187.725,27.369 185.298,24.807 182.056 C 22.450 179.074,21.852 173.575,23.736 172.197 C 24.101 171.930,24.403 171.552,24.406 171.356 C 24.439 169.321,30.368 168.337,33.174 169.900 M85.639 169.875 C 89.816 171.948,90.721 176.149,87.639 179.162 C 85.298 181.451,81.125 181.159,79.052 178.562 C 75.572 174.199,80.705 167.428,85.639 169.875 M253.381 169.569 C 253.506 169.772,254.149 170.057,254.808 170.202 C 255.467 170.347,256.215 170.855,256.469 171.333 C 256.723 171.810,257.206 172.403,257.542 172.651 C 257.956 172.956,258.154 173.780,258.154 175.200 C 258.154 176.620,257.956 177.444,257.542 177.749 C 257.206 177.997,256.732 178.573,256.489 179.030 C 254.347 183.052,246.800 180.084,246.800 175.220 C 246.800 171.630,251.932 167.224,253.381 169.569 M309.235 169.890 C 310.632 170.386,311.305 170.888,311.632 171.677 C 311.882 172.280,312.337 172.981,312.643 173.236 C 313.418 173.879,313.339 176.102,312.500 177.251 C 312.115 177.778,311.609 178.554,311.375 178.975 C 310.840 179.940,306.813 181.373,306.242 180.802 C 306.021 180.581,305.527 180.400,305.145 180.400 C 300.716 180.400,300.390 171.940,304.746 170.063 C 307.073 169.061,306.918 169.067,309.235 169.890 M184.139 170.749 C 184.740 171.248,184.800 173.405,184.800 194.352 C 184.800 217.824,184.886 219.286,186.361 220.761 C 187.305 221.705,191.413 221.955,193.423 221.191 C 194.811 220.664,195.449 221.183,196.072 223.347 C 196.334 224.256,196.785 225.355,197.074 225.789 C 198.290 227.613,197.295 229.372,194.774 229.852 C 194.018 229.996,192.914 230.359,192.320 230.657 C 188.534 232.560,178.466 229.357,177.369 225.901 C 177.214 225.414,176.708 224.502,176.244 223.875 C 175.009 222.205,174.658 171.393,175.876 170.484 C 176.840 169.763,183.198 169.967,184.139 170.749 M276.026 174.414 C 276.734 174.793,276.800 175.300,276.800 180.371 C 276.800 187.029,275.924 186.400,285.204 186.400 C 293.972 186.400,293.600 186.178,293.600 191.414 C 293.600 196.175,293.919 195.998,285.326 196.005 C 275.733 196.013,276.797 194.845,276.815 205.347 C 276.839 220.152,277.438 221.600,283.536 221.600 C 286.241 221.600,287.385 221.419,288.600 220.800 C 289.463 220.360,290.379 220.000,290.636 220.000 C 290.892 220.000,291.326 219.730,291.600 219.400 C 292.663 218.120,294.785 219.359,295.368 221.600 C 295.511 222.150,295.815 223.230,296.044 224.000 C 296.622 225.947,295.986 227.428,294.263 228.148 C 293.512 228.462,292.785 228.901,292.647 229.124 C 292.509 229.348,291.632 229.652,290.698 229.801 C 289.764 229.950,288.229 230.325,287.286 230.636 C 285.084 231.361,279.898 231.371,278.480 230.653 C 277.886 230.353,276.680 229.976,275.800 229.817 C 274.920 229.658,273.930 229.282,273.600 228.982 C 271.040 226.657,269.600 225.131,269.600 224.744 C 269.600 224.493,269.323 224.086,268.985 223.838 C 267.149 222.496,266.116 175.471,267.900 174.432 C 268.819 173.897,275.034 173.883,276.026 174.414 M125.144 187.609 C 127.649 188.886,132.000 192.809,132.000 193.790 C 132.000 194.066,132.354 194.742,132.787 195.292 C 133.219 195.842,133.691 197.082,133.834 198.046 C 133.977 199.011,134.388 200.250,134.747 200.800 C 135.603 202.111,136.008 228.427,135.187 229.415 C 134.365 230.406,126.559 230.245,126.014 229.226 C 125.752 228.737,125.600 223.532,125.600 215.075 C 125.600 203.938,125.504 201.618,125.026 201.221 C 124.710 200.959,124.328 200.172,124.176 199.472 C 123.909 198.234,121.887 196.002,121.028 195.998 C 120.793 195.996,120.081 195.724,119.447 195.394 C 117.037 194.137,111.007 194.555,108.900 196.125 C 108.514 196.413,108.400 200.231,108.400 212.835 C 108.400 231.826,108.942 230.000,103.306 230.000 C 98.359 230.000,98.799 231.973,98.806 209.820 C 98.813 188.229,98.721 188.938,101.604 188.129 C 102.592 187.852,103.760 187.405,104.200 187.135 C 106.919 185.468,121.596 185.800,125.144 187.609 M88.099 188.000 C 89.141 190.086,89.177 228.121,88.138 229.269 C 87.224 230.278,80.408 230.350,79.418 229.361 C 78.846 228.789,78.791 226.554,78.890 208.129 C 79.019 184.040,78.485 186.301,83.996 186.486 L 87.400 186.600 88.099 188.000 M209.883 187.600 C 210.259 188.343,210.390 191.945,210.394 201.636 L 210.400 214.672 211.631 217.136 C 212.308 218.491,212.985 219.600,213.135 219.600 C 213.285 219.600,213.942 220.095,214.595 220.700 C 215.810 221.825,226.076 222.457,227.067 221.467 C 227.250 221.284,227.490 213.549,227.600 204.279 L 227.800 187.423 228.800 186.917 C 230.292 186.163,235.784 186.241,236.571 187.029 C 237.126 187.583,237.200 190.006,237.200 207.623 L 237.200 227.589 235.849 228.154 C 235.106 228.464,234.385 228.900,234.248 229.122 C 234.111 229.344,233.058 229.654,231.908 229.813 C 230.757 229.971,229.093 230.367,228.208 230.693 C 225.653 231.635,217.422 231.840,215.200 231.017 C 214.210 230.651,212.809 230.172,212.087 229.953 C 210.544 229.486,207.200 227.308,207.200 226.772 C 207.200 226.567,206.924 226.400,206.587 226.400 C 206.251 226.400,205.859 226.099,205.718 225.731 C 205.577 225.362,205.211 224.777,204.906 224.431 C 203.635 222.988,202.496 220.834,202.227 219.366 C 202.070 218.505,201.639 217.350,201.270 216.800 C 200.308 215.364,200.242 187.403,201.200 186.784 C 202.599 185.881,209.335 186.514,209.883 187.600 M256.026 186.814 C 257.116 187.397,257.254 229.340,256.167 229.757 C 254.664 230.334,248.901 230.010,248.031 229.300 L 247.173 228.600 247.287 208.264 L 247.400 187.929 248.344 187.164 C 249.414 186.299,254.619 186.061,256.026 186.814 M311.159 186.950 C 311.644 187.535,311.872 228.836,311.394 229.609 C 310.967 230.301,303.352 230.095,302.629 229.371 C 302.074 228.817,302.000 226.435,302.000 209.221 C 302.000 188.285,302.059 187.316,303.357 186.791 C 304.802 186.208,310.641 186.326,311.159 186.950 M326.836 187.544 C 327.256 188.064,327.600 188.894,327.600 189.390 C 327.600 189.886,327.945 190.731,328.367 191.267 C 328.789 191.804,329.265 192.953,329.425 193.821 C 329.585 194.690,330.050 195.829,330.458 196.354 C 330.866 196.879,331.206 197.689,331.213 198.154 C 331.219 198.619,331.668 199.900,332.209 201.000 C 332.750 202.100,333.194 203.383,333.196 203.851 C 333.198 204.319,333.450 204.910,333.756 205.163 C 334.061 205.417,334.525 206.474,334.786 207.512 C 335.047 208.550,335.492 209.670,335.776 210.000 C 336.060 210.330,336.398 211.297,336.529 212.150 C 336.659 213.002,337.041 214.004,337.378 214.376 C 337.715 214.748,338.105 215.623,338.244 216.320 C 338.555 217.873,339.023 217.670,339.367 215.834 C 339.509 215.077,339.804 214.399,340.023 214.326 C 340.242 214.253,340.678 213.220,340.992 212.032 C 341.305 210.843,341.728 209.765,341.931 209.635 C 342.133 209.506,342.432 208.770,342.593 208.000 C 342.755 207.230,343.208 205.970,343.600 205.200 C 343.993 204.430,344.520 203.035,344.773 202.100 C 345.025 201.165,345.389 200.400,345.581 200.400 C 345.773 200.400,346.058 199.643,346.214 198.717 C 346.370 197.792,346.819 196.577,347.212 196.017 C 347.604 195.458,348.037 194.343,348.173 193.540 C 348.310 192.737,348.686 191.860,349.011 191.591 C 349.335 191.322,349.600 190.755,349.600 190.331 C 349.600 187.537,351.363 186.400,355.697 186.400 C 359.483 186.400,360.773 186.936,360.106 188.232 C 359.889 188.654,359.607 189.677,359.480 190.504 C 359.353 191.331,358.984 192.273,358.661 192.596 C 358.338 192.920,357.953 193.897,357.805 194.769 C 357.658 195.641,357.286 196.562,356.979 196.817 C 356.672 197.072,356.310 197.937,356.173 198.740 C 356.037 199.543,355.582 200.688,355.163 201.284 C 354.743 201.880,354.399 202.780,354.398 203.284 C 354.397 203.788,353.952 204.920,353.410 205.800 C 352.868 206.680,352.419 207.873,352.412 208.451 C 352.406 209.029,352.150 209.710,351.844 209.963 C 351.539 210.217,351.075 211.274,350.814 212.312 C 350.553 213.350,350.103 214.470,349.814 214.800 C 349.525 215.130,349.159 216.030,349.000 216.800 C 348.841 217.570,348.471 218.473,348.179 218.806 C 347.886 219.139,347.472 220.187,347.259 221.135 C 347.046 222.082,346.606 223.159,346.281 223.529 C 345.955 223.898,345.562 224.830,345.407 225.600 C 345.252 226.370,344.667 227.675,344.108 228.500 L 343.091 230.000 338.978 230.000 C 334.596 230.000,333.600 229.816,333.600 229.006 C 333.600 228.727,333.335 228.278,333.011 228.009 C 332.686 227.740,332.310 226.863,332.173 226.060 C 332.037 225.257,331.582 224.112,331.163 223.516 C 330.743 222.920,330.400 222.109,330.400 221.713 C 330.400 221.317,329.950 220.148,329.400 219.115 C 328.850 218.082,328.400 216.935,328.400 216.566 C 328.400 216.196,328.059 215.333,327.643 214.647 C 327.227 213.961,326.755 212.780,326.594 212.023 C 326.434 211.265,326.076 210.419,325.799 210.142 C 325.523 209.866,325.170 208.965,325.015 208.141 C 324.861 207.317,324.389 206.204,323.967 205.667 C 323.545 205.131,323.200 204.201,323.200 203.600 C 323.200 202.999,322.855 202.069,322.433 201.533 C 322.011 200.996,321.534 199.856,321.373 198.998 C 321.212 198.140,320.748 197.081,320.340 196.644 C 319.933 196.207,319.600 195.409,319.600 194.872 C 319.600 194.334,319.239 193.310,318.797 192.595 C 317.541 190.563,317.078 187.530,317.922 186.872 C 319.187 185.887,325.904 186.393,326.836 187.544 M380.600 194.758 C 378.592 195.457,376.000 196.807,376.000 197.155 C 376.000 197.366,375.577 198.047,375.060 198.669 C 374.090 199.837,373.417 202.657,373.843 203.768 C 374.258 204.849,390.249 204.705,390.594 203.617 C 390.935 202.543,390.437 200.129,389.758 199.565 C 389.451 199.310,389.200 198.888,389.200 198.626 C 389.200 196.684,383.035 193.911,380.600 194.758 M374.056 212.357 C 372.524 213.328,375.247 218.905,377.883 220.194 C 378.589 220.539,379.274 220.997,379.407 221.211 C 379.802 221.850,389.468 221.701,390.514 221.039 C 391.001 220.731,392.030 220.353,392.800 220.200 C 393.570 220.047,394.599 219.669,395.086 219.361 C 397.068 218.106,398.443 219.075,398.973 222.100 C 399.542 225.345,400.000 223.429,400.000 217.800 L 400.000 212.000 387.300 212.006 C 380.315 212.009,374.355 212.167,374.056 212.357 " stroke="none" fill="#fbfbfb" fill-rule="evenodd"></path><path id="path1" d="M156.675 170.046 C 156.276 170.278,154.859 170.622,153.526 170.811 C 151.996 171.027,150.778 171.457,150.225 171.977 C 149.743 172.429,149.175 172.800,148.963 172.800 C 148.498 172.800,146.400 175.132,146.400 175.648 C 146.400 175.850,145.949 176.878,145.397 177.933 L 144.394 179.852 144.497 204.426 L 144.600 229.000 147.200 229.039 C 151.663 229.105,151.200 231.057,151.200 212.187 C 151.200 192.540,150.092 194.800,159.727 194.800 L 166.707 194.800 166.895 192.100 C 167.175 188.104,167.489 188.279,160.153 188.357 C 151.873 188.445,151.200 188.136,151.200 184.255 C 151.200 182.470,151.381 181.548,151.800 181.200 C 152.130 180.926,152.400 180.478,152.400 180.205 C 152.400 177.777,157.573 175.906,161.437 176.935 C 162.809 177.301,164.279 177.600,164.703 177.600 C 165.128 177.600,165.999 178.050,166.638 178.600 C 168.061 179.824,168.247 179.833,168.849 178.708 C 169.112 178.218,169.568 177.575,169.863 177.280 C 170.158 176.984,170.427 176.126,170.460 175.371 C 170.493 174.617,170.538 173.783,170.560 173.518 C 170.582 173.253,170.240 172.938,169.800 172.818 C 169.360 172.698,168.542 172.288,167.981 171.907 C 167.421 171.526,165.536 171.016,163.792 170.774 C 162.048 170.531,160.313 170.168,159.937 169.966 C 159.037 169.485,157.579 169.520,156.675 170.046 M81.300 171.212 C 80.805 171.411,80.400 171.828,80.400 172.138 C 80.400 172.448,80.130 172.926,79.800 173.200 C 78.244 174.491,79.937 178.957,82.114 179.306 C 86.793 180.055,89.907 176.198,87.384 172.778 C 85.960 170.847,83.673 170.259,81.300 171.212 M176.619 171.114 C 175.946 171.787,176.411 221.438,177.100 222.411 C 177.485 222.955,177.980 223.922,178.200 224.561 C 178.420 225.200,179.469 226.456,180.530 227.353 L 182.460 228.982 186.635 229.137 C 195.088 229.449,196.062 229.014,195.278 225.275 C 194.688 222.463,194.924 222.599,190.854 222.729 C 186.781 222.858,185.371 222.440,184.718 220.908 C 184.458 220.299,183.965 219.466,183.623 219.058 C 183.077 218.408,182.989 215.424,182.913 194.904 C 182.865 182.028,182.717 171.384,182.584 171.250 C 182.276 170.943,176.913 170.821,176.619 171.114 M248.982 172.300 C 247.400 174.022,247.141 175.941,248.331 177.131 C 248.732 177.532,249.167 178.137,249.297 178.475 C 250.133 180.654,255.215 179.430,256.153 176.824 C 257.932 171.876,252.512 168.456,248.982 172.300 M303.823 172.100 C 301.553 174.653,302.811 178.992,305.891 179.234 C 310.326 179.582,312.544 176.586,310.756 172.663 C 309.719 170.386,305.640 170.055,303.823 172.100 M15.964 175.356 C 15.464 175.930,14.726 176.400,14.323 176.400 C 13.588 176.400,11.647 178.004,8.756 181.000 C 7.907 181.880,6.849 182.966,6.406 183.414 C 5.963 183.862,5.600 184.447,5.600 184.714 C 5.600 184.981,5.245 185.555,4.810 185.990 C 4.376 186.424,3.902 187.279,3.756 187.890 C 3.611 188.500,3.266 189.270,2.990 189.600 C 2.713 189.930,2.365 191.010,2.216 192.000 C 1.795 194.790,1.192 196.400,0.569 196.400 C 0.113 196.400,0.000 197.235,0.000 200.600 C 0.000 203.965,0.113 204.800,0.569 204.800 C 1.216 204.800,1.812 206.477,2.203 209.400 C 2.351 210.500,2.702 211.670,2.985 212.000 C 3.268 212.330,3.716 213.275,3.980 214.100 C 4.245 214.925,4.610 215.600,4.792 215.600 C 4.973 215.600,5.305 216.126,5.529 216.768 C 5.753 217.410,6.265 218.298,6.668 218.739 C 7.071 219.181,7.606 219.781,7.858 220.071 C 9.362 221.808,13.098 224.965,14.186 225.420 C 14.889 225.713,15.681 226.215,15.946 226.535 C 16.211 226.855,17.078 227.238,17.872 227.387 C 18.666 227.536,19.559 227.902,19.857 228.200 C 20.155 228.498,21.435 228.860,22.700 229.004 C 23.965 229.148,26.160 229.545,27.577 229.886 C 29.540 230.358,30.445 230.403,31.377 230.077 C 32.050 229.841,34.130 229.435,36.000 229.175 C 37.870 228.915,39.670 228.485,40.000 228.220 C 40.330 227.955,41.375 227.517,42.321 227.247 C 43.268 226.976,44.142 226.495,44.264 226.178 C 44.386 225.860,44.723 225.600,45.012 225.600 C 45.302 225.600,46.073 225.150,46.727 224.600 C 47.381 224.050,48.033 223.600,48.176 223.600 C 49.085 223.600,55.176 216.048,55.193 214.900 C 55.197 214.625,55.358 214.400,55.551 214.400 C 55.936 214.400,56.585 212.877,56.999 211.004 C 57.145 210.346,57.474 209.678,57.732 209.519 C 58.504 209.043,58.617 193.790,57.857 192.630 C 57.531 192.134,57.053 190.940,56.794 189.978 C 56.535 189.016,55.980 187.793,55.561 187.260 C 55.143 186.728,54.800 186.041,54.800 185.734 C 54.800 185.426,54.537 185.074,54.215 184.950 C 53.894 184.827,53.513 184.355,53.369 183.902 C 53.225 183.448,52.228 182.212,51.154 181.154 C 50.079 180.097,49.200 179.044,49.200 178.816 C 49.200 178.587,48.862 178.400,48.449 178.400 C 48.036 178.400,47.470 178.125,47.191 177.789 C 45.123 175.297,41.341 174.007,41.725 175.925 C 41.849 176.543,41.792 177.747,41.600 178.600 C 41.168 180.515,41.505 182.400,42.280 182.400 C 43.134 182.400,47.625 186.801,48.231 188.232 C 48.519 188.909,49.023 189.687,49.351 189.959 C 49.680 190.232,50.074 191.025,50.227 191.722 C 50.380 192.418,50.796 193.433,51.152 193.976 C 52.105 195.430,52.106 207.163,51.154 208.258 C 50.798 208.666,50.398 209.462,50.265 210.026 C 50.131 210.591,49.657 211.473,49.211 211.987 C 48.765 212.502,48.400 213.133,48.400 213.390 C 48.400 214.026,43.262 219.200,42.630 219.200 C 42.351 219.200,41.798 219.560,41.400 220.000 C 41.002 220.440,40.368 220.800,39.992 220.800 C 39.616 220.800,38.871 221.143,38.338 221.563 C 35.947 223.443,23.650 223.441,21.258 221.560 C 20.727 221.142,19.972 220.800,19.580 220.800 C 18.928 220.800,17.915 220.104,15.988 218.330 C 15.588 217.962,14.887 217.461,14.430 217.216 C 13.974 216.972,13.600 216.508,13.600 216.186 C 13.600 215.864,13.375 215.599,13.100 215.597 C 12.168 215.593,8.942 209.889,8.577 207.600 C 8.419 206.610,8.045 205.445,7.745 205.011 C 6.969 203.888,7.001 197.616,7.787 196.576 C 8.110 196.149,8.381 195.350,8.389 194.800 C 8.404 193.732,10.307 189.605,11.487 188.079 C 12.616 186.621,16.209 183.042,17.016 182.572 C 17.656 182.199,17.739 181.678,17.654 178.572 C 17.542 174.473,17.236 173.892,15.964 175.356 M269.067 175.467 C 268.325 176.209,268.785 221.073,269.545 222.046 C 269.955 222.571,270.414 223.396,270.565 223.880 C 270.881 224.887,272.930 227.200,273.507 227.200 C 273.719 227.200,274.360 227.568,274.932 228.018 C 276.969 229.620,289.421 229.801,291.147 228.253 C 291.506 227.931,292.430 227.507,293.200 227.310 C 294.545 226.967,294.605 226.873,294.719 224.930 C 294.937 221.218,292.512 219.541,290.093 221.731 C 287.614 223.976,276.800 222.451,276.800 219.857 C 276.800 219.640,276.489 219.120,276.110 218.700 C 275.073 217.554,274.766 197.322,275.762 195.801 L 276.418 194.800 283.959 194.800 L 291.500 194.800 291.750 193.550 C 292.760 188.498,292.619 188.400,284.347 188.400 C 275.126 188.400,274.892 188.200,275.288 180.642 C 275.562 175.391,275.450 175.200,272.080 175.200 C 270.569 175.200,269.213 175.320,269.067 175.467 M111.200 187.171 C 109.770 187.337,107.739 187.771,106.686 188.136 C 105.633 188.501,104.176 188.800,103.448 188.800 C 102.652 188.800,101.707 189.159,101.077 189.700 L 100.030 190.600 99.915 209.705 C 99.814 226.418,99.875 228.829,100.400 228.959 C 100.920 229.089,105.848 229.003,106.400 228.854 C 106.510 228.825,106.543 221.749,106.474 213.130 C 106.332 195.409,106.253 196.178,108.360 194.700 C 110.669 193.080,119.042 193.016,121.222 194.602 C 123.830 196.500,124.800 197.392,124.800 197.896 C 124.800 198.173,125.205 198.805,125.700 199.300 C 126.594 200.194,126.601 200.287,126.731 214.461 L 126.861 228.722 128.131 228.949 C 129.370 229.171,133.977 229.008,134.145 228.736 C 134.947 227.443,133.230 198.340,132.290 197.297 C 131.945 196.914,131.534 196.087,131.378 195.461 C 130.993 193.920,125.845 188.800,124.680 188.800 C 124.190 188.800,123.146 188.456,122.361 188.035 C 120.678 187.133,115.193 186.709,111.200 187.171 M378.319 187.186 C 377.284 187.374,376.029 187.814,375.530 188.164 C 375.031 188.514,374.253 188.800,373.802 188.800 C 372.908 188.800,368.400 192.763,368.400 193.548 C 368.400 193.815,368.042 194.520,367.603 195.116 C 367.165 195.712,366.649 197.053,366.456 198.096 C 366.263 199.139,365.856 200.291,365.552 200.657 C 364.643 201.753,364.768 214.672,365.700 215.989 C 366.085 216.533,366.400 217.481,366.400 218.097 C 366.400 220.018,369.859 225.600,371.050 225.600 C 371.247 225.600,371.632 225.960,371.907 226.400 C 372.182 226.840,372.741 227.200,373.149 227.200 C 373.558 227.200,374.354 227.563,374.919 228.008 C 377.126 229.744,392.155 229.869,394.036 228.167 C 394.402 227.837,395.367 227.458,396.182 227.325 C 398.105 227.013,398.528 225.970,397.933 223.006 L 397.490 220.800 395.671 220.800 C 394.335 220.800,393.597 221.039,392.894 221.700 C 391.979 222.559,391.633 222.600,385.245 222.600 L 378.555 222.600 377.177 221.494 C 375.076 219.807,375.056 219.788,374.175 218.664 C 373.721 218.085,373.110 216.410,372.818 214.942 C 372.035 211.001,371.287 211.200,386.876 211.200 L 400.000 211.200 400.000 207.400 C 400.000 204.231,399.877 203.477,399.257 202.857 C 398.774 202.374,398.350 201.012,398.046 198.967 C 397.770 197.110,397.349 195.692,397.020 195.507 C 396.714 195.336,396.344 194.655,396.199 193.994 C 396.054 193.334,395.590 192.609,395.167 192.383 C 394.745 192.157,394.400 191.737,394.400 191.450 C 394.400 191.163,393.950 190.723,393.400 190.473 C 392.850 190.222,392.400 189.848,392.400 189.640 C 392.400 189.433,391.815 189.140,391.100 188.989 C 390.385 188.837,389.254 188.383,388.587 187.978 C 387.152 187.108,381.253 186.653,378.319 187.186 M80.569 188.450 C 80.331 188.836,80.343 228.384,80.581 228.769 C 80.747 229.038,85.582 229.105,86.900 228.857 C 87.326 228.776,87.262 189.517,86.834 188.842 C 86.474 188.272,80.894 187.924,80.569 188.450 M232.400 188.369 L 229.800 188.600 229.600 204.886 C 229.431 218.647,229.307 221.264,228.800 221.765 C 226.667 223.872,214.070 223.712,213.390 221.570 C 213.263 221.169,212.817 220.733,212.400 220.600 C 211.983 220.467,211.516 219.967,211.364 219.487 C 211.212 219.008,210.708 218.102,210.244 217.475 C 209.434 216.380,209.392 215.783,209.200 202.467 L 209.000 188.600 206.208 188.480 C 204.673 188.413,203.003 188.463,202.496 188.590 L 201.576 188.821 201.699 200.111 C 201.774 207.087,202.008 212.241,202.310 213.600 C 202.580 214.810,202.901 216.653,203.024 217.695 C 203.147 218.738,203.514 219.857,203.840 220.183 C 204.167 220.509,204.633 221.348,204.876 222.047 C 205.325 223.335,208.798 227.200,209.506 227.200 C 209.719 227.200,210.340 227.552,210.887 227.983 C 211.767 228.675,213.409 229.073,220.290 230.262 C 221.000 230.385,222.170 230.280,222.890 230.028 C 223.611 229.777,225.994 229.387,228.188 229.162 C 230.381 228.937,232.431 228.538,232.744 228.276 C 233.057 228.014,233.963 227.614,234.756 227.387 L 236.200 226.974 236.304 208.268 C 236.403 190.468,236.270 187.831,235.286 188.069 C 235.129 188.107,233.830 188.242,232.400 188.369 M249.374 188.993 C 249.266 189.437,249.228 198.620,249.289 209.400 L 249.400 229.000 252.291 229.029 C 253.880 229.046,255.320 228.956,255.491 228.829 C 255.661 228.703,255.710 219.532,255.600 208.450 L 255.400 188.299 252.484 188.242 C 249.866 188.191,249.549 188.268,249.374 188.993 M306.800 188.369 L 304.200 188.600 304.000 208.400 C 303.772 230.939,303.439 229.073,307.680 229.030 L 310.600 229.000 310.711 209.400 C 310.823 189.483,310.765 187.947,309.892 188.069 C 309.622 188.107,308.230 188.242,306.800 188.369 M318.894 188.733 C 318.766 189.066,319.053 190.017,319.531 190.848 C 320.009 191.679,320.400 192.794,320.400 193.325 C 320.400 193.857,320.737 194.721,321.148 195.246 C 321.559 195.771,322.029 196.830,322.192 197.600 C 322.356 198.370,322.729 199.273,323.021 199.606 C 323.314 199.939,323.728 200.987,323.941 201.935 C 324.154 202.882,324.614 203.974,324.964 204.360 C 325.314 204.747,325.600 205.520,325.600 206.078 C 325.600 206.636,325.945 207.531,326.367 208.067 C 326.789 208.604,327.261 209.753,327.417 210.621 C 327.572 211.490,328.013 212.560,328.397 213.000 C 328.780 213.440,329.200 214.497,329.330 215.350 C 329.460 216.202,329.841 217.204,330.178 217.576 C 330.515 217.948,330.913 218.871,331.062 219.626 C 331.211 220.382,331.647 221.450,332.029 222.000 C 332.412 222.550,332.837 223.657,332.973 224.460 C 333.110 225.263,333.486 226.140,333.811 226.409 C 334.135 226.678,334.400 227.326,334.400 227.849 C 334.400 228.372,334.535 228.819,334.700 228.842 C 339.492 229.508,343.200 228.879,343.200 227.400 C 343.200 226.904,343.470 226.274,343.800 226.000 C 344.130 225.726,344.400 225.191,344.400 224.811 C 344.400 224.430,344.850 223.273,345.400 222.238 C 345.950 221.204,346.400 219.941,346.400 219.433 C 346.400 218.924,346.745 218.069,347.167 217.533 C 347.589 216.996,348.058 215.898,348.209 215.093 C 348.360 214.288,348.721 213.432,349.011 213.191 C 349.300 212.951,349.656 212.050,349.802 211.189 C 349.947 210.328,350.411 209.185,350.833 208.649 C 351.255 208.113,351.600 207.306,351.600 206.856 C 351.600 205.875,352.407 204.000,352.829 204.000 C 352.994 204.000,353.255 203.235,353.408 202.300 C 353.562 201.365,353.954 200.298,354.280 199.929 C 354.606 199.559,355.046 198.482,355.259 197.535 C 355.472 196.587,355.895 195.537,356.200 195.200 C 356.505 194.863,356.923 193.834,357.130 192.912 C 357.337 191.990,357.798 190.945,358.153 190.589 C 359.886 188.857,358.758 188.109,354.866 188.407 C 351.256 188.684,350.984 188.860,350.555 191.200 C 350.414 191.970,350.062 192.873,349.772 193.206 C 349.483 193.539,349.072 194.587,348.859 195.535 C 348.646 196.482,348.210 197.559,347.890 197.929 C 347.570 198.298,347.205 199.278,347.078 200.106 C 346.952 200.935,346.477 202.084,346.024 202.660 C 345.571 203.236,345.200 204.199,345.200 204.800 C 345.200 205.401,344.863 206.321,344.451 206.846 C 344.039 207.371,343.575 208.555,343.420 209.477 C 343.265 210.399,342.893 211.357,342.594 211.605 C 342.296 211.852,341.940 212.628,341.803 213.328 C 340.920 217.853,338.136 220.602,337.405 217.671 C 337.258 217.082,336.874 216.307,336.552 215.950 C 336.229 215.592,335.859 214.602,335.729 213.750 C 335.598 212.897,335.230 211.898,334.910 211.529 C 334.590 211.159,334.154 210.082,333.941 209.135 C 333.728 208.187,333.317 207.139,333.028 206.806 C 332.738 206.473,332.374 205.490,332.218 204.621 C 332.062 203.753,331.589 202.604,331.167 202.067 C 330.745 201.531,330.400 200.676,330.400 200.167 C 330.400 199.659,329.950 198.396,329.400 197.362 C 328.850 196.327,328.400 195.080,328.400 194.589 C 328.400 194.099,328.142 193.483,327.826 193.221 C 327.510 192.959,327.136 192.172,326.996 191.472 C 326.409 188.553,326.509 188.610,321.463 188.281 C 319.646 188.162,319.074 188.263,318.894 188.733 M387.197 194.700 C 388.296 195.305,389.288 196.083,389.402 196.429 C 389.516 196.776,390.012 197.491,390.505 198.020 C 391.238 198.807,391.426 199.544,391.543 202.098 C 391.750 206.627,392.247 206.400,382.145 206.400 L 373.587 206.400 372.960 205.084 C 371.892 202.846,373.213 197.901,375.400 195.944 C 378.442 193.223,383.538 192.685,387.197 194.700 " stroke="none" fill="#4a434d" fill-rule="evenodd"></path><path id="path2" d="M27.600 170.359 C 24.418 171.511,23.435 172.902,23.416 176.283 C 23.404 178.418,23.561 179.299,24.023 179.683 C 26.832 182.017,27.993 186.948,26.167 188.789 C 25.745 189.214,25.192 189.795,24.937 190.081 C 24.682 190.366,24.000 190.960,23.421 191.400 C 22.842 191.840,22.151 192.434,21.884 192.719 C 21.618 193.005,21.109 193.545,20.753 193.919 C 20.397 194.294,19.881 195.320,19.605 196.200 C 19.329 197.080,18.945 197.971,18.752 198.180 C 18.167 198.812,18.363 203.317,19.013 204.176 C 19.336 204.604,19.600 205.254,19.600 205.621 C 19.600 206.492,21.847 209.317,22.834 209.687 C 23.255 209.845,23.600 210.131,23.600 210.323 C 23.600 211.366,28.688 212.256,32.169 211.821 C 41.728 210.627,44.381 197.694,36.363 191.380 C 31.494 187.546,31.099 185.092,34.645 180.714 C 36.339 178.623,36.343 174.108,34.653 172.143 C 34.012 171.398,29.527 169.266,29.415 169.653 C 29.407 169.683,28.590 170.000,27.600 170.359 " stroke="none" fill="#439cad" fill-rule="evenodd"></path><path id="path3" d="M154.935 168.746 C 154.019 168.910,153.029 169.239,152.735 169.476 C 152.441 169.713,151.638 170.028,150.950 170.175 C 149.659 170.450,145.200 174.320,145.200 175.165 C 145.200 175.422,144.795 176.180,144.300 176.849 L 143.400 178.066 143.273 203.460 C 143.177 222.655,143.263 228.994,143.622 229.427 C 144.317 230.264,150.700 230.226,151.911 229.377 L 152.800 228.755 152.800 212.585 L 152.800 196.415 153.700 196.213 C 154.195 196.102,157.622 195.964,161.315 195.906 C 169.178 195.782,168.785 196.024,168.794 191.300 C 168.803 186.343,168.903 186.400,160.187 186.400 C 152.208 186.400,152.538 186.557,152.984 182.986 C 153.186 181.372,153.562 180.453,154.395 179.542 L 155.530 178.299 159.816 178.334 C 162.904 178.359,164.284 178.528,164.751 178.936 C 167.596 181.424,169.903 180.904,171.026 177.521 C 171.375 176.470,171.827 175.507,172.031 175.381 C 172.990 174.788,172.398 172.890,171.055 172.253 C 170.315 171.902,169.483 171.341,169.206 171.007 C 168.929 170.673,168.226 170.400,167.645 170.400 C 167.064 170.400,165.912 170.038,165.086 169.595 C 163.406 168.695,157.825 168.228,154.935 168.746 M26.306 169.924 C 25.264 170.516,24.409 171.160,24.406 171.356 C 24.403 171.552,24.101 171.930,23.736 172.197 C 21.852 173.575,22.450 179.074,24.807 182.056 C 27.369 185.298,26.870 187.725,23.009 190.793 C 14.239 197.762,16.418 209.633,27.047 212.788 L 30.165 213.714 32.936 212.757 C 37.718 211.106,40.780 208.088,41.398 204.415 C 41.564 203.434,41.895 202.316,42.136 201.931 C 42.452 201.425,42.449 200.870,42.124 199.916 C 41.878 199.192,41.560 197.919,41.417 197.088 C 41.035 194.848,37.293 190.000,35.948 190.000 C 35.102 190.000,33.507 187.119,33.527 185.630 C 33.549 184.044,33.817 183.430,36.067 179.800 C 39.866 173.671,32.619 166.339,26.306 169.924 M81.329 169.984 C 75.138 173.326,78.095 181.922,84.990 180.628 C 89.015 179.873,90.862 174.390,88.038 171.583 C 85.743 169.301,83.558 168.781,81.329 169.984 M164.285 170.067 C 166.218 170.544,168.070 171.153,168.400 171.419 C 168.730 171.686,169.570 172.192,170.266 172.544 L 171.531 173.185 171.041 175.293 C 169.980 179.855,168.436 180.793,165.507 178.657 C 164.623 178.012,163.588 177.826,160.068 177.681 C 154.882 177.468,153.734 178.110,152.367 181.992 C 150.657 186.848,151.175 187.200,160.040 187.200 C 167.978 187.200,167.812 187.109,167.776 191.431 C 167.741 195.708,167.944 195.600,159.925 195.600 C 150.485 195.600,151.548 193.445,151.623 212.432 C 151.696 230.982,152.020 229.600,147.600 229.600 C 143.146 229.600,143.521 232.054,143.670 203.923 L 143.800 179.400 144.927 177.105 C 146.409 174.086,149.160 171.353,151.322 170.753 C 152.245 170.497,153.720 170.051,154.600 169.763 C 156.970 168.986,160.331 169.092,164.285 170.067 M249.942 170.027 C 245.067 172.501,245.863 179.698,251.110 180.585 C 253.146 180.929,255.902 180.132,256.489 179.030 C 256.732 178.573,257.206 177.997,257.542 177.749 C 257.956 177.444,258.154 176.620,258.154 175.200 C 258.154 173.780,257.956 172.956,257.542 172.651 C 257.206 172.403,256.723 171.810,256.469 171.333 C 256.215 170.855,255.467 170.347,254.808 170.202 C 254.149 170.057,253.506 169.772,253.381 169.569 C 253.034 169.008,251.565 169.203,249.942 170.027 M304.746 170.063 C 300.390 171.940,300.716 180.400,305.145 180.400 C 305.527 180.400,306.021 180.581,306.242 180.802 C 306.813 181.373,310.840 179.940,311.375 178.975 C 311.609 178.554,312.115 177.778,312.500 177.251 C 313.339 176.102,313.418 173.879,312.643 173.236 C 312.337 172.981,311.882 172.280,311.632 171.677 C 310.776 169.610,307.551 168.855,304.746 170.063 M31.607 170.366 C 35.937 171.891,37.494 177.196,34.645 180.714 C 31.099 185.092,31.494 187.546,36.363 191.380 C 44.381 197.694,41.728 210.627,32.169 211.821 C 28.688 212.256,23.600 211.366,23.600 210.323 C 23.600 210.131,23.255 209.845,22.834 209.687 C 21.847 209.317,19.600 206.492,19.600 205.621 C 19.600 205.254,19.336 204.604,19.013 204.176 C 18.363 203.317,18.167 198.812,18.752 198.180 C 18.945 197.971,19.329 197.080,19.605 196.200 C 19.881 195.320,20.397 194.294,20.753 193.919 C 21.109 193.545,21.618 193.005,21.884 192.719 C 22.151 192.434,22.842 191.840,23.421 191.400 C 24.000 190.960,24.682 190.366,24.937 190.081 C 25.192 189.795,25.745 189.214,26.167 188.789 C 27.993 186.948,26.832 182.017,24.023 179.683 C 23.561 179.299,23.404 178.418,23.416 176.283 C 23.435 172.902,24.418 171.511,27.600 170.359 C 28.590 170.000,29.407 169.683,29.415 169.653 C 29.424 169.624,30.410 169.945,31.607 170.366 M175.876 170.484 C 174.658 171.393,175.009 222.205,176.244 223.875 C 176.708 224.502,177.214 225.414,177.369 225.901 C 178.466 229.357,188.534 232.560,192.320 230.657 C 192.914 230.359,194.018 229.996,194.774 229.852 C 197.295 229.372,198.290 227.613,197.074 225.789 C 196.785 225.355,196.334 224.256,196.072 223.347 C 195.449 221.183,194.811 220.664,193.423 221.191 C 191.413 221.955,187.305 221.705,186.361 220.761 C 184.886 219.286,184.800 217.824,184.800 194.352 C 184.800 173.405,184.740 171.248,184.139 170.749 C 183.198 169.967,176.840 169.763,175.876 170.484 M87.446 171.878 C 89.189 173.781,89.291 175.848,87.752 178.069 C 85.077 181.930,78.400 179.693,78.400 174.936 C 78.400 170.700,84.483 168.644,87.446 171.878 M182.943 170.909 C 183.591 171.383,183.637 172.971,183.610 193.744 C 183.572 222.781,183.425 222.200,190.813 222.200 C 195.292 222.200,195.287 222.197,195.991 225.266 C 196.798 228.779,196.487 229.106,191.488 230.004 C 184.921 231.184,179.581 228.889,177.000 223.777 L 175.800 221.400 175.675 196.471 C 175.581 177.697,175.668 171.401,176.024 170.971 C 176.640 170.229,181.948 170.182,182.943 170.909 M254.687 170.649 C 255.702 170.921,257.600 173.905,257.600 175.229 C 257.600 179.572,251.413 181.602,248.369 178.259 C 244.732 174.263,248.998 169.124,254.687 170.649 M309.938 170.906 C 310.453 171.178,311.243 172.260,311.693 173.311 C 313.793 178.215,307.727 182.326,303.758 178.690 C 299.297 174.601,304.503 168.042,309.938 170.906 M41.014 174.144 C 39.870 176.305,40.281 182.838,41.600 183.471 C 42.920 184.103,47.600 188.944,47.600 189.676 C 47.600 189.991,47.939 190.613,48.352 191.057 C 48.766 191.501,49.311 192.827,49.564 194.005 C 49.816 195.182,50.206 196.366,50.430 196.636 C 51.092 197.433,50.970 204.962,50.278 206.064 C 49.954 206.579,49.564 207.720,49.410 208.600 C 49.256 209.480,48.785 210.522,48.365 210.916 C 47.944 211.309,47.600 211.875,47.600 212.174 C 47.600 212.918,42.118 218.400,41.374 218.400 C 41.044 218.400,40.672 218.668,40.546 218.996 C 40.421 219.323,39.571 219.788,38.659 220.028 C 37.746 220.269,36.550 220.757,36.000 221.113 C 34.530 222.065,24.411 222.068,23.459 221.117 C 23.101 220.758,22.247 220.342,21.561 220.191 C 19.508 219.740,14.400 216.160,14.400 215.171 C 14.400 214.967,14.130 214.800,13.800 214.800 C 13.470 214.800,13.200 214.544,13.200 214.231 C 13.200 213.918,12.750 213.127,12.200 212.473 C 11.650 211.819,11.200 211.020,11.200 210.696 C 11.200 210.373,10.795 209.593,10.300 208.964 C 8.911 207.198,8.911 194.185,10.300 192.706 C 10.795 192.180,11.200 191.459,11.200 191.105 C 11.200 190.751,11.650 189.927,12.200 189.273 C 12.750 188.619,13.200 187.984,13.200 187.861 C 13.200 187.397,17.261 183.600,17.757 183.600 C 19.432 183.600,20.100 180.726,18.958 178.436 C 18.605 177.729,18.408 176.668,18.521 176.079 C 18.782 174.714,18.190 173.600,17.205 173.600 C 16.256 173.600,14.400 174.419,14.400 174.837 C 14.400 175.007,13.995 175.273,13.500 175.428 C 13.005 175.582,12.240 176.054,11.800 176.475 C 11.360 176.897,10.052 178.067,8.893 179.075 C 7.735 180.083,6.220 181.784,5.526 182.854 C 4.833 183.924,4.130 184.800,3.964 184.800 C 3.798 184.800,3.459 185.416,3.211 186.168 C 2.962 186.920,2.502 187.749,2.188 188.010 C 1.873 188.271,1.499 189.365,1.357 190.442 C 1.189 191.708,0.903 192.400,0.548 192.400 C 0.247 192.400,0.000 192.760,0.000 193.200 C 0.000 194.653,1.149 194.086,1.418 192.500 C 1.774 190.398,3.307 187.058,5.255 184.140 C 7.164 181.279,12.692 176.143,14.295 175.741 C 14.793 175.616,15.200 175.347,15.200 175.144 C 15.200 174.539,16.945 174.047,17.500 174.495 C 17.775 174.717,18.000 175.674,18.000 176.623 C 18.000 177.572,18.187 178.841,18.417 179.443 C 18.946 180.837,18.548 182.699,17.661 182.981 C 16.008 183.505,10.400 189.959,10.400 191.337 C 10.400 191.557,10.156 192.021,9.858 192.369 C 8.380 194.090,7.722 201.008,8.633 205.251 C 10.007 211.652,16.714 220.400,20.247 220.400 C 20.448 220.400,21.329 220.805,22.206 221.300 C 23.663 222.122,24.317 222.200,29.800 222.200 C 35.283 222.200,35.937 222.122,37.394 221.300 C 38.271 220.805,39.295 220.400,39.670 220.400 C 40.046 220.400,40.469 220.213,40.610 219.984 C 40.751 219.755,41.527 219.145,42.334 218.627 C 50.893 213.140,54.259 199.637,49.170 191.200 C 48.971 190.870,48.465 189.970,48.045 189.200 C 47.369 187.961,44.744 185.155,41.781 182.504 C 40.822 181.646,40.791 181.471,41.023 178.304 C 41.372 173.553,41.809 173.195,44.800 175.203 C 45.350 175.573,46.553 176.369,47.473 176.973 C 50.132 178.719,55.600 184.970,55.600 186.264 C 55.600 186.559,55.758 186.800,55.951 186.800 C 56.145 186.800,56.524 187.385,56.794 188.100 C 57.063 188.815,57.656 190.300,58.110 191.400 C 59.574 194.949,59.471 209.691,57.975 210.615 C 57.781 210.736,57.423 211.572,57.180 212.475 C 56.937 213.378,56.420 214.585,56.031 215.158 C 55.643 215.731,54.802 217.010,54.163 218.000 C 52.177 221.074,47.892 224.924,43.854 227.263 C 42.688 227.938,38.432 229.600,37.869 229.600 C 37.523 229.600,36.202 229.870,34.935 230.200 C 32.270 230.894,27.621 230.986,25.597 230.385 C 24.829 230.156,23.300 229.795,22.200 229.581 C 20.471 229.245,18.134 228.326,16.000 227.141 C 15.670 226.958,14.680 226.425,13.800 225.957 C 12.005 225.002,5.200 218.273,5.200 217.453 C 5.200 217.162,4.840 216.598,4.400 216.200 C 3.960 215.802,3.600 215.277,3.600 215.035 C 3.600 214.792,3.174 213.785,2.653 212.797 C 2.132 211.809,1.581 210.145,1.428 209.100 C 1.129 207.049,0.000 206.338,0.000 208.200 C 0.000 208.778,0.230 209.200,0.546 209.200 C 0.891 209.200,1.184 209.874,1.342 211.033 C 1.481 212.041,1.955 213.325,2.397 213.887 C 2.839 214.448,3.200 215.173,3.200 215.496 C 3.200 215.820,3.649 216.650,4.197 217.342 C 4.745 218.034,5.690 219.225,6.297 219.989 C 8.301 222.513,12.669 226.400,13.501 226.400 C 13.707 226.400,14.202 226.760,14.600 227.200 C 14.998 227.640,15.632 228.000,16.008 228.000 C 16.384 228.000,17.121 228.337,17.646 228.749 C 18.171 229.161,19.410 229.632,20.400 229.796 C 21.390 229.960,22.740 230.385,23.400 230.739 C 25.128 231.667,34.480 231.679,36.200 230.756 C 36.860 230.401,38.205 229.988,39.190 229.837 C 40.174 229.686,41.254 229.323,41.590 229.032 C 41.925 228.740,42.859 228.290,43.665 228.031 C 44.470 227.773,45.230 227.300,45.352 226.981 C 45.475 226.661,45.915 226.400,46.331 226.400 C 47.529 226.400,55.600 218.182,55.600 216.962 C 55.600 216.649,55.965 216.080,56.411 215.698 C 56.857 215.316,57.330 214.328,57.462 213.502 C 57.594 212.676,57.840 212.000,58.008 212.000 C 59.443 212.000,60.860 199.844,59.830 196.376 C 59.483 195.209,59.200 193.592,59.200 192.781 C 59.200 191.959,58.873 190.886,58.461 190.354 C 58.055 189.829,57.602 188.910,57.456 188.310 C 56.881 185.954,50.496 177.600,49.270 177.600 C 49.088 177.600,48.517 177.150,48.000 176.600 C 47.483 176.050,46.820 175.600,46.526 175.600 C 46.233 175.600,45.684 175.240,45.307 174.800 C 44.930 174.360,44.437 173.999,44.211 173.998 C 43.985 173.996,43.323 173.746,42.739 173.442 C 41.729 172.914,41.647 172.948,41.014 174.144 M267.900 174.432 C 266.116 175.471,267.149 222.496,268.985 223.838 C 269.323 224.086,269.600 224.493,269.600 224.744 C 269.600 225.131,271.040 226.657,273.600 228.982 C 273.930 229.282,274.920 229.658,275.800 229.817 C 276.680 229.976,277.886 230.353,278.480 230.653 C 279.898 231.371,285.084 231.361,287.286 230.636 C 288.229 230.325,289.764 229.950,290.698 229.801 C 291.632 229.652,292.509 229.348,292.647 229.124 C 292.785 228.901,293.512 228.462,294.263 228.148 C 295.986 227.428,296.622 225.947,296.044 224.000 C 295.815 223.230,295.511 222.150,295.368 221.600 C 294.785 219.359,292.663 218.120,291.600 219.400 C 291.326 219.730,290.892 220.000,290.636 220.000 C 290.379 220.000,289.463 220.360,288.600 220.800 C 287.385 221.419,286.241 221.600,283.536 221.600 C 277.438 221.600,276.839 220.152,276.815 205.347 C 276.797 194.845,275.733 196.013,285.326 196.005 C 293.919 195.998,293.600 196.175,293.600 191.414 C 293.600 186.178,293.972 186.400,285.204 186.400 C 275.924 186.400,276.800 187.029,276.800 180.371 C 276.800 175.300,276.734 174.793,276.026 174.414 C 275.034 173.883,268.819 173.897,267.900 174.432 M275.371 175.029 C 275.881 175.538,276.000 176.680,276.000 181.038 L 276.000 186.420 277.026 186.810 C 277.590 187.024,281.022 187.200,284.652 187.200 C 293.022 187.200,292.800 187.085,292.800 191.424 C 292.800 195.706,293.027 195.600,283.823 195.600 C 278.312 195.600,276.801 195.717,276.424 196.171 C 275.560 197.212,276.018 217.057,276.945 218.800 C 279.076 222.802,284.621 223.665,290.161 220.858 C 293.477 219.178,296.455 222.137,295.456 226.118 C 294.814 228.679,284.860 231.044,279.101 230.005 C 273.787 229.047,271.444 227.237,268.739 222.000 C 267.910 220.395,267.968 175.318,268.800 174.792 C 269.829 174.141,274.658 174.315,275.371 175.029 M108.000 186.357 C 106.350 186.515,104.640 186.865,104.200 187.135 C 103.760 187.405,102.592 187.852,101.604 188.129 C 98.721 188.938,98.813 188.229,98.806 209.820 C 98.799 231.973,98.359 230.000,103.306 230.000 C 108.942 230.000,108.400 231.826,108.400 212.835 C 108.400 200.231,108.514 196.413,108.900 196.125 C 111.007 194.555,117.037 194.137,119.447 195.394 C 120.081 195.724,120.793 195.996,121.028 195.998 C 121.887 196.002,123.909 198.234,124.176 199.472 C 124.328 200.172,124.710 200.959,125.026 201.221 C 125.504 201.618,125.600 203.938,125.600 215.075 C 125.600 223.532,125.752 228.737,126.014 229.226 C 126.559 230.245,134.365 230.406,135.187 229.415 C 136.008 228.427,135.603 202.111,134.747 200.800 C 134.388 200.250,133.977 199.011,133.834 198.046 C 133.691 197.082,133.219 195.842,132.787 195.292 C 132.354 194.742,132.000 194.066,132.000 193.790 C 132.000 192.809,127.649 188.886,125.144 187.609 C 122.357 186.188,115.213 185.666,108.000 186.357 M377.200 186.249 C 374.296 186.611,367.600 191.078,367.600 192.655 C 367.600 192.886,367.244 193.399,366.808 193.793 C 366.372 194.187,365.899 195.160,365.757 195.955 C 365.615 196.750,365.206 197.734,364.849 198.142 C 364.290 198.781,364.200 200.176,364.200 208.200 C 364.200 216.224,364.290 217.619,364.849 218.258 C 365.206 218.666,365.615 219.650,365.757 220.445 C 365.899 221.240,366.372 222.213,366.808 222.607 C 367.244 223.001,367.600 223.504,367.600 223.724 C 367.600 224.212,371.649 227.994,372.174 227.998 C 372.380 227.999,372.920 228.332,373.374 228.739 C 375.509 230.649,385.723 231.861,389.516 230.654 C 390.552 230.325,392.210 229.933,393.200 229.784 C 394.190 229.635,395.270 229.293,395.600 229.024 C 395.930 228.755,397.055 228.220,398.100 227.835 C 399.462 227.332,400.000 226.917,400.000 226.367 C 400.000 225.308,399.418 225.407,398.637 226.600 C 398.276 227.150,397.668 227.600,397.285 227.600 C 396.902 227.600,395.874 227.983,395.002 228.450 C 390.547 230.838,378.632 230.767,374.016 228.326 C 369.551 225.964,367.329 223.176,365.506 217.648 C 363.384 211.216,364.367 197.473,367.148 194.692 C 367.396 194.444,367.600 193.984,367.600 193.671 C 367.600 192.902,372.273 188.400,373.071 188.400 C 373.420 188.400,374.357 187.995,375.153 187.500 C 376.474 186.678,377.088 186.600,382.200 186.600 C 387.312 186.600,387.926 186.678,389.247 187.500 C 390.043 187.995,390.956 188.400,391.275 188.400 C 391.854 188.400,396.400 192.453,396.400 192.970 C 396.400 193.120,396.850 193.905,397.400 194.714 C 397.950 195.523,398.400 196.567,398.400 197.033 C 398.400 198.215,399.204 200.400,399.639 200.400 C 399.838 200.400,400.000 199.950,400.000 199.400 C 400.000 198.850,399.841 198.400,399.647 198.400 C 399.454 198.400,399.093 197.597,398.845 196.615 C 396.924 188.985,388.320 184.864,377.200 186.249 M79.796 186.953 C 78.678 187.771,78.317 228.260,79.418 229.361 C 80.408 230.350,87.224 230.278,88.138 229.269 C 89.177 228.121,89.141 190.086,88.099 188.000 L 87.400 186.600 83.996 186.486 C 81.503 186.402,80.379 186.527,79.796 186.953 M123.201 187.544 C 123.970 188.013,124.844 188.398,125.142 188.399 C 125.818 188.400,128.664 190.609,130.000 192.168 C 133.768 196.567,134.460 200.030,134.762 216.000 C 135.039 230.665,135.374 229.571,130.600 229.581 C 126.086 229.590,126.476 230.885,126.329 215.394 C 126.187 200.404,126.038 199.525,123.200 196.883 C 119.669 193.596,112.089 192.973,108.317 195.659 L 107.153 196.488 107.227 212.689 C 107.312 231.215,107.702 229.585,103.180 229.594 C 98.850 229.603,99.200 231.352,99.200 209.689 L 99.200 190.738 100.369 189.569 C 101.012 188.926,101.957 188.392,102.469 188.382 C 102.981 188.373,104.120 188.089,105.000 187.752 C 109.137 186.166,120.723 186.034,123.201 187.544 M201.200 186.784 C 200.242 187.403,200.308 215.364,201.270 216.800 C 201.639 217.350,202.070 218.505,202.227 219.366 C 202.496 220.834,203.635 222.988,204.906 224.431 C 205.211 224.777,205.577 225.362,205.718 225.731 C 205.859 226.099,206.251 226.400,206.587 226.400 C 206.924 226.400,207.200 226.567,207.200 226.772 C 207.200 227.308,210.544 229.486,212.087 229.953 C 212.809 230.172,214.210 230.651,215.200 231.017 C 217.422 231.840,225.653 231.635,228.208 230.693 C 229.093 230.367,230.757 229.971,231.908 229.813 C 233.058 229.654,234.111 229.344,234.248 229.122 C 234.385 228.900,235.106 228.464,235.849 228.154 L 237.200 227.589 237.200 207.623 C 237.200 190.006,237.126 187.583,236.571 187.029 C 235.784 186.241,230.292 186.163,228.800 186.917 L 227.800 187.423 227.600 204.279 C 227.490 213.549,227.250 221.284,227.067 221.467 C 226.076 222.457,215.810 221.825,214.595 220.700 C 213.942 220.095,213.285 219.600,213.135 219.600 C 212.985 219.600,212.308 218.491,211.631 217.136 L 210.400 214.672 210.394 201.636 C 210.387 185.576,210.723 186.636,205.589 186.498 C 203.505 186.443,201.530 186.571,201.200 186.784 M248.344 187.164 L 247.400 187.929 247.287 208.264 L 247.173 228.600 248.031 229.300 C 248.901 230.010,254.664 230.334,256.167 229.757 C 257.254 229.340,257.116 187.397,256.026 186.814 C 254.619 186.061,249.414 186.299,248.344 187.164 M303.357 186.791 C 302.059 187.316,302.000 188.285,302.000 209.221 C 302.000 226.435,302.074 228.817,302.629 229.371 C 303.352 230.095,310.967 230.301,311.394 229.609 C 311.872 228.836,311.644 187.535,311.159 186.950 C 310.641 186.326,304.802 186.208,303.357 186.791 M317.922 186.872 C 317.078 187.530,317.541 190.563,318.797 192.595 C 319.239 193.310,319.600 194.334,319.600 194.872 C 319.600 195.409,319.933 196.207,320.340 196.644 C 320.748 197.081,321.212 198.140,321.373 198.998 C 321.534 199.856,322.011 200.996,322.433 201.533 C 322.855 202.069,323.200 202.999,323.200 203.600 C 323.200 204.201,323.545 205.131,323.967 205.667 C 324.389 206.204,324.861 207.317,325.015 208.141 C 325.170 208.965,325.523 209.866,325.799 210.142 C 326.076 210.419,326.434 211.265,326.594 212.023 C 326.755 212.780,327.227 213.961,327.643 214.647 C 328.059 215.333,328.400 216.196,328.400 216.566 C 328.400 216.935,328.850 218.082,329.400 219.115 C 329.950 220.148,330.400 221.317,330.400 221.713 C 330.400 222.109,330.743 222.920,331.163 223.516 C 331.582 224.112,332.037 225.257,332.173 226.060 C 332.310 226.863,332.686 227.740,333.011 228.009 C 333.335 228.278,333.600 228.727,333.600 229.006 C 333.600 229.816,334.596 230.000,338.978 230.000 L 343.091 230.000 344.108 228.500 C 344.667 227.675,345.252 226.370,345.407 225.600 C 345.562 224.830,345.955 223.898,346.281 223.529 C 346.606 223.159,347.046 222.082,347.259 221.135 C 347.472 220.187,347.886 219.139,348.179 218.806 C 348.471 218.473,348.841 217.570,349.000 216.800 C 349.159 216.030,349.525 215.130,349.814 214.800 C 350.103 214.470,350.553 213.350,350.814 212.312 C 351.075 211.274,351.539 210.217,351.844 209.963 C 352.150 209.710,352.406 209.029,352.412 208.451 C 352.419 207.873,352.868 206.680,353.410 205.800 C 353.952 204.920,354.397 203.788,354.398 203.284 C 354.399 202.780,354.743 201.880,355.163 201.284 C 355.582 200.688,356.037 199.543,356.173 198.740 C 356.310 197.937,356.672 197.072,356.979 196.817 C 357.286 196.562,357.658 195.641,357.805 194.769 C 357.953 193.897,358.338 192.920,358.661 192.596 C 358.984 192.273,359.353 191.331,359.480 190.504 C 359.607 189.677,359.889 188.654,360.106 188.232 C 360.773 186.936,359.483 186.400,355.697 186.400 C 351.363 186.400,349.600 187.537,349.600 190.331 C 349.600 190.755,349.335 191.322,349.011 191.591 C 348.686 191.860,348.310 192.737,348.173 193.540 C 348.037 194.343,347.604 195.458,347.212 196.017 C 346.819 196.577,346.370 197.792,346.214 198.717 C 346.058 199.643,345.773 200.400,345.581 200.400 C 345.389 200.400,345.025 201.165,344.773 202.100 C 344.520 203.035,343.993 204.430,343.600 205.200 C 343.208 205.970,342.755 207.230,342.593 208.000 C 342.432 208.770,342.133 209.506,341.931 209.635 C 341.728 209.765,341.305 210.843,340.992 212.032 C 340.678 213.220,340.242 214.253,340.023 214.326 C 339.804 214.399,339.509 215.077,339.367 215.834 C 339.023 217.670,338.555 217.873,338.244 216.320 C 338.105 215.623,337.715 214.748,337.378 214.376 C 337.041 214.004,336.659 213.002,336.529 212.150 C 336.398 211.297,336.060 210.330,335.776 210.000 C 335.492 209.670,335.047 208.550,334.786 207.512 C 334.525 206.474,334.061 205.417,333.756 205.163 C 333.450 204.910,333.198 204.319,333.196 203.851 C 333.194 203.383,332.750 202.100,332.209 201.000 C 331.668 199.900,331.219 198.619,331.213 198.154 C 331.206 197.689,330.866 196.879,330.458 196.354 C 330.050 195.829,329.585 194.690,329.425 193.821 C 329.265 192.953,328.789 191.804,328.367 191.267 C 327.945 190.731,327.600 189.886,327.600 189.390 C 327.600 186.895,320.323 185.001,317.922 186.872 M87.186 187.974 C 87.815 189.149,87.752 228.488,87.120 229.120 C 86.831 229.409,85.431 229.600,83.600 229.600 C 81.769 229.600,80.369 229.409,80.080 229.120 C 79.471 228.511,79.386 189.816,79.990 188.226 C 80.520 186.833,86.464 186.625,87.186 187.974 M209.386 188.100 C 209.496 188.595,209.635 194.850,209.693 202.000 L 209.800 215.000 210.888 217.214 C 213.267 222.053,216.527 223.335,224.180 222.442 C 228.725 221.911,228.400 223.244,228.400 205.104 C 228.400 186.143,228.139 187.200,232.820 187.200 C 235.887 187.200,236.036 187.243,236.410 188.226 C 236.865 189.423,236.945 226.377,236.494 227.016 C 235.968 227.760,231.335 229.600,229.950 229.614 C 229.207 229.622,227.520 229.889,226.200 230.208 C 219.308 231.872,210.763 229.902,206.736 225.720 C 205.439 224.374,204.930 223.615,203.265 220.555 C 201.566 217.433,200.094 191.347,201.421 187.888 C 201.883 186.687,209.113 186.879,209.386 188.100 M255.986 187.974 C 256.615 189.149,256.552 228.488,255.920 229.120 C 255.631 229.409,254.231 229.600,252.400 229.600 C 250.569 229.600,249.169 229.409,248.880 229.120 C 248.248 228.488,248.185 189.149,248.814 187.974 C 249.433 186.817,255.367 186.817,255.986 187.974 M310.755 187.745 C 311.082 188.139,311.179 193.999,311.104 208.845 L 311.000 229.400 307.704 229.516 C 302.266 229.708,302.800 231.957,302.800 208.861 C 302.800 185.410,302.423 187.200,307.367 187.200 C 309.357 187.200,310.448 187.376,310.755 187.745 M326.038 188.027 C 326.700 188.498,327.205 189.230,327.213 189.727 C 327.219 190.207,327.668 191.500,328.209 192.600 C 328.750 193.700,329.194 194.826,329.196 195.101 C 329.198 195.377,329.560 196.275,330.000 197.096 C 330.440 197.916,330.800 198.841,330.800 199.150 C 330.800 199.459,331.136 200.452,331.548 201.356 C 332.746 203.991,334.050 207.303,334.399 208.600 C 334.577 209.260,335.100 210.513,335.561 211.385 C 336.023 212.256,336.400 213.322,336.400 213.753 C 336.400 214.184,336.647 214.821,336.948 215.169 C 337.249 215.516,337.665 216.329,337.873 216.975 C 338.080 217.621,338.419 218.204,338.625 218.270 C 339.013 218.395,341.190 214.071,341.213 213.131 C 341.219 212.839,341.668 211.700,342.209 210.600 C 342.750 209.500,343.194 208.358,343.196 208.062 C 343.198 207.766,343.464 207.046,343.787 206.462 C 344.110 205.878,344.935 203.870,345.620 202.000 C 346.305 200.130,347.115 198.060,347.420 197.400 C 347.725 196.740,348.268 195.390,348.628 194.400 C 348.989 193.410,349.611 191.704,350.011 190.608 C 351.111 187.598,351.892 187.147,355.763 187.285 L 359.000 187.400 359.127 188.721 C 359.204 189.526,358.938 190.578,358.447 191.410 C 358.004 192.162,357.523 193.406,357.378 194.174 C 357.234 194.943,356.870 195.776,356.569 196.026 C 356.268 196.276,355.898 197.136,355.748 197.937 C 355.598 198.738,355.053 200.187,354.537 201.156 C 354.022 202.126,353.594 203.207,353.587 203.560 C 353.580 203.912,353.310 204.549,352.987 204.976 C 352.664 205.404,352.400 206.052,352.400 206.417 C 352.400 206.782,351.950 207.927,351.400 208.962 C 350.850 209.996,350.400 211.099,350.400 211.412 C 350.400 211.726,349.925 213.021,349.344 214.291 C 347.032 219.345,346.800 219.908,346.800 220.450 C 346.800 220.759,346.440 221.684,346.000 222.504 C 345.560 223.325,345.197 224.223,345.193 224.499 C 345.190 224.774,344.688 225.990,344.079 227.200 L 342.971 229.400 338.787 229.400 L 334.603 229.400 333.511 227.400 C 332.910 226.300,332.409 225.130,332.397 224.800 C 332.385 224.470,331.932 223.300,331.391 222.200 C 330.850 221.100,330.406 220.013,330.404 219.785 C 330.402 219.556,330.040 218.663,329.600 217.800 C 329.160 216.937,328.799 215.954,328.797 215.615 C 328.796 215.277,328.437 214.460,328.000 213.800 C 327.563 213.140,327.204 212.277,327.203 211.882 C 327.201 211.487,326.750 210.318,326.200 209.285 C 325.650 208.252,325.196 207.045,325.191 206.603 C 325.186 206.161,324.830 205.350,324.400 204.800 C 323.970 204.250,323.614 203.439,323.609 202.997 C 323.604 202.555,323.150 201.348,322.600 200.315 C 322.050 199.282,321.599 198.113,321.597 197.718 C 321.596 197.323,321.237 196.460,320.800 195.800 C 320.363 195.140,320.004 194.327,320.003 193.994 C 320.001 193.661,319.640 192.716,319.200 191.896 C 318.422 190.444,318.128 188.005,318.667 187.467 C 319.352 186.782,324.880 187.202,326.038 188.027 M378.053 195.081 C 374.211 197.083,371.805 202.595,373.806 204.807 C 374.900 206.016,390.140 206.033,390.786 204.826 C 394.004 198.813,384.641 191.647,378.053 195.081 M384.926 195.265 C 387.107 196.175,389.200 197.821,389.200 198.626 C 389.200 198.888,389.451 199.310,389.758 199.565 C 390.437 200.129,390.935 202.543,390.594 203.617 C 390.249 204.705,374.258 204.849,373.843 203.768 C 373.417 202.657,374.090 199.837,375.060 198.669 C 375.577 198.047,376.000 197.366,376.000 197.155 C 376.000 196.807,378.592 195.457,380.600 194.758 C 381.978 194.279,382.788 194.373,384.926 195.265 M373.595 212.206 C 372.081 214.030,374.433 218.883,377.859 221.000 C 380.541 222.658,388.452 222.810,391.859 221.268 C 392.992 220.756,394.783 220.306,395.840 220.268 C 397.907 220.195,397.982 220.277,398.593 223.300 C 398.798 224.314,400.000 224.912,400.000 224.000 C 400.000 223.780,399.828 223.600,399.618 223.600 C 399.408 223.600,399.118 222.925,398.973 222.100 C 398.443 219.075,397.068 218.106,395.086 219.361 C 394.599 219.669,393.570 220.047,392.800 220.200 C 392.030 220.353,391.001 220.731,390.514 221.039 C 389.468 221.701,379.802 221.850,379.407 221.211 C 379.274 220.997,378.589 220.539,377.883 220.194 C 375.626 219.090,372.392 213.063,373.655 212.314 C 373.735 212.266,379.740 212.126,387.000 212.003 L 400.200 211.778 387.149 211.689 C 375.908 211.612,374.028 211.684,373.595 212.206 " stroke="none" fill="#b3b0b3" fill-rule="evenodd"></path><path id="path4" d="M154.600 169.763 C 153.720 170.051,152.245 170.497,151.322 170.753 C 149.160 171.353,146.409 174.086,144.927 177.105 L 143.800 179.400 143.670 203.923 C 143.521 232.054,143.146 229.600,147.600 229.600 C 152.020 229.600,151.696 230.982,151.623 212.432 C 151.548 193.445,150.485 195.600,159.925 195.600 C 167.944 195.600,167.741 195.708,167.776 191.431 C 167.812 187.109,167.978 187.200,160.040 187.200 C 151.175 187.200,150.657 186.848,152.367 181.992 C 153.734 178.110,154.882 177.468,160.068 177.681 C 163.588 177.826,164.623 178.012,165.507 178.657 C 168.436 180.793,169.980 179.855,171.041 175.293 L 171.531 173.185 170.266 172.544 C 169.570 172.192,168.730 171.686,168.400 171.419 C 166.388 169.794,157.689 168.750,154.600 169.763 M159.937 169.966 C 160.313 170.168,162.048 170.531,163.792 170.774 C 165.536 171.016,167.421 171.526,167.981 171.907 C 168.542 172.288,169.360 172.698,169.800 172.818 C 170.240 172.938,170.582 173.253,170.560 173.518 C 170.538 173.783,170.493 174.617,170.460 175.371 C 170.427 176.126,170.158 176.984,169.863 177.280 C 169.568 177.575,169.112 178.218,168.849 178.708 C 168.247 179.833,168.061 179.824,166.638 178.600 C 165.999 178.050,165.128 177.600,164.703 177.600 C 164.279 177.600,162.809 177.301,161.437 176.935 C 157.573 175.906,152.400 177.777,152.400 180.205 C 152.400 180.478,152.130 180.926,151.800 181.200 C 151.381 181.548,151.200 182.470,151.200 184.255 C 151.200 188.136,151.873 188.445,160.153 188.357 C 167.489 188.279,167.175 188.104,166.895 192.100 L 166.707 194.800 159.727 194.800 C 150.092 194.800,151.200 192.540,151.200 212.187 C 151.200 231.057,151.663 229.105,147.200 229.039 L 144.600 229.000 144.497 204.426 L 144.394 179.852 145.397 177.933 C 145.949 176.878,146.400 175.850,146.400 175.648 C 146.400 175.132,148.498 172.800,148.963 172.800 C 149.175 172.800,149.743 172.429,150.225 171.977 C 150.778 171.457,151.996 171.027,153.526 170.811 C 154.859 170.622,156.276 170.278,156.675 170.046 C 157.579 169.520,159.037 169.485,159.937 169.966 M80.898 170.731 C 77.224 173.064,78.167 179.216,82.293 179.835 C 87.736 180.651,90.945 175.698,87.446 171.878 C 86.068 170.374,82.457 169.741,80.898 170.731 M176.024 170.971 C 175.668 171.401,175.581 177.697,175.675 196.471 L 175.800 221.400 177.000 223.777 C 179.581 228.889,184.921 231.184,191.488 230.004 C 196.487 229.106,196.798 228.779,195.991 225.266 C 195.287 222.197,195.292 222.200,190.813 222.200 C 183.425 222.200,183.572 222.781,183.610 193.744 C 183.637 172.971,183.591 171.383,182.943 170.909 C 181.948 170.182,176.640 170.229,176.024 170.971 M248.567 171.807 C 244.969 175.512,248.282 180.648,253.741 179.830 C 257.898 179.206,258.670 171.717,254.687 170.649 C 252.109 169.958,249.970 170.363,248.567 171.807 M303.521 171.554 C 300.139 174.576,302.820 180.296,307.438 179.913 C 309.887 179.710,310.773 179.078,311.800 176.799 C 313.880 172.187,307.404 168.085,303.521 171.554 M85.684 171.128 C 90.842 173.179,87.772 180.212,82.114 179.306 C 79.937 178.957,78.244 174.491,79.800 173.200 C 80.130 172.926,80.400 172.448,80.400 172.138 C 80.400 171.077,83.881 170.411,85.684 171.128 M182.584 171.250 C 182.717 171.384,182.865 182.028,182.913 194.904 C 182.989 215.424,183.077 218.408,183.623 219.058 C 183.965 219.466,184.458 220.299,184.718 220.908 C 185.371 222.440,186.781 222.858,190.854 222.729 C 194.924 222.599,194.688 222.463,195.278 225.275 C 196.062 229.014,195.088 229.449,186.635 229.137 L 182.460 228.982 180.530 227.353 C 179.469 226.456,178.420 225.200,178.200 224.561 C 177.980 223.922,177.485 222.955,177.100 222.411 C 176.411 221.438,175.946 171.787,176.619 171.114 C 176.913 170.821,182.276 170.943,182.584 171.250 M254.313 171.055 C 257.082 171.797,257.141 178.185,254.387 179.145 C 252.885 179.668,249.588 179.234,249.297 178.475 C 249.167 178.137,248.732 177.532,248.331 177.131 C 245.519 174.319,249.898 169.873,254.313 171.055 M309.337 171.244 C 312.473 172.673,311.500 179.078,308.119 179.260 C 304.409 179.460,302.718 178.207,302.686 175.235 C 302.649 171.695,305.963 169.707,309.337 171.244 M16.100 174.433 C 15.605 174.621,15.200 174.941,15.200 175.144 C 15.200 175.347,14.793 175.616,14.295 175.741 C 12.692 176.143,7.164 181.279,5.255 184.140 C 3.307 187.058,1.774 190.398,1.418 192.500 C 1.260 193.429,0.942 194.000,0.582 194.000 C 0.202 194.000,0.000 194.417,0.000 195.200 C 0.000 198.302,1.617 195.966,2.216 192.000 C 2.365 191.010,2.713 189.930,2.990 189.600 C 3.266 189.270,3.611 188.500,3.756 187.890 C 3.902 187.279,4.376 186.424,4.810 185.990 C 5.245 185.555,5.600 184.981,5.600 184.714 C 5.600 184.447,5.963 183.862,6.406 183.414 C 6.849 182.966,7.907 181.880,8.756 181.000 C 11.647 178.004,13.588 176.400,14.323 176.400 C 14.726 176.400,15.464 175.930,15.964 175.356 C 17.236 173.892,17.542 174.473,17.654 178.572 C 17.739 181.678,17.656 182.199,17.016 182.572 C 16.209 183.042,12.616 186.621,11.487 188.079 C 10.307 189.605,8.404 193.732,8.389 194.800 C 8.381 195.350,8.110 196.149,7.787 196.576 C 7.001 197.616,6.969 203.888,7.745 205.011 C 8.045 205.445,8.419 206.610,8.577 207.600 C 8.942 209.889,12.168 215.593,13.100 215.597 C 13.375 215.599,13.600 215.864,13.600 216.186 C 13.600 216.508,13.974 216.972,14.430 217.216 C 14.887 217.461,15.588 217.962,15.988 218.330 C 17.915 220.104,18.928 220.800,19.580 220.800 C 19.972 220.800,20.727 221.142,21.258 221.560 C 23.650 223.441,35.947 223.443,38.338 221.563 C 38.871 221.143,39.616 220.800,39.992 220.800 C 40.368 220.800,41.002 220.440,41.400 220.000 C 41.798 219.560,42.351 219.200,42.630 219.200 C 43.262 219.200,48.400 214.026,48.400 213.390 C 48.400 213.133,48.765 212.502,49.211 211.987 C 49.657 211.473,50.131 210.591,50.265 210.026 C 50.398 209.462,50.798 208.666,51.154 208.258 C 52.106 207.163,52.105 195.430,51.152 193.976 C 50.796 193.433,50.380 192.418,50.227 191.722 C 50.074 191.025,49.680 190.232,49.351 189.959 C 49.023 189.687,48.519 188.909,48.231 188.232 C 47.625 186.801,43.134 182.400,42.280 182.400 C 41.505 182.400,41.168 180.515,41.600 178.600 C 41.792 177.747,41.849 176.543,41.725 175.925 C 41.341 174.007,45.123 175.297,47.191 177.789 C 47.470 178.125,48.036 178.400,48.449 178.400 C 48.862 178.400,49.200 178.587,49.200 178.816 C 49.200 179.044,50.079 180.097,51.154 181.154 C 52.228 182.212,53.225 183.448,53.369 183.902 C 53.513 184.355,53.894 184.827,54.215 184.950 C 54.537 185.074,54.800 185.426,54.800 185.734 C 54.800 186.041,55.143 186.728,55.561 187.260 C 55.980 187.793,56.535 189.016,56.794 189.978 C 57.053 190.940,57.531 192.134,57.857 192.630 C 58.617 193.790,58.504 209.043,57.732 209.519 C 57.474 209.678,57.145 210.346,56.999 211.004 C 56.585 212.877,55.936 214.400,55.551 214.400 C 55.358 214.400,55.197 214.625,55.193 214.900 C 55.176 216.048,49.085 223.600,48.176 223.600 C 48.033 223.600,47.381 224.050,46.727 224.600 C 46.073 225.150,45.302 225.600,45.012 225.600 C 44.723 225.600,44.386 225.860,44.264 226.178 C 44.142 226.495,43.268 226.976,42.321 227.247 C 41.375 227.517,40.330 227.955,40.000 228.220 C 39.670 228.485,37.870 228.915,36.000 229.175 C 34.130 229.435,32.050 229.841,31.377 230.077 C 30.445 230.403,29.540 230.358,27.577 229.886 C 26.160 229.545,23.965 229.148,22.700 229.004 C 21.435 228.860,20.155 228.498,19.857 228.200 C 19.559 227.902,18.666 227.536,17.872 227.387 C 17.078 227.238,16.211 226.855,15.946 226.535 C 15.681 226.215,14.889 225.713,14.186 225.420 C 13.098 224.965,9.362 221.808,7.858 220.071 C 7.606 219.781,7.071 219.181,6.668 218.739 C 6.265 218.298,5.753 217.410,5.529 216.768 C 5.305 216.126,4.973 215.600,4.792 215.600 C 4.610 215.600,4.245 214.925,3.980 214.100 C 3.716 213.275,3.268 212.330,2.985 212.000 C 2.702 211.670,2.351 210.500,2.203 209.400 C 1.657 205.321,0.000 202.765,0.000 206.000 C 0.000 206.777,0.203 207.200,0.575 207.200 C 0.956 207.200,1.245 207.842,1.428 209.100 C 1.581 210.145,2.132 211.809,2.653 212.797 C 3.174 213.785,3.600 214.792,3.600 215.035 C 3.600 215.277,3.960 215.802,4.400 216.200 C 4.840 216.598,5.200 217.162,5.200 217.453 C 5.200 218.273,12.005 225.002,13.800 225.957 C 14.680 226.425,15.670 226.958,16.000 227.141 C 18.134 228.326,20.471 229.245,22.200 229.581 C 23.300 229.795,24.829 230.156,25.597 230.385 C 27.621 230.986,32.270 230.894,34.935 230.200 C 36.202 229.870,37.523 229.600,37.869 229.600 C 38.432 229.600,42.688 227.938,43.854 227.263 C 47.892 224.924,52.177 221.074,54.163 218.000 C 54.802 217.010,55.643 215.731,56.031 215.158 C 56.420 214.585,56.937 213.378,57.180 212.475 C 57.423 211.572,57.781 210.736,57.975 210.615 C 59.471 209.691,59.574 194.949,58.110 191.400 C 57.656 190.300,57.063 188.815,56.794 188.100 C 56.524 187.385,56.145 186.800,55.951 186.800 C 55.758 186.800,55.600 186.559,55.600 186.264 C 55.600 184.970,50.132 178.719,47.473 176.973 C 46.553 176.369,45.350 175.573,44.800 175.203 C 41.809 173.195,41.372 173.553,41.023 178.304 C 40.791 181.471,40.822 181.646,41.781 182.504 C 44.744 185.155,47.369 187.961,48.045 189.200 C 48.465 189.970,48.971 190.870,49.170 191.200 C 54.259 199.637,50.893 213.140,42.334 218.627 C 41.527 219.145,40.751 219.755,40.610 219.984 C 40.469 220.213,40.046 220.400,39.670 220.400 C 39.295 220.400,38.271 220.805,37.394 221.300 C 35.937 222.122,35.283 222.200,29.800 222.200 C 24.317 222.200,23.663 222.122,22.206 221.300 C 21.329 220.805,20.448 220.400,20.247 220.400 C 16.714 220.400,10.007 211.652,8.633 205.251 C 7.722 201.008,8.380 194.090,9.858 192.369 C 10.156 192.021,10.400 191.557,10.400 191.337 C 10.400 189.959,16.008 183.505,17.661 182.981 C 18.548 182.699,18.946 180.837,18.417 179.443 C 18.187 178.841,18.000 177.572,18.000 176.623 C 18.000 174.630,17.402 173.940,16.100 174.433 M268.800 174.792 C 267.968 175.318,267.910 220.395,268.739 222.000 C 271.444 227.237,273.787 229.047,279.101 230.005 C 284.860 231.044,294.814 228.679,295.456 226.118 C 296.455 222.137,293.477 219.178,290.161 220.858 C 284.621 223.665,279.076 222.802,276.945 218.800 C 276.018 217.057,275.560 197.212,276.424 196.171 C 276.801 195.717,278.312 195.600,283.823 195.600 C 293.027 195.600,292.800 195.706,292.800 191.424 C 292.800 187.085,293.022 187.200,284.652 187.200 C 281.022 187.200,277.590 187.024,277.026 186.810 L 276.000 186.420 276.000 181.038 C 276.000 174.497,275.941 174.397,272.071 174.406 C 270.602 174.409,269.130 174.583,268.800 174.792 M275.153 176.084 C 275.333 176.570,275.393 178.621,275.288 180.642 C 274.892 188.200,275.126 188.400,284.347 188.400 C 292.619 188.400,292.760 188.498,291.750 193.550 L 291.500 194.800 283.959 194.800 L 276.418 194.800 275.762 195.801 C 274.766 197.322,275.073 217.554,276.110 218.700 C 276.489 219.120,276.800 219.640,276.800 219.857 C 276.800 222.451,287.614 223.976,290.093 221.731 C 292.512 219.541,294.937 221.218,294.719 224.930 C 294.605 226.873,294.545 226.967,293.200 227.310 C 292.430 227.507,291.506 227.931,291.147 228.253 C 289.421 229.801,276.969 229.620,274.932 228.018 C 274.360 227.568,273.719 227.200,273.507 227.200 C 272.930 227.200,270.881 224.887,270.565 223.880 C 270.414 223.396,269.955 222.571,269.545 222.046 C 268.785 221.073,268.325 176.209,269.067 175.467 C 269.839 174.695,274.826 175.201,275.153 176.084 M109.000 186.797 C 107.680 186.985,105.880 187.414,105.000 187.752 C 104.120 188.089,102.981 188.373,102.469 188.382 C 101.957 188.392,101.012 188.926,100.369 189.569 L 99.200 190.738 99.200 209.689 C 99.200 231.352,98.850 229.603,103.180 229.594 C 107.702 229.585,107.312 231.215,107.227 212.689 L 107.153 196.488 108.317 195.659 C 112.089 192.973,119.669 193.596,123.200 196.883 C 126.038 199.525,126.187 200.404,126.329 215.394 C 126.476 230.885,126.086 229.590,130.600 229.581 C 135.374 229.571,135.039 230.665,134.762 216.000 C 134.460 200.030,133.768 196.567,130.000 192.168 C 128.664 190.609,125.818 188.400,125.142 188.399 C 124.844 188.398,123.970 188.013,123.201 187.544 C 121.608 186.573,113.559 186.150,109.000 186.797 M377.389 186.738 C 376.503 186.899,375.338 187.338,374.800 187.715 C 374.262 188.092,373.510 188.400,373.129 188.400 C 372.289 188.400,367.600 192.870,367.600 193.671 C 367.600 193.984,367.396 194.444,367.148 194.692 C 364.367 197.473,363.384 211.216,365.506 217.648 C 367.329 223.176,369.551 225.964,374.016 228.326 C 378.632 230.767,390.547 230.838,395.002 228.450 C 395.874 227.983,396.866 227.600,397.205 227.600 C 397.838 227.600,400.000 225.402,400.000 224.759 C 400.000 224.561,399.733 224.400,399.408 224.400 C 399.082 224.400,398.715 223.905,398.593 223.300 C 397.982 220.277,397.907 220.195,395.840 220.268 C 394.783 220.306,392.992 220.756,391.859 221.268 C 384.397 224.645,374.302 221.156,373.360 214.876 C 372.880 211.670,372.229 211.826,387.043 211.592 L 400.200 211.384 386.976 211.292 C 371.265 211.183,372.032 210.985,372.818 214.942 C 373.110 216.410,373.721 218.085,374.175 218.664 C 375.056 219.788,375.076 219.807,377.177 221.494 L 378.555 222.600 385.245 222.600 C 391.633 222.600,391.979 222.559,392.894 221.700 C 393.597 221.039,394.335 220.800,395.671 220.800 L 397.490 220.800 397.933 223.006 C 398.528 225.970,398.105 227.013,396.182 227.325 C 395.367 227.458,394.402 227.837,394.036 228.167 C 392.155 229.869,377.126 229.744,374.919 228.008 C 374.354 227.563,373.558 227.200,373.149 227.200 C 372.741 227.200,372.182 226.840,371.907 226.400 C 371.632 225.960,371.247 225.600,371.050 225.600 C 369.859 225.600,366.400 220.018,366.400 218.097 C 366.400 217.481,366.085 216.533,365.700 215.989 C 364.768 214.672,364.643 201.753,365.552 200.657 C 365.856 200.291,366.263 199.139,366.456 198.096 C 366.649 197.053,367.165 195.712,367.603 195.116 C 368.042 194.520,368.400 193.815,368.400 193.548 C 368.400 192.825,372.874 188.800,373.679 188.800 C 374.062 188.800,375.146 188.397,376.088 187.904 C 378.545 186.619,386.326 186.602,388.424 187.878 C 389.181 188.337,390.385 188.837,391.100 188.989 C 391.815 189.140,392.400 189.433,392.400 189.640 C 392.400 189.848,392.850 190.222,393.400 190.473 C 393.950 190.723,394.400 191.163,394.400 191.450 C 394.400 191.737,394.745 192.157,395.167 192.383 C 395.590 192.609,396.054 193.334,396.199 193.994 C 396.344 194.655,396.710 195.334,397.013 195.503 C 397.326 195.679,397.762 197.101,398.025 198.806 C 398.508 201.936,398.965 203.200,399.614 203.200 C 400.221 203.200,400.065 200.808,399.416 200.159 C 399.094 199.837,398.728 198.905,398.602 198.087 C 398.382 196.664,398.031 195.804,396.771 193.603 C 395.955 192.177,391.965 188.400,391.275 188.400 C 390.956 188.400,390.088 188.025,389.347 187.567 C 387.867 186.653,380.625 186.150,377.389 186.738 M122.361 188.035 C 123.146 188.456,124.190 188.800,124.680 188.800 C 125.845 188.800,130.993 193.920,131.378 195.461 C 131.534 196.087,131.945 196.914,132.290 197.297 C 133.230 198.340,134.947 227.443,134.145 228.736 C 133.977 229.008,129.370 229.171,128.131 228.949 L 126.861 228.722 126.731 214.461 C 126.601 200.287,126.594 200.194,125.700 199.300 C 125.205 198.805,124.800 198.173,124.800 197.896 C 124.800 197.392,123.830 196.500,121.222 194.602 C 119.042 193.016,110.669 193.080,108.360 194.700 C 106.253 196.178,106.332 195.409,106.474 213.130 C 106.543 221.749,106.510 228.825,106.400 228.854 C 105.848 229.003,100.920 229.089,100.400 228.959 C 99.875 228.829,99.814 226.418,99.915 209.705 L 100.030 190.600 101.077 189.700 C 101.707 189.159,102.652 188.800,103.448 188.800 C 104.176 188.800,105.633 188.501,106.686 188.136 C 110.965 186.653,119.677 186.597,122.361 188.035 M79.990 188.226 C 79.386 189.816,79.471 228.511,80.080 229.120 C 80.369 229.409,81.769 229.600,83.600 229.600 C 85.431 229.600,86.831 229.409,87.120 229.120 C 87.752 228.488,87.815 189.149,87.186 187.974 C 86.464 186.625,80.520 186.833,79.990 188.226 M201.421 187.888 C 200.094 191.347,201.566 217.433,203.265 220.555 C 204.930 223.615,205.439 224.374,206.736 225.720 C 210.763 229.902,219.308 231.872,226.200 230.208 C 227.520 229.889,229.207 229.622,229.950 229.614 C 231.335 229.600,235.968 227.760,236.494 227.016 C 236.945 226.377,236.865 189.423,236.410 188.226 C 236.036 187.243,235.887 187.200,232.820 187.200 C 228.139 187.200,228.400 186.143,228.400 205.104 C 228.400 223.244,228.725 221.911,224.180 222.442 C 216.527 223.335,213.267 222.053,210.888 217.214 L 209.800 215.000 209.693 202.000 C 209.558 185.535,210.037 187.200,205.435 187.200 C 202.257 187.200,201.645 187.305,201.421 187.888 M248.814 187.974 C 248.185 189.149,248.248 228.488,248.880 229.120 C 249.169 229.409,250.569 229.600,252.400 229.600 C 254.231 229.600,255.631 229.409,255.920 229.120 C 256.552 228.488,256.615 189.149,255.986 187.974 C 255.367 186.817,249.433 186.817,248.814 187.974 M303.616 188.075 C 302.817 188.932,302.800 189.377,302.800 208.861 C 302.800 231.957,302.266 229.708,307.704 229.516 L 311.000 229.400 311.104 208.845 C 311.179 193.999,311.082 188.139,310.755 187.745 C 309.942 186.766,304.606 187.012,303.616 188.075 M318.667 187.467 C 318.128 188.005,318.422 190.444,319.200 191.896 C 319.640 192.716,320.001 193.661,320.003 193.994 C 320.004 194.327,320.363 195.140,320.800 195.800 C 321.237 196.460,321.596 197.323,321.597 197.718 C 321.599 198.113,322.050 199.282,322.600 200.315 C 323.150 201.348,323.604 202.555,323.609 202.997 C 323.614 203.439,323.970 204.250,324.400 204.800 C 324.830 205.350,325.186 206.161,325.191 206.603 C 325.196 207.045,325.650 208.252,326.200 209.285 C 326.750 210.318,327.201 211.487,327.203 211.882 C 327.204 212.277,327.563 213.140,328.000 213.800 C 328.437 214.460,328.796 215.277,328.797 215.615 C 328.799 215.954,329.160 216.937,329.600 217.800 C 330.040 218.663,330.402 219.556,330.404 219.785 C 330.406 220.013,330.850 221.100,331.391 222.200 C 331.932 223.300,332.385 224.470,332.397 224.800 C 332.409 225.130,332.910 226.300,333.511 227.400 L 334.603 229.400 338.787 229.400 L 342.971 229.400 344.079 227.200 C 344.688 225.990,345.190 224.774,345.193 224.499 C 345.197 224.223,345.560 223.325,346.000 222.504 C 346.440 221.684,346.800 220.759,346.800 220.450 C 346.800 219.908,347.032 219.345,349.344 214.291 C 349.925 213.021,350.400 211.726,350.400 211.412 C 350.400 211.099,350.850 209.996,351.400 208.962 C 351.950 207.927,352.400 206.782,352.400 206.417 C 352.400 206.052,352.664 205.404,352.987 204.976 C 353.310 204.549,353.580 203.912,353.587 203.560 C 353.594 203.207,354.022 202.126,354.537 201.156 C 355.053 200.187,355.598 198.738,355.748 197.937 C 355.898 197.136,356.268 196.276,356.569 196.026 C 356.870 195.776,357.234 194.943,357.378 194.174 C 357.523 193.406,358.004 192.162,358.447 191.410 C 358.938 190.578,359.204 189.526,359.127 188.721 L 359.000 187.400 355.763 187.285 C 351.892 187.147,351.111 187.598,350.011 190.608 C 349.611 191.704,348.989 193.410,348.628 194.400 C 348.268 195.390,347.725 196.740,347.420 197.400 C 347.115 198.060,346.305 200.130,345.620 202.000 C 344.935 203.870,344.110 205.878,343.787 206.462 C 343.464 207.046,343.198 207.766,343.196 208.062 C 343.194 208.358,342.750 209.500,342.209 210.600 C 341.668 211.700,341.219 212.839,341.213 213.131 C 341.190 214.071,339.013 218.395,338.625 218.270 C 338.419 218.204,338.080 217.621,337.873 216.975 C 337.665 216.329,337.249 215.516,336.948 215.169 C 336.647 214.821,336.400 214.184,336.400 213.753 C 336.400 213.322,336.023 212.256,335.561 211.385 C 335.100 210.513,334.577 209.260,334.399 208.600 C 334.050 207.303,332.746 203.991,331.548 201.356 C 331.136 200.452,330.800 199.459,330.800 199.150 C 330.800 198.841,330.440 197.916,330.000 197.096 C 329.560 196.275,329.198 195.377,329.196 195.101 C 329.194 194.826,328.750 193.700,328.209 192.600 C 327.668 191.500,327.219 190.207,327.213 189.727 C 327.185 187.824,320.166 185.967,318.667 187.467 M86.834 188.842 C 87.262 189.517,87.326 228.776,86.900 228.857 C 85.582 229.105,80.747 229.038,80.581 228.769 C 80.343 228.384,80.331 188.836,80.569 188.450 C 80.894 187.924,86.474 188.272,86.834 188.842 M235.990 188.781 C 236.268 189.301,236.373 195.828,236.304 208.268 L 236.200 226.974 234.756 227.387 C 233.963 227.614,233.057 228.014,232.744 228.276 C 232.431 228.538,230.381 228.937,228.188 229.162 C 225.994 229.387,223.611 229.777,222.890 230.028 C 222.170 230.280,221.000 230.385,220.290 230.262 C 213.409 229.073,211.767 228.675,210.887 227.983 C 210.340 227.552,209.719 227.200,209.506 227.200 C 208.798 227.200,205.325 223.335,204.876 222.047 C 204.633 221.348,204.167 220.509,203.840 220.183 C 203.514 219.857,203.147 218.738,203.024 217.695 C 202.901 216.653,202.580 214.810,202.310 213.600 C 202.008 212.241,201.774 207.087,201.699 200.111 L 201.576 188.821 202.496 188.590 C 203.003 188.463,204.673 188.413,206.208 188.480 L 209.000 188.600 209.200 202.467 C 209.392 215.783,209.434 216.380,210.244 217.475 C 210.708 218.102,211.212 219.008,211.364 219.487 C 211.516 219.967,211.983 220.467,212.400 220.600 C 212.817 220.733,213.263 221.169,213.390 221.570 C 214.070 223.712,226.667 223.872,228.800 221.765 C 229.307 221.264,229.431 218.647,229.600 204.886 L 229.800 188.600 232.400 188.369 C 233.830 188.242,235.129 188.107,235.286 188.069 C 235.443 188.031,235.760 188.352,235.990 188.781 M255.600 208.450 C 255.710 219.532,255.661 228.703,255.491 228.829 C 255.320 228.956,253.880 229.046,252.291 229.029 L 249.400 229.000 249.289 209.400 C 249.156 185.886,248.811 188.171,252.484 188.242 L 255.400 188.299 255.600 208.450 M310.603 188.900 C 310.723 189.395,310.772 198.620,310.711 209.400 L 310.600 229.000 307.680 229.030 C 303.439 229.073,303.772 230.939,304.000 208.400 L 304.200 188.600 306.800 188.369 C 308.230 188.242,309.622 188.107,309.892 188.069 C 310.163 188.031,310.483 188.405,310.603 188.900 M325.077 188.631 C 326.367 188.830,326.507 189.037,326.996 191.472 C 327.136 192.172,327.510 192.959,327.826 193.221 C 328.142 193.483,328.400 194.099,328.400 194.589 C 328.400 195.080,328.850 196.327,329.400 197.362 C 329.950 198.396,330.400 199.659,330.400 200.167 C 330.400 200.676,330.745 201.531,331.167 202.067 C 331.589 202.604,332.062 203.753,332.218 204.621 C 332.374 205.490,332.738 206.473,333.028 206.806 C 333.317 207.139,333.728 208.187,333.941 209.135 C 334.154 210.082,334.590 211.159,334.910 211.529 C 335.230 211.898,335.598 212.897,335.729 213.750 C 335.859 214.602,336.229 215.592,336.552 215.950 C 336.874 216.307,337.258 217.082,337.405 217.671 C 338.136 220.602,340.920 217.853,341.803 213.328 C 341.940 212.628,342.296 211.852,342.594 211.605 C 342.893 211.357,343.265 210.399,343.420 209.477 C 343.575 208.555,344.039 207.371,344.451 206.846 C 344.863 206.321,345.200 205.401,345.200 204.800 C 345.200 204.199,345.571 203.236,346.024 202.660 C 346.477 202.084,346.952 200.935,347.078 200.106 C 347.205 199.278,347.570 198.298,347.890 197.929 C 348.210 197.559,348.646 196.482,348.859 195.535 C 349.072 194.587,349.483 193.539,349.772 193.206 C 350.062 192.873,350.414 191.970,350.555 191.200 C 350.984 188.860,351.256 188.684,354.866 188.407 C 358.758 188.109,359.886 188.857,358.153 190.589 C 357.798 190.945,357.337 191.990,357.130 192.912 C 356.923 193.834,356.505 194.863,356.200 195.200 C 355.895 195.537,355.472 196.587,355.259 197.535 C 355.046 198.482,354.606 199.559,354.280 199.929 C 353.954 200.298,353.562 201.365,353.408 202.300 C 353.255 203.235,352.994 204.000,352.829 204.000 C 352.407 204.000,351.600 205.875,351.600 206.856 C 351.600 207.306,351.255 208.113,350.833 208.649 C 350.411 209.185,349.947 210.328,349.802 211.189 C 349.656 212.050,349.300 212.951,349.011 213.191 C 348.721 213.432,348.360 214.288,348.209 215.093 C 348.058 215.898,347.589 216.996,347.167 217.533 C 346.745 218.069,346.400 218.924,346.400 219.433 C 346.400 219.941,345.950 221.204,345.400 222.238 C 344.850 223.273,344.400 224.430,344.400 224.811 C 344.400 225.191,344.130 225.726,343.800 226.000 C 343.470 226.274,343.200 226.904,343.200 227.400 C 343.200 228.879,339.492 229.508,334.700 228.842 C 334.535 228.819,334.400 228.372,334.400 227.849 C 334.400 227.326,334.135 226.678,333.811 226.409 C 333.486 226.140,333.110 225.263,332.973 224.460 C 332.837 223.657,332.412 222.550,332.029 222.000 C 331.647 221.450,331.211 220.382,331.062 219.626 C 330.913 218.871,330.515 217.948,330.178 217.576 C 329.841 217.204,329.460 216.202,329.330 215.350 C 329.200 214.497,328.780 213.440,328.397 213.000 C 328.013 212.560,327.572 211.490,327.417 210.621 C 327.261 209.753,326.789 208.604,326.367 208.067 C 325.945 207.531,325.600 206.636,325.600 206.078 C 325.600 205.520,325.314 204.747,324.964 204.360 C 324.614 203.974,324.154 202.882,323.941 201.935 C 323.728 200.987,323.314 199.939,323.021 199.606 C 322.729 199.273,322.356 198.370,322.192 197.600 C 322.029 196.830,321.559 195.771,321.148 195.246 C 320.737 194.721,320.400 193.857,320.400 193.325 C 320.400 192.794,320.009 191.679,319.531 190.848 C 318.008 188.202,319.204 187.723,325.077 188.631 M377.200 194.627 C 374.284 196.625,373.603 197.629,372.916 200.947 C 372.394 203.470,372.398 203.907,372.960 205.084 L 373.587 206.400 382.145 206.400 C 392.247 206.400,391.750 206.627,391.543 202.098 C 391.426 199.544,391.238 198.807,390.505 198.020 C 390.012 197.491,389.516 196.776,389.402 196.429 C 388.543 193.818,380.184 192.584,377.200 194.627 M386.886 195.384 C 390.163 197.241,392.202 202.180,390.786 204.826 C 390.398 205.551,389.873 205.600,382.448 205.600 C 372.966 205.600,372.909 205.576,373.354 201.707 C 374.081 195.383,381.099 192.104,386.886 195.384 " stroke="none" fill="#949494" fill-rule="evenodd"></path></g></svg>