<svg id="svg" version="1.1" xmlns="http://www.w3.org/2000/svg" xmlns:xlink="http://www.w3.org/1999/xlink" width="400" height="400" viewBox="0, 0, 400,400"><g id="svgg"><path id="path0" d="M0.000 200.000 L 0.000 400.000 200.000 400.000 L 400.000 400.000 400.000 200.000 L 400.000 0.000 200.000 0.000 L 0.000 0.000 0.000 200.000 M294.943 155.936 C 296.671 156.389,300.834 157.033,304.193 157.368 C 307.553 157.702,311.089 158.240,312.051 158.563 C 315.667 159.776,320.213 160.800,321.986 160.800 C 322.996 160.800,324.177 161.044,324.611 161.341 C 325.045 161.639,326.696 161.988,328.280 162.116 C 333.781 162.563,336.811 165.978,336.794 171.715 C 336.785 174.662,335.796 175.600,332.696 175.600 C 331.902 175.600,331.058 175.970,330.389 176.611 C 328.583 178.341,325.327 178.483,324.760 176.856 L 324.322 175.600 312.571 175.600 L 300.821 175.600 300.206 176.789 C 299.456 178.239,297.564 178.132,296.119 176.559 C 295.472 175.855,294.815 175.600,293.644 175.600 L 292.050 175.600 290.949 178.979 C 288.463 186.613,287.868 186.408,312.435 186.374 C 335.072 186.343,334.760 186.303,336.619 189.471 C 338.225 192.207,338.062 192.824,334.065 199.140 C 333.445 200.120,330.071 200.465,325.800 199.985 C 320.067 199.340,300.086 199.612,299.636 200.341 C 299.379 200.757,299.110 200.780,298.477 200.441 C 297.611 199.978,291.319 199.826,290.233 200.243 C 288.702 200.830,289.789 208.312,291.601 209.657 C 292.758 210.516,291.991 210.498,315.920 210.200 C 333.842 209.977,332.973 209.866,335.742 212.727 C 340.318 217.454,334.811 226.701,329.161 223.780 C 328.126 223.245,325.768 223.172,312.080 223.250 C 303.346 223.299,294.155 223.307,291.656 223.266 C 288.105 223.209,286.522 223.368,284.413 223.996 C 280.793 225.074,280.379 225.029,278.782 223.381 C 277.771 222.338,277.175 222.020,276.536 222.180 C 275.767 222.373,275.617 222.170,275.243 220.426 C 274.821 218.457,274.536 167.255,274.940 166.000 C 275.046 165.670,275.237 164.925,275.363 164.345 C 275.532 163.568,276.041 163.110,277.295 162.609 C 278.232 162.234,279.088 161.807,279.199 161.660 C 279.309 161.513,280.130 160.920,281.021 160.343 C 281.913 159.765,283.803 158.273,285.221 157.026 C 288.189 154.417,288.860 154.341,294.943 155.936 M106.800 162.592 C 113.388 163.304,114.072 163.499,117.934 165.755 C 119.620 166.741,121.869 167.764,122.931 168.029 C 125.102 168.570,125.591 169.318,125.613 172.126 C 125.628 173.924,126.665 175.600,127.764 175.600 C 128.897 175.600,128.484 177.454,127.000 179.027 C 126.230 179.844,125.600 180.658,125.600 180.837 C 125.600 183.757,119.493 184.299,114.800 181.796 C 113.370 181.033,111.469 180.054,110.575 179.619 C 108.717 178.715,107.746 177.751,107.537 176.600 C 107.338 175.505,104.761 175.244,96.400 175.473 C 88.506 175.689,89.116 175.530,88.071 177.643 C 87.604 178.585,86.133 180.574,84.800 182.063 C 79.546 187.930,77.522 196.599,80.609 200.010 C 80.919 200.352,81.368 201.546,81.608 202.662 C 82.096 204.940,83.630 206.791,86.052 208.026 C 86.873 208.446,87.661 208.975,87.802 209.203 C 90.492 213.555,107.464 213.245,112.659 208.749 C 116.272 205.622,117.473 205.071,121.100 204.877 L 124.401 204.700 125.219 206.550 C 125.669 207.567,126.287 208.400,126.592 208.400 C 126.897 208.400,127.263 208.769,127.406 209.220 C 128.719 213.356,132.847 212.911,133.983 208.511 C 134.789 205.389,135.252 204.417,136.341 203.560 C 137.662 202.522,138.913 200.014,139.542 197.146 C 139.814 195.906,140.659 193.858,141.420 192.595 C 142.910 190.120,146.131 183.568,146.579 182.100 C 146.730 181.605,147.472 180.728,148.227 180.152 C 149.321 179.318,149.600 178.826,149.600 177.731 C 149.600 176.304,150.861 173.087,151.868 171.943 C 152.186 171.582,153.060 169.874,153.811 168.147 C 155.465 164.341,155.887 164.002,158.976 163.993 C 160.309 163.989,163.017 163.816,164.993 163.608 C 169.282 163.157,169.891 163.422,171.397 166.394 C 171.949 167.483,173.030 169.003,173.800 169.773 C 174.997 170.970,175.200 171.442,175.200 173.026 C 175.200 174.530,175.409 175.079,176.310 175.940 C 178.305 177.844,180.344 181.004,181.786 184.424 C 182.565 186.270,184.191 189.224,185.400 190.990 C 187.311 193.781,187.632 194.529,187.858 196.722 C 188.109 199.152,188.175 199.273,189.659 200.030 C 190.507 200.463,191.200 201.007,191.200 201.241 C 191.200 202.385,195.944 212.390,196.490 212.397 C 196.649 212.398,197.080 212.985,197.447 213.700 C 197.814 214.415,198.539 215.396,199.057 215.881 C 200.775 217.486,200.193 223.427,198.427 222.324 C 197.816 221.942,197.217 222.063,195.181 222.976 C 190.090 225.261,181.600 221.204,181.600 216.487 C 181.600 214.264,178.650 210.959,176.149 210.378 C 173.093 209.669,151.162 209.910,150.331 210.662 C 149.929 211.026,149.600 211.493,149.600 211.701 C 149.600 211.908,148.925 212.852,148.100 213.799 C 147.275 214.747,146.150 216.626,145.600 217.977 C 144.039 221.809,142.718 222.525,135.028 223.706 C 132.351 224.117,132.233 224.100,131.628 223.211 C 131.282 222.704,130.541 221.819,129.981 221.244 C 129.421 220.670,128.718 219.600,128.419 218.866 C 127.656 216.994,126.165 216.483,125.168 217.750 C 124.752 218.278,123.915 218.833,123.306 218.983 C 122.698 219.133,121.660 219.766,121.000 220.391 C 119.726 221.597,117.454 222.394,115.280 222.398 C 113.903 222.400,111.925 223.235,110.659 224.348 C 109.368 225.483,92.037 225.532,88.347 224.411 C 86.541 223.863,85.101 223.657,84.221 223.822 C 82.372 224.169,81.541 223.835,79.126 221.774 C 77.983 220.798,76.825 220.000,76.553 220.000 C 76.079 220.000,74.594 218.382,74.324 217.571 C 74.252 217.357,73.655 217.094,72.997 216.986 C 70.102 216.511,61.591 202.295,62.955 200.213 C 63.394 199.542,63.567 197.542,63.669 191.964 L 63.804 184.600 65.262 181.531 C 66.063 179.843,66.843 177.729,66.994 176.833 C 67.326 174.872,67.538 174.719,70.156 174.558 C 71.280 174.489,72.380 174.419,72.600 174.403 C 73.706 174.324,74.412 173.199,74.573 171.262 C 74.792 168.634,74.856 168.550,76.890 168.284 C 78.298 168.099,78.918 167.708,80.400 166.076 C 83.525 162.631,83.530 162.629,92.381 162.377 C 96.681 162.254,100.470 162.121,100.800 162.081 C 101.130 162.041,103.830 162.271,106.800 162.592 M215.082 163.782 C 220.686 167.409,221.231 168.258,220.362 172.000 C 219.909 173.951,219.534 185.362,219.892 186.296 C 220.640 188.244,223.767 187.410,224.807 184.985 C 225.212 184.039,225.904 183.158,226.352 183.015 C 226.798 182.874,227.816 181.867,228.615 180.779 C 229.414 179.691,230.205 178.800,230.372 178.800 C 230.539 178.800,231.683 177.918,232.914 176.841 C 234.722 175.259,235.535 174.829,237.133 174.609 C 238.880 174.369,239.138 174.208,239.332 173.241 C 239.810 170.848,244.681 166.262,247.513 165.537 C 248.455 165.296,249.473 164.745,249.776 164.313 C 250.694 163.002,260.620 162.754,263.448 163.972 C 267.152 165.567,267.042 167.152,262.999 170.428 C 261.526 171.623,260.059 173.103,259.741 173.717 C 259.035 175.080,257.772 175.600,255.174 175.600 L 253.200 175.600 254.035 176.435 C 255.831 178.231,254.255 180.452,250.358 181.613 C 248.371 182.204,247.397 182.741,246.722 183.617 C 246.215 184.275,245.382 185.347,244.871 185.999 C 244.338 186.679,243.240 187.396,242.298 187.678 C 238.218 188.900,236.511 192.293,238.900 194.433 C 242.970 198.081,245.448 200.634,246.450 202.215 C 247.073 203.197,247.850 204.000,248.178 204.000 C 248.505 204.000,249.403 204.630,250.173 205.400 C 250.943 206.170,251.931 206.800,252.368 206.800 C 253.442 206.800,255.039 207.522,257.200 208.983 C 258.886 210.123,259.253 210.204,263.000 210.261 C 265.200 210.295,267.423 210.340,267.940 210.361 C 268.457 210.383,269.515 211.035,270.291 211.811 L 271.702 213.222 271.521 216.332 C 271.297 220.213,270.266 222.592,268.800 222.616 C 268.250 222.626,267.093 222.875,266.229 223.171 C 264.356 223.812,259.039 223.541,256.600 222.679 C 255.720 222.368,254.100 221.992,253.000 221.843 C 248.497 221.232,244.562 219.056,240.600 214.983 C 238.840 213.173,236.408 211.064,235.196 210.296 C 232.777 208.762,228.701 205.048,226.865 202.703 C 225.836 201.389,225.667 201.302,225.487 201.988 C 225.375 202.418,224.474 203.258,223.486 203.855 C 220.115 205.891,219.274 209.684,220.747 216.200 L 221.561 219.800 220.107 221.292 C 217.045 224.434,211.726 225.089,208.274 222.749 C 207.353 222.125,206.330 221.606,206.000 221.595 C 204.267 221.537,203.866 220.573,203.716 216.105 C 203.637 213.737,203.550 211.260,203.524 210.600 C 203.497 209.940,203.616 208.297,203.789 206.949 C 204.040 204.993,203.958 204.116,203.381 202.605 C 202.664 200.728,202.665 200.705,203.508 200.056 C 204.329 199.424,204.359 199.099,204.354 191.000 C 204.351 186.380,204.412 181.259,204.490 179.621 C 204.568 177.982,204.418 175.606,204.157 174.339 C 203.084 169.129,203.067 167.512,204.072 166.060 C 206.080 163.161,212.174 161.900,215.082 163.782 M162.331 184.814 C 161.964 185.029,161.353 186.149,160.975 187.302 C 160.597 188.456,159.692 190.593,158.964 192.051 C 157.301 195.379,157.664 196.427,160.254 195.774 C 161.337 195.501,162.630 195.538,164.571 195.897 C 169.906 196.883,170.389 195.609,167.156 189.063 C 164.879 184.450,164.112 183.775,162.331 184.814 M275.183 227.114 C 275.410 227.932,275.597 229.075,275.598 229.657 C 275.599 230.437,275.851 230.776,276.559 230.954 C 277.086 231.086,278.266 231.819,279.180 232.583 C 281.513 234.532,282.878 234.688,286.614 233.433 C 289.524 232.456,290.010 232.409,294.676 232.659 L 299.641 232.924 300.200 234.262 C 300.866 235.855,301.053 235.894,302.035 234.647 C 302.548 233.994,303.384 233.603,304.683 233.408 C 305.727 233.252,307.244 232.786,308.054 232.372 C 310.838 230.952,312.533 230.945,314.716 232.346 C 317.418 234.080,318.683 234.251,321.370 233.246 C 322.604 232.784,324.290 232.433,325.117 232.465 C 325.944 232.498,327.009 232.316,327.484 232.062 C 329.850 230.796,332.391 232.196,333.204 235.216 C 333.457 236.153,333.934 237.192,334.266 237.523 C 334.703 237.960,334.809 238.630,334.650 239.963 C 334.530 240.973,334.253 243.507,334.034 245.592 C 333.578 249.939,333.236 250.400,330.467 250.400 C 327.893 250.400,325.200 251.827,325.200 253.191 C 325.200 255.237,322.545 255.888,319.462 254.600 C 318.572 254.228,316.747 254.000,314.662 254.000 C 312.728 254.000,310.724 253.766,309.949 253.450 C 309.207 253.148,308.240 252.969,307.800 253.053 C 306.558 253.290,302.023 252.366,301.408 251.751 C 300.956 251.298,300.763 251.293,300.329 251.720 C 299.609 252.429,294.468 254.800,293.655 254.799 C 292.420 254.796,290.401 253.255,290.387 252.306 C 290.365 250.719,289.423 249.888,288.001 250.200 C 286.607 250.506,286.632 250.462,285.985 253.748 C 285.006 258.725,281.401 260.707,278.537 257.843 L 276.800 256.105 276.800 253.076 C 276.800 249.060,275.430 248.209,274.837 251.857 C 274.217 255.672,264.272 255.928,261.824 252.191 C 261.389 251.527,260.356 250.660,259.530 250.265 L 258.027 249.547 259.227 248.373 C 259.887 247.728,260.661 247.200,260.947 247.200 C 261.233 247.200,262.141 246.615,262.964 245.900 C 264.862 244.253,264.610 243.360,261.491 240.695 C 258.997 238.564,258.704 237.717,259.422 234.714 C 259.700 233.551,260.037 232.108,260.170 231.507 C 260.842 228.470,264.010 226.412,268.080 226.369 C 269.686 226.352,271.720 226.112,272.600 225.835 C 274.566 225.216,274.670 225.268,275.183 227.114 M209.200 232.934 C 209.200 233.261,209.726 233.371,210.800 233.269 C 212.282 233.127,212.400 233.190,212.400 234.121 C 212.400 235.077,212.464 235.105,213.754 234.709 C 216.424 233.890,219.200 235.205,219.200 237.289 C 219.200 238.191,221.662 238.289,222.387 237.415 C 223.211 236.423,224.393 236.270,225.249 237.044 C 226.114 237.827,228.341 237.874,229.716 237.138 C 230.293 236.829,231.706 236.850,234.760 237.213 C 238.860 237.701,239.059 237.688,240.733 236.834 C 242.358 236.005,242.787 235.968,247.732 236.231 C 255.551 236.646,256.419 237.321,255.310 242.122 C 254.717 244.688,254.875 246.611,255.829 248.457 C 256.515 249.783,255.172 250.388,251.800 250.270 C 249.887 250.203,249.795 250.148,249.690 249.000 C 249.491 246.817,249.192 246.000,248.592 246.000 C 247.911 246.000,247.808 247.294,248.401 248.402 C 248.940 249.409,248.704 249.500,244.816 249.790 C 242.970 249.927,241.308 250.133,241.124 250.247 C 240.940 250.361,239.397 250.518,237.695 250.597 C 235.993 250.676,234.444 250.754,234.253 250.770 C 234.063 250.787,233.999 251.153,234.112 251.585 C 234.420 252.763,233.452 253.336,231.707 253.009 C 229.730 252.638,229.468 252.441,230.038 251.755 C 230.674 250.988,230.182 250.551,229.407 251.194 C 228.481 251.963,225.796 251.902,224.902 251.092 C 224.469 250.701,223.500 250.400,222.669 250.400 C 221.728 250.400,220.909 250.109,220.391 249.591 C 219.705 248.905,219.546 248.875,219.348 249.391 C 218.670 251.159,214.400 249.817,214.400 247.835 C 214.400 244.591,212.497 245.641,211.846 249.244 C 211.614 250.525,211.462 250.675,210.503 250.570 C 209.908 250.504,209.236 250.591,209.010 250.763 C 206.579 252.615,205.978 250.819,206.031 241.857 C 206.054 237.899,206.234 234.237,206.431 233.720 C 206.978 232.279,209.200 231.649,209.200 232.934 M272.667 234.667 C 272.235 235.099,272.358 235.498,273.000 235.745 C 273.408 235.901,273.600 235.723,273.600 235.187 C 273.600 234.401,273.171 234.162,272.667 234.667 M323.274 241.321 C 322.135 242.533,322.100 244.611,323.208 245.204 C 324.407 245.846,324.801 245.367,324.794 243.276 C 324.785 240.677,324.375 240.149,323.274 241.321 M310.404 241.996 C 309.670 242.730,309.576 243.992,310.201 244.718 C 310.736 245.339,312.619 244.868,313.061 244.004 C 314.070 242.027,311.964 240.436,310.404 241.996 M225.600 247.813 C 225.600 249.774,225.688 250.000,226.447 250.000 C 227.129 250.000,227.247 249.826,227.052 249.100 C 226.919 248.605,226.808 247.724,226.805 247.143 C 226.802 246.561,226.530 245.982,226.200 245.855 C 225.712 245.668,225.600 246.032,225.600 247.813 M245.900 247.010 C 245.687 248.123,246.168 248.699,246.653 247.914 C 247.150 247.110,247.107 246.000,246.580 246.000 C 246.312 246.000,246.006 246.454,245.900 247.010 " stroke="none" fill="#f37323" fill-rule="evenodd"></path><path id="path1" d="M289.628 159.092 C 289.093 159.192,287.833 159.957,286.828 160.791 C 285.822 161.625,284.362 162.531,283.583 162.804 C 282.803 163.078,281.183 164.162,279.983 165.215 L 277.800 167.130 277.800 192.465 C 277.800 218.130,277.872 219.712,279.056 220.166 C 280.233 220.618,331.071 220.497,331.924 220.041 C 333.037 219.445,333.298 214.365,332.269 213.336 C 332.179 213.246,322.167 213.134,310.021 213.086 C 288.450 213.002,287.922 212.981,287.346 212.200 C 286.554 211.125,286.706 197.932,287.520 197.119 C 287.930 196.709,292.634 196.577,309.891 196.490 C 334.496 196.366,332.800 196.622,332.800 193.031 C 332.800 189.326,334.605 189.600,310.196 189.600 C 292.139 189.600,288.424 189.506,287.776 189.032 C 286.774 188.300,286.578 176.233,287.549 175.062 C 288.048 174.461,290.123 174.400,310.231 174.400 L 332.364 174.400 332.607 173.100 C 333.716 167.173,332.897 166.478,322.800 164.775 C 321.370 164.534,319.210 164.072,318.000 163.749 C 316.790 163.426,314.360 162.915,312.600 162.615 C 303.515 161.063,301.702 160.719,300.600 160.338 C 297.745 159.353,291.819 158.680,289.628 159.092 M95.545 165.204 C 89.269 165.790,85.081 167.310,78.822 171.274 C 77.844 171.893,76.733 172.400,76.353 172.400 C 75.908 172.400,75.567 172.837,75.392 173.637 C 75.193 174.545,74.758 175.026,73.760 175.442 C 73.012 175.755,72.400 176.215,72.400 176.464 C 72.400 176.713,71.757 177.886,70.971 179.069 C 66.491 185.820,65.343 195.346,68.105 202.864 C 69.476 206.594,72.827 212.400,73.609 212.400 C 73.818 212.400,74.444 213.120,75.000 214.000 C 75.556 214.880,76.264 215.600,76.574 215.600 C 76.885 215.600,77.953 216.221,78.948 216.981 C 82.065 219.360,84.406 220.251,93.400 222.479 C 99.866 224.081,114.223 220.956,120.747 216.529 C 122.147 215.578,123.528 214.800,123.815 214.800 C 124.531 214.800,125.295 212.316,124.973 211.036 C 124.383 208.685,121.049 207.607,118.945 209.086 C 113.204 213.124,102.030 216.294,97.400 215.198 C 96.520 214.990,95.163 214.815,94.384 214.810 C 92.462 214.797,88.371 213.698,87.580 212.982 C 87.226 212.662,86.669 212.400,86.341 212.400 C 85.233 212.400,81.528 209.261,79.746 206.812 C 71.397 195.338,76.056 178.783,88.907 174.260 C 92.584 172.966,98.547 171.936,99.800 172.379 C 100.020 172.456,101.385 172.672,102.834 172.859 C 104.283 173.045,106.516 173.558,107.797 173.999 C 109.077 174.439,110.462 174.800,110.874 174.800 C 111.783 174.800,116.126 176.933,117.845 178.223 C 119.641 179.570,121.008 179.818,122.230 179.017 C 125.639 176.783,125.888 173.813,122.800 172.211 C 115.471 168.408,111.256 166.416,110.525 166.409 C 110.043 166.404,108.513 166.145,107.125 165.833 C 103.607 165.043,99.602 164.825,95.545 165.204 M159.920 167.258 C 159.133 167.546,158.291 168.649,156.814 171.327 C 155.699 173.347,154.632 175.270,154.442 175.600 C 154.252 175.930,153.587 177.334,152.965 178.720 C 152.343 180.106,151.611 181.425,151.339 181.651 C 151.067 181.877,150.553 182.938,150.197 184.008 C 149.842 185.079,149.178 186.429,148.722 187.008 C 147.856 188.109,142.800 198.112,142.800 198.724 C 142.800 198.918,142.445 199.398,142.010 199.791 C 141.576 200.184,141.103 200.887,140.959 201.353 C 140.816 201.819,140.001 203.380,139.149 204.823 C 138.297 206.266,137.600 207.644,137.600 207.885 C 137.600 208.126,136.948 209.465,136.152 210.862 C 133.871 214.859,132.000 218.680,132.000 219.341 C 132.000 220.710,138.148 221.043,139.858 219.767 C 141.067 218.864,141.095 218.821,142.814 215.200 C 145.480 209.588,146.531 207.986,148.104 207.144 C 148.522 206.921,154.885 206.774,163.487 206.790 C 181.599 206.824,180.033 206.215,184.592 215.009 C 187.240 220.117,187.565 220.401,190.770 220.395 C 196.496 220.383,196.578 219.612,191.744 211.200 C 191.175 210.210,189.695 207.455,188.455 205.077 C 187.215 202.700,185.558 199.550,184.774 198.077 C 183.990 196.605,182.129 193.069,180.639 190.221 C 179.149 187.372,177.398 184.269,176.748 183.325 C 176.099 182.381,175.322 180.932,175.021 180.104 C 174.428 178.471,172.331 174.534,169.800 170.300 C 167.765 166.896,164.043 165.750,159.920 167.258 M209.278 167.065 C 208.772 167.173,208.187 167.709,207.978 168.257 C 207.545 169.396,207.523 217.237,207.955 218.787 C 208.301 220.029,211.050 220.924,213.434 220.571 C 216.094 220.177,216.064 220.246,216.222 214.152 C 216.381 208.029,216.694 204.977,217.274 203.873 C 217.868 202.744,220.780 200.239,221.948 199.852 C 222.527 199.660,223.661 198.872,224.470 198.100 L 225.940 196.697 227.631 198.248 C 229.623 200.077,231.114 201.560,234.960 205.537 C 236.522 207.152,238.700 209.179,239.800 210.040 C 240.900 210.901,243.059 212.594,244.597 213.803 C 246.135 215.012,247.955 216.267,248.642 216.593 C 249.328 216.919,250.117 217.459,250.394 217.793 C 250.671 218.127,251.298 218.400,251.786 218.400 C 252.275 218.400,253.738 218.777,255.037 219.238 C 256.684 219.823,258.797 220.141,262.009 220.290 C 267.494 220.543,267.772 220.380,267.683 216.972 C 267.589 213.397,267.587 213.395,261.627 212.921 C 258.758 212.693,256.183 212.324,255.905 212.101 C 255.627 211.879,254.258 211.284,252.861 210.781 C 251.465 210.277,250.231 209.624,250.118 209.330 C 250.005 209.037,249.258 208.487,248.456 208.110 C 247.655 207.732,245.365 205.779,243.367 203.769 C 241.369 201.760,239.449 199.954,239.099 199.758 C 237.655 198.945,233.271 193.467,233.092 192.251 C 232.878 190.796,233.692 189.900,239.215 185.510 C 241.077 184.030,243.860 181.737,245.400 180.414 C 246.940 179.091,248.488 177.913,248.839 177.797 C 249.191 177.680,249.686 177.129,249.940 176.572 C 250.194 176.014,251.041 175.291,251.823 174.965 C 252.604 174.638,254.712 172.918,256.507 171.143 C 260.512 167.180,260.353 166.800,254.678 166.800 C 250.645 166.800,251.096 166.562,245.341 171.722 C 243.672 173.219,241.832 174.735,241.253 175.092 C 240.674 175.449,239.480 176.407,238.600 177.220 C 237.720 178.033,234.660 180.609,231.800 182.943 C 228.940 185.278,225.880 187.888,225.000 188.744 C 224.120 189.599,222.860 190.573,222.199 190.908 C 221.539 191.244,220.656 191.897,220.237 192.359 C 219.818 192.822,219.076 193.200,218.587 193.200 C 216.710 193.200,216.614 192.634,216.378 180.131 C 216.199 170.632,216.046 168.276,215.578 167.818 C 214.971 167.222,210.853 166.730,209.278 167.065 M166.144 180.934 C 167.377 182.768,168.656 184.916,168.987 185.707 C 169.317 186.498,169.757 187.250,169.963 187.377 C 170.170 187.505,170.452 188.125,170.590 188.755 C 170.729 189.386,171.293 190.509,171.844 191.251 C 175.066 195.587,175.717 198.848,173.500 199.549 C 170.988 200.345,154.003 200.003,153.140 199.140 C 151.942 197.942,152.838 194.947,155.904 189.907 C 156.804 188.426,157.663 186.806,157.812 186.307 C 158.587 183.716,162.510 177.600,163.399 177.600 C 163.676 177.600,164.911 179.100,166.144 180.934 M267.457 229.592 C 264.226 230.021,263.208 231.078,262.915 234.306 C 262.564 238.178,262.691 238.369,266.977 240.400 C 274.099 243.774,273.885 248.400,266.608 248.400 C 263.292 248.400,262.238 248.798,263.145 249.705 C 263.731 250.291,270.558 250.262,272.653 249.665 C 276.088 248.687,276.301 241.081,272.925 239.982 C 268.405 238.511,266.415 236.920,266.406 234.770 C 266.396 232.314,268.738 231.119,274.200 230.792 C 275.007 230.744,272.541 229.665,271.192 229.476 C 270.426 229.369,268.746 229.421,267.457 229.592 M292.493 236.686 C 290.227 237.746,289.849 237.782,289.200 237.000 C 287.810 235.326,285.648 237.141,284.528 240.922 C 284.190 242.065,283.496 243.720,282.986 244.600 C 282.477 245.480,281.940 246.920,281.795 247.800 C 281.649 248.680,281.155 250.338,280.697 251.486 C 280.103 252.974,279.970 253.807,280.232 254.394 C 280.801 255.666,282.284 254.414,282.844 252.189 C 283.089 251.219,283.539 250.217,283.844 249.963 C 284.150 249.710,284.400 249.004,284.400 248.395 C 284.400 247.786,285.055 245.963,285.855 244.344 C 286.656 242.725,287.532 240.770,287.803 240.000 C 288.206 238.858,289.523 238.165,289.824 238.938 C 290.608 240.949,292.634 243.154,293.915 243.391 C 298.199 244.181,298.095 249.200,293.795 249.200 C 293.002 249.200,292.450 249.357,292.568 249.548 C 292.686 249.739,294.362 249.874,296.291 249.848 L 299.800 249.800 300.142 247.787 C 300.664 244.711,299.832 243.054,297.468 242.459 C 295.449 241.950,294.400 240.815,294.400 239.138 C 294.400 237.952,294.678 237.804,297.717 237.375 C 300.371 237.000,299.902 236.246,296.862 236.000 C 294.858 235.838,294.025 235.969,292.493 236.686 M305.944 237.315 C 303.306 239.644,302.601 243.115,303.973 247.021 C 304.988 249.907,305.119 249.988,308.800 249.988 C 312.777 249.988,313.401 249.535,310.629 248.662 C 307.335 247.623,306.272 246.153,306.477 242.923 C 306.648 240.238,308.420 237.600,310.052 237.600 C 311.462 237.600,313.023 236.786,312.386 236.383 C 310.941 235.469,307.466 235.971,305.944 237.315 M319.554 236.732 C 319.029 237.134,318.307 237.570,317.948 237.701 C 315.154 238.717,315.897 248.564,318.854 249.717 C 321.352 250.692,329.186 249.899,329.209 248.669 C 329.214 248.411,329.570 247.750,330.000 247.200 C 331.616 245.134,330.504 237.600,328.583 237.600 C 328.222 237.600,327.469 237.240,326.909 236.800 C 325.512 235.701,320.952 235.659,319.554 236.732 M275.600 236.800 C 275.600 237.020,275.850 237.200,276.157 237.200 C 276.463 237.200,276.818 237.605,276.947 238.100 C 277.321 239.541,280.411 245.200,280.824 245.200 C 282.143 245.200,280.670 238.656,279.200 237.987 C 278.870 237.837,278.032 237.418,277.338 237.057 C 275.872 236.294,275.600 236.253,275.600 236.800 M326.812 238.900 C 330.443 244.797,325.110 252.099,320.725 247.235 C 318.723 245.015,318.570 242.767,320.206 239.577 C 321.527 237.000,325.398 236.604,326.812 238.900 " stroke="none" fill="#f7ecdb" fill-rule="evenodd"></path><path id="path2" d="M289.542 157.473 C 288.741 157.566,287.768 157.994,287.380 158.422 C 286.993 158.850,286.350 159.200,285.951 159.200 C 285.553 159.200,284.597 159.830,283.827 160.600 C 283.057 161.370,282.276 162.000,282.093 162.000 C 280.928 162.000,276.809 165.309,276.492 166.499 C 275.889 168.767,276.244 220.317,276.869 221.223 C 277.620 222.312,331.771 222.504,333.420 221.424 C 334.651 220.617,334.928 219.472,334.732 216.002 C 334.498 211.864,336.644 212.215,310.780 212.090 L 288.000 211.981 288.000 205.190 L 288.000 198.400 290.900 198.352 C 292.495 198.326,302.539 198.329,313.219 198.358 L 332.638 198.412 333.685 197.306 C 334.836 196.089,334.913 195.742,334.846 192.109 C 334.772 188.095,336.507 188.368,310.536 188.278 L 288.200 188.200 288.090 181.900 L 287.980 175.600 309.930 175.600 C 336.742 175.600,334.660 176.068,334.867 170.000 C 335.013 165.743,333.922 164.700,328.800 164.200 C 327.150 164.039,324.450 163.556,322.800 163.126 C 321.150 162.697,318.360 162.244,316.600 162.121 C 314.740 161.991,313.132 161.664,312.759 161.340 C 312.407 161.034,310.967 160.622,309.559 160.424 C 308.152 160.226,304.390 159.527,301.200 158.870 C 294.927 157.577,291.825 157.206,289.542 157.473 M297.230 158.800 C 299.744 159.239,302.790 159.849,304.000 160.154 C 305.210 160.459,307.513 160.939,309.118 161.222 C 310.723 161.504,312.129 161.885,312.242 162.068 C 312.355 162.250,313.382 162.404,314.524 162.410 C 315.666 162.415,317.320 162.611,318.200 162.845 C 319.080 163.079,320.700 163.451,321.800 163.672 C 322.900 163.892,324.430 164.226,325.200 164.413 C 325.970 164.600,328.009 164.972,329.731 165.239 C 333.833 165.874,334.199 166.369,333.891 170.861 C 333.585 175.317,335.838 174.925,310.315 174.965 L 287.800 175.000 287.800 181.800 L 287.800 188.600 310.280 188.800 C 335.959 189.028,333.698 188.608,333.866 193.185 C 334.029 197.625,336.055 197.272,310.050 197.341 L 287.800 197.400 287.691 204.900 L 287.582 212.400 309.691 212.405 C 336.065 212.412,333.473 212.009,333.690 216.136 C 333.885 219.853,333.623 220.666,332.088 221.095 C 330.060 221.663,278.121 221.399,277.420 220.817 C 276.583 220.122,276.466 167.387,277.300 166.303 C 278.071 165.301,282.110 162.400,282.734 162.400 C 283.262 162.400,284.879 161.239,286.996 159.341 C 288.789 157.734,290.594 157.638,297.230 158.800 M91.800 163.976 C 83.890 165.553,74.285 170.478,74.432 172.882 C 74.457 173.297,74.504 173.299,74.668 172.889 C 74.781 172.608,75.544 172.037,76.364 171.619 C 77.183 171.201,78.101 170.561,78.403 170.197 C 79.552 168.812,83.728 167.089,90.800 165.081 C 95.279 163.810,103.418 163.874,108.400 165.219 C 109.390 165.486,111.190 165.967,112.400 166.288 C 115.905 167.217,124.834 172.051,125.331 173.289 C 125.467 173.626,125.548 173.577,125.568 173.144 C 125.658 171.291,116.148 165.961,111.778 165.415 C 110.470 165.251,108.861 164.830,108.200 164.478 C 106.848 163.758,94.750 163.387,91.800 163.976 M159.400 165.485 C 158.188 165.777,156.470 167.573,156.192 168.837 C 156.056 169.456,155.628 170.376,155.241 170.881 C 154.854 171.387,153.662 173.566,152.592 175.724 C 151.522 177.882,150.515 179.729,150.354 179.828 C 150.193 179.928,149.938 180.592,149.788 181.305 C 149.637 182.017,149.187 182.960,148.789 183.400 C 148.390 183.840,147.227 185.820,146.205 187.800 C 145.182 189.780,143.278 193.380,141.974 195.800 C 140.669 198.220,139.489 200.470,139.351 200.800 C 138.386 203.113,136.457 206.866,135.518 208.258 C 134.903 209.170,134.400 210.036,134.400 210.184 C 134.400 210.730,132.444 214.703,131.242 216.598 C 128.573 220.806,129.580 222.137,135.530 222.264 C 141.251 222.386,143.126 220.553,146.609 211.433 C 147.799 208.315,147.325 208.400,163.555 208.400 L 177.939 208.400 179.184 209.448 C 179.869 210.024,180.696 211.059,181.021 211.748 C 181.347 212.437,182.236 214.170,182.998 215.600 C 183.759 217.030,184.387 218.395,184.391 218.633 C 184.396 218.872,184.999 219.760,185.731 220.606 L 187.062 222.146 191.831 222.089 C 196.367 222.034,196.642 221.983,197.455 221.046 L 198.310 220.060 197.105 217.530 C 196.442 216.139,195.407 214.280,194.805 213.400 C 194.202 212.520,193.576 211.350,193.412 210.800 C 193.248 210.250,192.613 208.990,192.000 208.000 C 191.387 207.010,190.755 205.750,190.596 205.200 C 190.437 204.650,189.838 203.574,189.265 202.810 C 188.108 201.268,187.064 199.332,186.471 197.631 C 186.256 197.015,185.636 195.808,185.093 194.947 C 184.550 194.087,182.542 190.326,180.632 186.591 C 178.721 182.856,176.808 179.553,176.379 179.251 C 175.951 178.949,175.600 178.424,175.600 178.083 C 175.600 177.327,173.418 172.753,172.085 170.715 C 171.551 169.898,170.818 168.638,170.457 167.915 C 169.289 165.577,163.922 164.397,159.400 165.485 M207.356 165.592 C 206.021 166.131,206.036 165.826,205.974 193.871 L 205.915 220.564 206.802 221.282 C 207.694 222.004,208.695 222.128,213.744 222.139 C 217.768 222.148,217.940 221.831,217.813 214.628 C 217.663 206.114,217.686 206.016,220.574 203.042 C 221.928 201.647,223.417 200.385,223.882 200.237 C 224.347 200.090,224.950 199.702,225.221 199.375 C 225.810 198.665,225.152 198.111,232.200 205.249 C 235.060 208.146,237.580 210.668,237.800 210.854 C 247.385 218.977,254.427 222.037,263.703 222.111 C 268.933 222.153,269.146 221.987,269.232 217.800 C 269.348 212.082,269.502 212.271,264.480 211.958 C 258.277 211.572,252.352 209.357,248.000 205.797 C 241.055 200.117,233.083 190.800,235.167 190.800 C 235.369 190.800,236.284 190.080,237.200 189.200 C 238.116 188.320,239.052 187.600,239.280 187.600 C 239.508 187.600,240.287 187.105,241.011 186.500 C 241.736 185.895,242.993 184.860,243.807 184.200 C 244.620 183.540,246.121 182.256,247.143 181.347 C 248.164 180.438,249.945 178.949,251.100 178.038 C 252.255 177.127,253.200 176.218,253.200 176.018 C 253.200 175.818,253.559 175.540,253.998 175.401 C 254.436 175.262,255.021 174.928,255.298 174.659 C 255.574 174.391,256.508 173.638,257.373 172.986 C 262.765 168.922,264.167 166.183,261.200 165.511 C 259.027 165.019,250.112 165.583,249.561 166.248 C 249.308 166.551,248.895 166.800,248.642 166.800 C 248.389 166.800,247.286 167.627,246.191 168.637 C 245.096 169.648,243.480 171.039,242.600 171.730 C 241.720 172.420,240.509 173.438,239.909 173.992 C 236.716 176.941,232.488 180.433,230.461 181.794 C 229.505 182.437,227.639 184.006,226.316 185.281 C 224.992 186.557,223.819 187.600,223.710 187.600 C 223.601 187.600,222.676 188.294,221.656 189.142 C 219.001 191.347,218.005 191.827,217.980 190.914 C 217.875 187.096,218.042 168.624,218.184 168.483 C 218.591 168.076,217.098 165.941,216.155 165.583 C 214.923 165.115,208.521 165.121,207.356 165.592 M168.285 166.787 C 168.992 167.218,169.982 168.360,170.485 169.325 C 170.988 170.290,172.450 173.131,173.734 175.640 C 175.017 178.148,176.704 181.280,177.482 182.600 C 178.260 183.920,179.897 186.980,181.120 189.400 C 182.343 191.820,183.827 194.520,184.417 195.400 C 185.008 196.280,185.630 197.450,185.800 198.000 C 185.971 198.550,186.445 199.429,186.855 199.954 C 187.265 200.479,187.600 201.230,187.600 201.623 C 187.600 202.017,188.050 202.873,188.600 203.527 C 189.150 204.181,189.600 204.880,189.600 205.081 C 189.600 205.282,190.215 206.468,190.967 207.717 C 191.718 208.965,192.453 210.529,192.599 211.193 C 192.744 211.857,192.997 212.400,193.161 212.400 C 193.324 212.400,194.302 214.000,195.333 215.956 C 198.016 221.044,197.627 221.583,191.406 221.398 C 186.712 221.259,186.520 221.115,183.839 215.734 C 182.980 214.010,182.161 212.510,182.018 212.400 C 181.875 212.290,181.493 211.480,181.169 210.600 C 180.082 207.648,179.811 207.601,163.760 207.601 C 146.138 207.600,148.013 206.934,144.249 214.529 C 141.001 221.083,140.395 221.750,137.831 221.591 C 136.934 221.536,135.234 221.520,134.054 221.556 C 130.916 221.651,129.993 220.420,131.388 218.000 C 131.706 217.450,132.883 215.200,134.004 213.000 C 135.126 210.800,136.382 208.370,136.797 207.600 C 137.211 206.830,138.199 204.820,138.993 203.134 C 139.786 201.448,140.698 199.851,141.018 199.585 C 141.338 199.319,141.600 198.806,141.600 198.444 C 141.600 198.082,142.050 197.123,142.600 196.314 C 143.150 195.505,143.600 194.688,143.600 194.500 C 143.600 194.311,144.115 193.344,144.745 192.351 C 145.375 191.358,146.103 189.899,146.364 189.108 C 146.625 188.318,147.083 187.577,147.382 187.462 C 147.680 187.348,148.045 186.704,148.193 186.032 C 148.341 185.359,148.615 184.714,148.803 184.598 C 148.990 184.482,149.669 183.355,150.311 182.094 C 150.953 180.832,151.772 179.260,152.132 178.600 C 152.491 177.940,153.348 176.184,154.036 174.697 C 154.724 173.210,155.467 171.882,155.688 171.746 C 155.909 171.609,156.513 170.540,157.031 169.369 C 158.276 166.553,159.290 166.036,163.600 166.018 C 166.290 166.006,167.268 166.167,168.285 166.787 M216.602 166.659 C 217.190 167.247,217.250 168.641,217.160 179.583 C 217.040 194.093,217.109 194.351,220.305 191.437 C 223.234 188.767,228.635 184.258,230.800 182.676 C 233.138 180.968,235.059 179.359,239.110 175.718 C 240.490 174.477,242.020 173.189,242.510 172.855 C 242.999 172.521,244.615 171.133,246.099 169.770 C 250.062 166.132,250.578 165.956,256.885 166.088 L 262.200 166.200 262.200 167.195 C 262.200 167.887,261.863 168.351,261.093 168.720 C 260.484 169.012,259.692 169.699,259.333 170.246 C 258.975 170.793,258.185 171.498,257.578 171.812 C 256.971 172.125,254.883 173.739,252.937 175.398 C 250.992 177.056,248.590 179.100,247.600 179.939 C 245.308 181.883,237.006 188.417,235.866 189.176 C 232.271 191.567,232.277 191.582,239.953 199.200 C 250.323 209.492,254.536 211.878,263.200 212.364 C 269.025 212.691,268.800 212.520,268.800 216.624 C 268.800 221.153,268.484 221.475,264.181 221.333 C 257.688 221.117,251.946 219.729,248.400 217.518 C 247.410 216.900,246.081 216.081,245.447 215.698 C 244.813 215.314,243.482 214.313,242.491 213.472 C 241.499 212.632,240.242 211.653,239.698 211.296 C 239.154 210.940,235.832 207.724,232.316 204.151 C 224.915 196.629,225.908 196.858,220.945 201.533 L 217.407 204.866 217.147 211.733 C 217.003 215.510,216.968 218.737,217.069 218.904 C 217.882 220.253,215.728 221.514,212.800 221.402 C 205.626 221.128,206.412 224.573,206.452 193.585 C 206.492 162.855,205.854 166.000,212.047 166.000 C 215.132 166.000,216.080 166.137,216.602 166.659 M93.200 173.575 C 91.317 173.914,89.021 174.658,88.000 175.261 C 83.263 178.058,82.303 178.859,80.478 181.532 C 73.566 191.658,75.446 203.095,85.265 210.650 C 90.013 214.304,100.286 215.626,107.000 213.448 C 108.760 212.877,110.684 212.408,111.276 212.405 C 111.868 212.402,112.466 212.217,112.605 211.992 C 112.743 211.768,113.789 211.114,114.928 210.540 C 116.068 209.965,117.588 208.981,118.307 208.353 C 120.292 206.620,121.341 206.512,123.257 207.839 C 125.590 209.457,126.938 211.336,126.577 212.473 C 126.212 213.621,124.334 216.000,123.791 216.000 C 123.566 216.000,122.718 216.547,121.907 217.216 C 120.410 218.450,115.242 220.800,114.025 220.800 C 113.659 220.800,113.170 220.990,112.939 221.221 C 112.707 221.453,110.826 222.024,108.759 222.489 C 98.097 224.889,84.841 222.833,78.162 217.743 C 77.481 217.224,76.768 216.800,76.576 216.800 C 75.977 216.800,71.481 211.878,70.547 210.200 C 66.550 203.012,65.359 198.390,65.763 191.626 C 65.887 189.550,66.171 187.669,66.394 187.446 C 66.617 187.223,66.800 186.706,66.800 186.298 C 66.800 185.380,69.047 180.037,69.781 179.208 C 70.790 178.069,72.781 174.400,72.390 174.400 C 71.143 174.400,68.273 179.378,66.567 184.500 L 65.116 188.854 65.307 194.927 C 65.590 203.916,67.503 208.749,73.136 214.707 C 76.460 218.223,83.654 222.400,86.384 222.400 C 86.807 222.400,87.249 222.556,87.367 222.746 C 88.089 223.915,100.940 224.519,106.400 223.640 C 110.764 222.938,118.540 220.377,120.804 218.896 C 121.389 218.513,122.497 217.795,123.267 217.300 C 127.309 214.700,128.239 211.986,125.980 209.377 C 122.621 205.495,121.253 205.131,118.355 207.344 C 117.387 208.083,115.643 209.170,114.479 209.760 C 113.315 210.350,112.271 211.072,112.159 211.364 C 112.042 211.667,111.008 212.006,109.748 212.155 C 108.534 212.297,106.902 212.681,106.122 213.007 C 104.149 213.831,93.445 213.826,92.000 213.000 C 91.450 212.686,90.414 212.422,89.697 212.414 C 88.808 212.404,88.111 212.073,87.500 211.371 C 87.008 210.805,85.974 209.980,85.202 209.539 C 83.114 208.344,79.618 203.671,78.007 199.922 C 76.870 197.276,76.866 190.148,78.000 187.800 C 78.425 186.920,78.781 186.020,78.790 185.800 C 78.800 185.580,79.391 184.642,80.104 183.716 C 80.817 182.790,81.850 181.392,82.400 180.611 C 82.950 179.829,84.345 178.639,85.500 177.965 C 86.655 177.292,87.600 176.488,87.600 176.178 C 87.600 175.869,88.095 175.519,88.700 175.401 C 89.305 175.283,90.520 174.988,91.400 174.745 C 96.035 173.464,106.791 174.239,110.200 176.100 C 110.640 176.341,112.170 177.134,113.600 177.862 C 115.030 178.591,116.936 179.742,117.836 180.419 C 120.700 182.575,123.714 181.539,125.454 177.800 C 125.761 177.140,126.231 176.288,126.499 175.908 C 126.893 175.348,126.864 175.093,126.349 174.578 C 125.766 173.995,125.690 174.071,125.456 175.470 C 125.277 176.538,124.615 177.627,123.260 179.078 C 120.962 181.538,120.592 181.529,117.059 178.928 C 115.768 177.978,114.486 177.200,114.210 177.200 C 113.934 177.200,113.279 176.877,112.754 176.482 C 109.965 174.382,98.330 172.653,93.200 173.575 M162.917 178.469 C 162.679 178.761,161.447 181.070,160.179 183.600 C 158.912 186.130,157.183 189.401,156.337 190.870 C 155.492 192.338,154.800 193.737,154.800 193.978 C 154.800 194.219,154.327 195.165,153.748 196.082 C 151.930 198.962,152.006 198.985,163.234 198.871 C 174.951 198.752,175.714 198.577,173.852 196.431 C 173.102 195.567,170.000 189.579,170.000 188.995 C 170.000 188.736,169.653 188.210,169.228 187.825 C 168.803 187.441,167.617 185.470,166.592 183.446 C 164.190 178.703,163.494 177.760,162.917 178.469 M166.168 183.974 C 166.516 184.262,166.800 184.662,166.800 184.862 C 166.800 185.367,167.759 187.365,169.364 190.200 C 171.630 194.206,173.267 197.667,173.014 197.919 C 172.684 198.249,154.493 198.226,154.162 197.895 C 153.929 197.663,155.943 193.463,161.776 182.012 L 163.299 179.024 164.418 181.237 C 165.033 182.454,165.821 183.685,166.168 183.974 M266.400 227.948 C 263.143 229.028,262.222 229.842,261.500 232.277 C 260.658 235.120,260.606 236.941,261.352 237.560 C 261.655 237.812,262.003 238.515,262.124 239.122 C 262.268 239.841,262.808 240.470,263.673 240.926 C 264.403 241.311,265.450 241.865,266.000 242.156 C 266.550 242.448,267.720 243.033,268.600 243.456 C 272.671 245.411,268.825 247.551,263.737 246.162 C 261.565 245.568,260.451 248.827,262.186 250.698 C 263.091 251.674,263.482 251.775,266.909 251.925 C 273.510 252.214,276.196 250.163,277.027 244.200 C 277.298 242.250,277.314 242.230,277.678 243.400 C 277.883 244.060,278.411 245.364,278.852 246.297 C 279.861 248.435,279.908 249.912,279.020 251.640 C 276.874 255.819,278.608 259.528,281.746 257.472 C 282.680 256.860,284.798 253.281,284.802 252.307 C 284.804 252.028,285.048 251.333,285.346 250.763 C 285.644 250.192,286.016 249.041,286.173 248.204 C 286.330 247.368,286.695 246.304,286.984 245.842 C 287.274 245.379,287.629 244.325,287.773 243.500 C 288.092 241.682,289.229 241.462,290.250 243.020 C 290.996 244.158,292.755 245.200,293.931 245.200 C 295.070 245.200,295.827 246.245,295.219 246.978 C 294.865 247.404,294.221 247.494,292.764 247.321 C 290.589 247.064,289.200 247.827,289.200 249.280 C 289.200 253.392,300.499 252.899,301.822 248.730 C 302.149 247.702,302.737 247.823,303.288 249.034 C 304.693 252.117,316.000 253.317,316.000 250.382 C 316.000 249.856,317.839 250.332,319.427 251.269 C 321.580 252.539,328.342 252.209,327.031 250.897 C 326.896 250.763,326.574 250.866,326.313 251.127 C 325.482 251.958,321.863 251.685,319.558 250.617 C 317.496 249.662,316.983 249.065,315.589 246.000 C 314.402 243.393,315.493 239.509,318.256 236.500 L 319.818 234.800 323.020 234.800 C 326.000 234.800,327.387 235.209,328.400 236.386 C 328.510 236.514,329.088 236.929,329.683 237.308 C 333.335 239.631,332.439 247.772,328.251 250.317 C 327.428 250.816,327.433 250.825,328.400 250.576 C 331.724 249.721,334.029 243.972,332.400 240.600 C 331.287 238.295,331.351 237.200,332.600 237.200 C 333.226 237.200,333.600 236.974,333.600 236.595 C 333.600 236.117,333.276 236.042,332.055 236.238 C 330.779 236.442,330.210 236.286,328.783 235.342 C 327.174 234.278,326.782 234.200,323.082 234.200 L 319.108 234.200 317.812 235.700 C 316.241 237.518,315.459 237.591,314.794 235.985 C 314.093 234.294,313.326 234.000,309.607 234.000 L 306.362 234.000 304.632 235.706 C 303.349 236.971,302.828 237.848,302.616 239.104 C 302.081 242.270,301.424 242.589,298.499 241.108 C 295.811 239.746,295.756 239.264,298.254 238.929 C 299.106 238.815,300.325 238.305,300.963 237.797 L 302.121 236.873 301.161 235.657 C 299.791 233.923,295.132 233.247,292.262 234.366 C 291.425 234.692,290.724 234.689,289.613 234.357 C 286.632 233.464,284.863 234.625,283.844 238.144 C 283.325 239.936,282.000 240.718,282.000 239.232 C 282.000 237.984,278.783 234.947,276.847 234.367 L 275.184 233.869 275.276 231.533 C 275.340 229.909,275.189 229.018,274.780 228.608 C 274.087 227.915,267.955 227.432,266.400 227.948 M273.540 228.839 C 274.596 229.207,274.799 229.482,274.794 230.539 C 274.784 232.593,274.510 232.739,271.463 232.327 C 266.151 231.608,264.364 236.468,269.514 237.625 C 276.345 239.160,278.564 247.004,273.062 250.166 C 269.771 252.058,263.766 252.035,262.515 250.127 C 261.667 248.833,262.240 246.935,263.420 247.128 C 268.453 247.951,270.499 247.486,270.892 245.432 C 271.166 243.997,270.299 242.977,268.194 242.260 C 267.196 241.920,265.909 241.272,265.335 240.821 C 264.762 240.369,264.037 240.000,263.726 240.000 C 261.686 240.000,261.465 231.696,263.465 230.183 C 265.563 228.596,270.828 227.893,273.540 228.839 M273.100 233.924 C 273.375 234.270,273.600 235.002,273.600 235.551 C 273.600 236.099,273.994 236.967,274.475 237.480 C 275.789 238.878,274.841 239.677,273.257 238.506 C 272.626 238.039,271.430 237.529,270.600 237.374 C 267.861 236.860,266.434 234.035,268.500 233.219 C 269.730 232.733,272.489 233.156,273.100 233.924 M209.234 233.937 C 208.006 236.231,207.611 238.425,207.604 243.000 C 207.599 245.640,207.402 248.497,207.166 249.348 C 206.653 251.194,207.050 251.747,208.404 251.074 C 209.320 250.619,209.421 250.290,209.665 246.990 C 209.881 244.071,210.162 242.957,211.171 241.032 L 212.412 238.664 211.536 237.732 L 210.661 236.800 211.530 235.874 C 212.926 234.389,212.696 233.200,211.014 233.200 C 210.077 233.200,209.500 233.439,209.234 233.937 M210.494 235.287 C 210.081 236.144,210.052 236.116,210.027 234.820 C 210.006 233.768,210.111 233.551,210.467 233.907 C 210.812 234.252,210.819 234.612,210.494 235.287 M300.110 235.688 C 301.215 236.973,300.015 238.140,297.949 237.791 C 293.833 237.096,293.749 240.300,297.845 241.745 C 306.031 244.634,300.277 253.777,291.831 251.302 C 288.690 250.381,289.545 248.200,293.047 248.200 C 297.603 248.200,297.939 245.541,293.544 244.270 C 292.135 243.863,291.621 243.443,290.870 242.083 C 289.525 239.649,288.273 239.729,287.457 242.300 C 285.215 249.370,282.736 255.476,281.767 256.319 C 278.875 258.836,277.878 253.186,280.648 249.975 C 281.208 249.327,280.874 247.253,280.050 246.260 C 279.839 246.006,279.284 244.827,278.816 243.640 C 278.348 242.453,277.613 241.034,277.183 240.487 C 276.752 239.940,276.400 239.177,276.400 238.792 C 276.400 238.407,275.950 237.797,275.400 237.437 C 274.289 236.709,274.068 235.302,275.007 234.942 C 275.796 234.639,277.527 235.368,278.975 236.612 C 279.607 237.156,280.264 237.600,280.435 237.600 C 280.800 237.600,280.983 238.184,281.606 241.323 L 282.066 243.645 283.015 242.621 C 283.537 242.058,284.077 240.923,284.216 240.099 C 285.052 235.117,286.518 233.927,289.773 235.586 C 291.270 236.350,291.345 236.351,292.358 235.643 C 293.968 234.517,294.424 234.419,297.000 234.648 C 298.750 234.803,299.592 235.085,300.110 235.688 M313.387 235.585 C 314.419 236.726,313.887 237.546,311.915 237.851 C 305.602 238.828,305.642 248.005,311.960 248.106 C 314.561 248.147,315.518 250.388,313.300 251.245 C 309.845 252.580,305.195 250.846,303.527 247.600 L 302.396 245.400 302.978 241.835 C 303.828 236.632,305.610 234.800,309.821 234.800 C 312.150 234.800,312.807 234.945,313.387 235.585 M210.579 237.935 C 210.708 238.339,210.417 239.554,209.934 240.635 C 209.304 242.043,208.989 243.734,208.823 246.600 L 208.590 250.600 208.324 244.458 C 208.177 241.080,208.153 238.065,208.271 237.758 C 208.588 236.933,210.303 237.065,210.579 237.935 M226.386 238.166 C 226.064 238.477,225.170 239.074,224.400 239.494 C 221.216 241.228,220.810 248.667,223.800 250.466 C 226.765 252.250,227.069 252.253,230.650 250.537 C 232.524 249.640,232.719 249.416,232.916 247.946 C 233.035 247.062,233.430 246.009,233.794 245.607 C 236.584 242.524,229.373 235.281,226.386 238.166 M238.668 238.157 C 236.118 238.760,235.970 239.126,235.704 245.462 L 235.477 250.872 236.439 250.736 C 237.311 250.613,237.430 250.341,237.729 247.800 C 237.910 246.260,238.229 244.730,238.438 244.400 C 238.647 244.070,239.198 242.944,239.663 241.897 C 240.325 240.407,240.779 239.924,241.754 239.668 C 243.370 239.244,243.653 240.233,243.506 245.800 L 243.400 249.800 244.396 249.800 C 245.505 249.800,245.855 248.863,245.967 245.600 C 246.001 244.610,246.286 243.350,246.600 242.800 C 248.607 239.289,244.368 236.808,238.668 238.157 M248.543 238.206 C 248.376 238.639,248.742 239.228,249.647 239.985 L 251.000 241.117 251.000 245.659 L 251.000 250.200 252.000 250.200 C 253.314 250.200,253.833 246.817,253.339 241.470 L 253.000 237.800 250.896 237.679 C 249.250 237.584,248.737 237.699,248.543 238.206 M314.621 240.854 C 314.223 242.194,314.082 243.629,314.235 244.782 C 314.533 247.038,312.978 248.020,310.650 247.046 C 306.609 245.357,307.349 239.715,311.707 238.984 C 312.638 238.828,313.760 238.447,314.200 238.139 C 315.310 237.361,315.429 238.133,314.621 240.854 M215.419 238.900 C 215.310 239.395,215.135 240.970,215.028 242.400 C 214.922 243.830,214.716 245.887,214.571 246.972 C 214.353 248.606,214.432 249.034,215.030 249.472 C 216.371 250.452,216.800 250.121,216.804 248.100 C 216.809 245.698,218.213 242.619,220.371 240.277 C 222.354 238.126,222.367 238.000,220.590 238.000 C 219.421 238.000,219.108 238.188,218.758 239.100 L 218.336 240.200 217.453 239.100 C 216.381 237.765,215.682 237.696,215.419 238.900 M322.058 238.539 C 320.071 239.426,319.015 243.308,320.159 245.521 C 321.995 249.072,325.529 248.982,327.048 245.346 C 328.702 241.387,325.491 237.007,322.058 238.539 M245.590 242.534 C 245.334 243.230,245.056 245.041,244.972 246.557 C 244.743 250.674,244.552 250.163,244.257 244.649 C 243.941 238.728,244.178 237.611,245.291 239.780 C 245.934 241.034,245.981 241.468,245.590 242.534 M238.800 240.995 C 238.800 241.736,238.499 242.644,238.132 243.011 C 237.659 243.484,237.409 244.609,237.280 246.848 C 237.127 249.479,236.465 251.728,236.374 249.924 C 236.251 247.492,236.519 242.181,236.816 241.143 C 237.482 238.822,238.800 238.724,238.800 240.995 M325.571 240.254 C 327.536 242.752,325.727 248.021,323.206 247.142 C 321.386 246.508,320.661 245.405,320.629 243.223 C 320.577 239.705,323.675 237.844,325.571 240.254 M217.059 243.147 C 216.434 245.265,216.000 244.877,216.000 242.200 C 216.000 239.777,216.366 239.196,217.059 240.518 C 217.454 241.273,217.454 241.809,217.059 243.147 M230.392 241.184 C 232.283 244.890,230.166 250.198,226.906 249.923 C 223.927 249.672,223.679 244.517,226.498 241.432 C 228.564 239.171,229.340 239.121,230.392 241.184 M232.542 240.500 C 232.672 240.995,232.656 242.120,232.507 243.000 L 232.237 244.600 231.966 243.400 C 231.340 240.631,231.874 237.946,232.542 240.500 M252.800 246.024 C 252.800 248.141,252.637 249.600,252.400 249.600 C 252.161 249.600,252.000 248.059,252.000 245.776 C 252.000 243.329,252.144 242.042,252.400 242.200 C 252.620 242.336,252.800 244.057,252.800 246.024 M223.194 246.276 C 223.197 246.758,223.020 247.264,222.800 247.400 C 222.557 247.550,222.402 246.972,222.406 245.924 C 222.411 244.663,222.516 244.361,222.800 244.800 C 223.013 245.130,223.191 245.794,223.194 246.276 " stroke="none" fill="#e2a06d" fill-rule="evenodd"></path><path id="path3" d="M288.477 158.272 C 288.190 158.388,287.523 158.868,286.996 159.341 C 284.879 161.239,283.262 162.400,282.734 162.400 C 282.110 162.400,278.071 165.301,277.300 166.303 C 276.466 167.387,276.583 220.122,277.420 220.817 C 278.121 221.399,330.060 221.663,332.088 221.095 C 333.623 220.666,333.885 219.853,333.690 216.136 C 333.473 212.009,336.065 212.412,309.691 212.405 L 287.582 212.400 287.691 204.900 L 287.800 197.400 310.050 197.341 C 336.055 197.272,334.029 197.625,333.866 193.185 C 333.698 188.608,335.959 189.028,310.280 188.800 L 287.800 188.600 287.800 181.800 L 287.800 175.000 310.315 174.965 C 335.838 174.925,333.585 175.317,333.891 170.861 C 334.199 166.369,333.833 165.874,329.731 165.239 C 328.009 164.972,325.970 164.600,325.200 164.413 C 324.430 164.226,322.900 163.892,321.800 163.672 C 320.700 163.451,319.080 163.079,318.200 162.845 C 317.320 162.611,315.666 162.415,314.524 162.410 C 313.382 162.404,312.355 162.250,312.242 162.068 C 312.129 161.885,310.723 161.504,309.118 161.222 C 307.513 160.939,305.210 160.459,304.000 160.154 C 297.813 158.595,290.029 157.651,288.477 158.272 M296.000 159.376 C 297.870 159.678,299.940 160.111,300.600 160.338 C 301.702 160.719,303.515 161.063,312.600 162.615 C 314.360 162.915,316.790 163.426,318.000 163.749 C 319.210 164.072,321.370 164.534,322.800 164.775 C 332.897 166.478,333.716 167.173,332.607 173.100 L 332.364 174.400 310.231 174.400 C 290.123 174.400,288.048 174.461,287.549 175.062 C 286.578 176.233,286.774 188.300,287.776 189.032 C 288.424 189.506,292.139 189.600,310.196 189.600 C 334.605 189.600,332.800 189.326,332.800 193.031 C 332.800 196.622,334.496 196.366,309.891 196.490 C 292.634 196.577,287.930 196.709,287.520 197.119 C 286.706 197.932,286.554 211.125,287.346 212.200 C 287.922 212.981,288.450 213.002,310.021 213.086 C 322.167 213.134,332.179 213.246,332.269 213.336 C 333.298 214.365,333.037 219.445,331.924 220.041 C 331.071 220.497,280.233 220.618,279.056 220.166 C 277.872 219.712,277.800 218.130,277.800 192.465 L 277.800 167.130 279.983 165.215 C 281.183 164.162,282.803 163.078,283.583 162.804 C 284.362 162.531,285.822 161.625,286.828 160.791 C 289.356 158.693,290.584 158.504,296.000 159.376 M94.400 164.369 C 88.828 165.120,79.923 168.365,78.402 170.198 C 78.100 170.561,77.180 171.202,76.356 171.623 C 75.532 172.043,74.739 172.761,74.594 173.219 C 74.449 173.677,73.949 174.193,73.483 174.365 C 72.031 174.902,67.476 182.832,66.915 185.800 C 66.790 186.460,66.529 187.202,66.336 187.450 C 66.143 187.697,65.884 189.587,65.761 191.650 C 65.360 198.389,66.554 203.020,70.547 210.200 C 71.481 211.878,75.977 216.800,76.576 216.800 C 76.768 216.800,77.481 217.224,78.162 217.743 C 84.841 222.833,98.097 224.889,108.759 222.489 C 110.826 222.024,112.707 221.453,112.939 221.221 C 113.170 220.990,113.659 220.800,114.025 220.800 C 115.242 220.800,120.410 218.450,121.907 217.216 C 122.718 216.547,123.566 216.000,123.791 216.000 C 124.334 216.000,126.212 213.621,126.577 212.473 C 126.938 211.336,125.590 209.457,123.257 207.839 C 121.341 206.512,120.292 206.620,118.307 208.353 C 117.588 208.981,116.068 209.965,114.928 210.540 C 113.789 211.114,112.743 211.768,112.605 211.992 C 112.466 212.217,111.868 212.402,111.276 212.405 C 110.684 212.408,108.760 212.877,107.000 213.448 C 95.207 217.274,81.596 211.495,77.509 200.927 C 74.546 193.265,77.865 181.798,84.221 177.735 C 85.310 177.040,86.678 176.095,87.263 175.635 C 87.848 175.176,88.622 174.800,88.983 174.800 C 89.344 174.800,90.216 174.491,90.920 174.114 C 94.366 172.266,109.307 173.887,112.754 176.482 C 113.279 176.877,113.934 177.200,114.210 177.200 C 114.486 177.200,115.768 177.978,117.059 178.928 C 120.593 181.529,120.963 181.538,123.253 179.078 C 125.210 176.975,125.910 175.206,125.409 173.629 C 124.771 171.618,112.877 165.600,109.541 165.600 C 109.119 165.600,108.169 165.347,107.428 165.038 C 105.826 164.368,97.554 163.944,94.400 164.369 M107.125 165.833 C 108.513 166.145,110.043 166.404,110.525 166.409 C 111.256 166.416,115.471 168.408,122.800 172.211 C 125.888 173.813,125.639 176.783,122.230 179.017 C 121.008 179.818,119.641 179.570,117.845 178.223 C 116.126 176.933,111.783 174.800,110.874 174.800 C 110.462 174.800,109.077 174.439,107.797 173.999 C 106.516 173.558,104.283 173.045,102.834 172.859 C 101.385 172.672,100.020 172.456,99.800 172.379 C 98.547 171.936,92.584 172.966,88.907 174.260 C 76.056 178.783,71.397 195.338,79.746 206.812 C 81.528 209.261,85.233 212.400,86.341 212.400 C 86.669 212.400,87.226 212.662,87.580 212.982 C 88.371 213.698,92.462 214.797,94.384 214.810 C 95.163 214.815,96.520 214.990,97.400 215.198 C 102.030 216.294,113.204 213.124,118.945 209.086 C 121.049 207.607,124.383 208.685,124.973 211.036 C 125.295 212.316,124.531 214.800,123.815 214.800 C 123.528 214.800,122.147 215.578,120.747 216.529 C 114.223 220.956,99.866 224.081,93.400 222.479 C 84.406 220.251,82.065 219.360,78.948 216.981 C 77.953 216.221,76.885 215.600,76.574 215.600 C 76.264 215.600,75.556 214.880,75.000 214.000 C 74.444 213.120,73.818 212.400,73.609 212.400 C 72.827 212.400,69.476 206.594,68.105 202.864 C 65.343 195.346,66.491 185.820,70.971 179.069 C 71.757 177.886,72.400 176.713,72.400 176.464 C 72.400 176.215,73.012 175.755,73.760 175.442 C 74.758 175.026,75.193 174.545,75.392 173.637 C 75.567 172.837,75.908 172.400,76.353 172.400 C 76.733 172.400,77.844 171.893,78.822 171.274 C 88.082 165.410,97.328 163.633,107.125 165.833 M159.086 166.636 C 158.390 167.014,157.619 168.038,157.031 169.369 C 156.513 170.540,155.909 171.609,155.688 171.746 C 155.467 171.882,154.724 173.210,154.036 174.697 C 153.348 176.184,152.491 177.940,152.132 178.600 C 151.772 179.260,150.953 180.832,150.311 182.094 C 149.669 183.355,148.990 184.482,148.803 184.598 C 148.615 184.714,148.341 185.359,148.193 186.032 C 148.045 186.704,147.680 187.348,147.382 187.462 C 147.083 187.577,146.625 188.318,146.364 189.108 C 146.103 189.899,145.375 191.358,144.745 192.351 C 144.115 193.344,143.600 194.311,143.600 194.500 C 143.600 194.688,143.150 195.505,142.600 196.314 C 142.050 197.123,141.600 198.082,141.600 198.444 C 141.600 198.806,141.338 199.319,141.018 199.585 C 140.698 199.851,139.786 201.448,138.993 203.134 C 138.199 204.820,137.211 206.830,136.797 207.600 C 136.382 208.370,135.126 210.800,134.004 213.000 C 132.883 215.200,131.706 217.450,131.388 218.000 C 129.993 220.420,130.916 221.651,134.054 221.556 C 135.234 221.520,136.934 221.536,137.831 221.591 C 140.395 221.750,141.001 221.083,144.249 214.529 C 148.013 206.934,146.138 207.600,163.760 207.601 C 179.811 207.601,180.082 207.648,181.169 210.600 C 181.493 211.480,181.875 212.290,182.018 212.400 C 182.161 212.510,182.980 214.010,183.839 215.734 C 186.520 221.115,186.712 221.259,191.406 221.398 C 197.627 221.583,198.016 221.044,195.333 215.956 C 194.302 214.000,193.324 212.400,193.161 212.400 C 192.997 212.400,192.744 211.857,192.599 211.193 C 192.453 210.529,191.718 208.965,190.967 207.717 C 190.215 206.468,189.600 205.282,189.600 205.081 C 189.600 204.880,189.150 204.181,188.600 203.527 C 188.050 202.873,187.600 202.017,187.600 201.623 C 187.600 201.230,187.265 200.479,186.855 199.954 C 186.445 199.429,185.971 198.550,185.800 198.000 C 185.630 197.450,185.008 196.280,184.417 195.400 C 183.827 194.520,182.343 191.820,181.120 189.400 C 179.897 186.980,178.260 183.920,177.482 182.600 C 176.704 181.280,175.017 178.148,173.734 175.640 C 172.450 173.131,170.988 170.290,170.485 169.325 C 168.834 166.156,162.657 164.700,159.086 166.636 M207.319 166.775 C 206.493 167.545,206.486 167.751,206.452 193.585 C 206.414 222.974,206.210 221.120,209.500 221.267 C 213.894 221.462,214.690 221.439,215.687 221.092 C 216.720 220.733,217.462 219.557,217.069 218.904 C 216.968 218.737,217.003 215.506,217.147 211.725 L 217.408 204.849 220.204 202.193 C 223.239 199.310,222.521 198.772,219.346 201.552 C 216.731 203.843,216.465 204.901,216.228 213.953 C 216.063 220.264,216.100 220.176,213.434 220.571 C 210.769 220.966,208.314 220.044,207.914 218.499 C 207.329 216.243,207.713 168.126,208.321 167.520 C 209.124 166.718,214.667 166.895,215.522 167.750 C 216.105 168.334,216.211 169.845,216.358 179.709 C 216.569 193.792,217.107 192.733,217.160 178.129 C 217.195 168.743,217.114 167.171,216.571 166.629 C 215.562 165.619,208.439 165.732,207.319 166.775 M250.089 166.659 C 249.368 167.017,247.568 168.422,246.089 169.779 C 244.610 171.137,242.999 172.521,242.510 172.855 C 242.020 173.189,240.490 174.477,239.110 175.718 C 235.059 179.359,233.138 180.968,230.800 182.676 C 228.635 184.258,223.234 188.767,220.305 191.437 C 218.634 192.961,217.834 193.134,217.232 192.100 C 217.008 191.715,216.819 191.589,216.812 191.820 C 216.770 193.269,219.084 193.633,220.237 192.359 C 220.656 191.897,221.539 191.244,222.199 190.908 C 222.860 190.573,224.120 189.599,225.000 188.744 C 225.880 187.888,228.940 185.278,231.800 182.943 C 234.660 180.609,237.720 178.033,238.600 177.220 C 239.480 176.407,240.674 175.449,241.253 175.092 C 241.832 174.735,243.672 173.219,245.341 171.722 C 251.096 166.562,250.645 166.800,254.678 166.800 C 260.353 166.800,260.512 167.180,256.507 171.143 C 254.712 172.918,252.604 174.638,251.823 174.965 C 251.041 175.291,250.202 175.998,249.957 176.535 C 249.712 177.072,249.127 177.691,248.656 177.910 C 248.185 178.130,246.373 179.544,244.629 181.054 C 241.769 183.530,238.523 186.188,234.909 189.011 C 234.198 189.566,233.410 190.421,233.157 190.910 C 232.726 191.742,232.772 191.733,233.848 190.775 C 234.482 190.211,235.389 189.491,235.866 189.175 C 237.002 188.420,245.300 181.890,247.600 179.939 C 248.590 179.100,250.992 177.056,252.937 175.398 C 254.883 173.739,256.971 172.125,257.578 171.812 C 258.185 171.498,258.975 170.793,259.333 170.246 C 259.692 169.699,260.484 169.012,261.093 168.720 C 261.863 168.351,262.200 167.887,262.200 167.195 L 262.200 166.200 256.800 166.103 C 252.468 166.026,251.141 166.135,250.089 166.659 M167.040 167.212 C 167.847 167.498,168.687 168.438,169.800 170.300 C 172.331 174.534,174.428 178.471,175.021 180.104 C 175.322 180.932,176.099 182.381,176.748 183.325 C 177.398 184.269,179.149 187.372,180.639 190.221 C 182.129 193.069,183.990 196.605,184.774 198.077 C 185.558 199.550,187.215 202.700,188.455 205.077 C 189.695 207.455,191.175 210.210,191.744 211.200 C 196.578 219.612,196.496 220.383,190.770 220.395 C 187.565 220.401,187.240 220.117,184.592 215.009 C 180.033 206.215,181.599 206.824,163.487 206.790 C 154.885 206.774,148.522 206.921,148.104 207.144 C 146.531 207.986,145.480 209.588,142.814 215.200 C 141.095 218.821,141.067 218.864,139.858 219.767 C 138.148 221.043,132.000 220.710,132.000 219.341 C 132.000 218.680,133.871 214.859,136.152 210.862 C 136.948 209.465,137.600 208.126,137.600 207.885 C 137.600 207.644,138.297 206.266,139.149 204.823 C 140.001 203.380,140.816 201.819,140.959 201.353 C 141.103 200.887,141.576 200.184,142.010 199.791 C 142.445 199.398,142.800 198.918,142.800 198.724 C 142.800 198.112,147.856 188.109,148.722 187.008 C 149.178 186.429,149.842 185.079,150.197 184.008 C 150.553 182.938,151.067 181.877,151.339 181.651 C 151.611 181.425,152.343 180.106,152.965 178.720 C 153.587 177.334,154.252 175.930,154.442 175.600 C 154.632 175.270,155.699 173.347,156.814 171.327 C 158.291 168.649,159.133 167.546,159.920 167.258 C 161.369 166.728,165.601 166.701,167.040 167.212 M161.914 178.900 C 160.719 180.483,158.185 185.061,157.812 186.307 C 157.663 186.806,156.804 188.426,155.904 189.907 C 152.838 194.947,151.942 197.942,153.140 199.140 C 154.003 200.003,170.988 200.345,173.500 199.549 C 175.717 198.848,175.066 195.587,171.844 191.251 C 171.293 190.509,170.729 189.386,170.590 188.755 C 170.452 188.125,170.170 187.505,169.963 187.377 C 169.757 187.250,169.317 186.498,168.987 185.707 C 168.093 183.568,163.979 177.600,163.399 177.600 C 163.122 177.600,162.454 178.185,161.914 178.900 M166.592 183.446 C 167.617 185.470,168.803 187.441,169.228 187.825 C 169.653 188.210,170.000 188.736,170.000 188.995 C 170.000 189.579,173.102 195.567,173.852 196.431 C 175.714 198.577,174.951 198.752,163.234 198.871 C 152.006 198.985,151.930 198.962,153.748 196.082 C 154.327 195.165,154.800 194.219,154.800 193.978 C 154.800 193.737,155.492 192.338,156.337 190.870 C 157.183 189.401,158.912 186.130,160.179 183.600 C 163.601 176.771,163.217 176.780,166.592 183.446 M233.232 192.607 C 233.201 193.401,237.832 199.045,239.099 199.758 C 239.449 199.954,241.369 201.760,243.367 203.769 C 245.365 205.779,247.655 207.732,248.456 208.110 C 249.258 208.487,250.005 209.037,250.118 209.330 C 250.231 209.624,251.465 210.277,252.861 210.781 C 254.258 211.284,255.627 211.879,255.905 212.101 C 256.183 212.324,258.758 212.693,261.627 212.921 C 267.587 213.395,267.589 213.397,267.683 216.972 C 267.772 220.380,267.494 220.543,262.009 220.290 C 258.797 220.141,256.684 219.823,255.037 219.238 C 253.738 218.777,252.275 218.400,251.786 218.400 C 251.298 218.400,250.671 218.127,250.394 217.793 C 250.117 217.459,249.328 216.919,248.642 216.593 C 247.955 216.267,246.135 215.012,244.597 213.803 C 243.059 212.594,240.900 210.901,239.800 210.040 C 238.700 209.179,236.522 207.152,234.960 205.537 C 226.947 197.250,225.979 196.455,225.145 197.479 C 224.672 198.061,224.688 198.117,225.262 197.902 C 225.745 197.721,227.648 199.407,232.316 204.151 C 235.832 207.725,239.154 210.940,239.698 211.296 C 240.242 211.653,241.499 212.632,242.491 213.472 C 243.482 214.313,244.813 215.314,245.447 215.698 C 246.081 216.081,247.410 216.900,248.400 217.518 C 251.946 219.729,257.688 221.117,264.181 221.333 C 268.484 221.475,268.800 221.153,268.800 216.624 C 268.800 212.520,269.025 212.691,263.200 212.364 C 257.788 212.060,252.475 210.169,248.460 207.118 C 245.888 205.163,233.834 193.312,233.490 192.400 C 233.327 191.969,233.254 192.028,233.232 192.607 M265.800 229.045 C 263.476 229.891,262.773 230.552,262.374 232.270 C 261.593 235.636,262.356 240.000,263.726 240.000 C 264.037 240.000,264.762 240.369,265.335 240.821 C 265.909 241.272,267.196 241.920,268.194 242.260 C 270.299 242.977,271.166 243.997,270.892 245.432 C 270.499 247.486,268.453 247.951,263.420 247.128 C 262.240 246.935,261.667 248.833,262.515 250.127 C 263.766 252.035,269.771 252.058,273.062 250.166 C 278.564 247.004,276.345 239.160,269.514 237.625 C 264.364 236.468,266.151 231.608,271.463 232.327 C 274.510 232.739,274.784 232.593,274.794 230.539 C 274.804 228.460,269.727 227.617,265.800 229.045 M273.592 230.219 C 274.146 230.521,274.420 230.779,274.200 230.792 C 264.086 231.397,263.328 236.858,272.925 239.982 C 276.301 241.081,276.088 248.687,272.653 249.665 C 270.558 250.262,263.731 250.291,263.145 249.705 C 262.238 248.798,263.292 248.400,266.608 248.400 C 273.885 248.400,274.099 243.774,266.977 240.400 C 262.691 238.369,262.564 238.178,262.915 234.306 C 263.318 229.861,268.963 227.700,273.592 230.219 M210.027 234.820 C 210.052 236.116,210.081 236.144,210.494 235.287 C 210.819 234.612,210.812 234.252,210.467 233.907 C 210.111 233.551,210.006 233.768,210.027 234.820 M294.000 234.674 C 293.670 234.806,292.931 235.242,292.358 235.643 C 291.345 236.351,291.270 236.350,289.773 235.586 C 286.518 233.927,285.052 235.117,284.216 240.099 C 284.077 240.923,283.537 242.058,283.015 242.621 L 282.066 243.645 281.606 241.323 C 280.983 238.184,280.800 237.600,280.435 237.600 C 280.264 237.600,279.607 237.156,278.975 236.612 C 277.527 235.368,275.796 234.639,275.007 234.942 C 274.068 235.302,274.289 236.709,275.400 237.437 C 275.950 237.797,276.400 238.407,276.400 238.792 C 276.400 239.177,276.752 239.940,277.183 240.487 C 277.613 241.034,278.348 242.453,278.816 243.640 C 279.284 244.827,279.839 246.006,280.050 246.260 C 280.874 247.253,281.208 249.327,280.648 249.975 C 277.878 253.186,278.875 258.836,281.767 256.319 C 282.736 255.476,285.215 249.370,287.457 242.300 C 288.273 239.729,289.525 239.649,290.870 242.083 C 291.621 243.443,292.135 243.863,293.544 244.270 C 297.939 245.541,297.603 248.200,293.047 248.200 C 289.545 248.200,288.690 250.381,291.831 251.302 C 296.853 252.773,302.000 249.886,302.000 245.598 C 302.000 244.529,299.706 242.402,297.845 241.745 C 295.012 240.746,293.924 239.003,295.500 237.990 C 296.154 237.569,296.152 237.555,295.467 237.770 C 295.064 237.896,294.659 238.000,294.567 238.000 C 294.475 238.000,294.400 238.500,294.400 239.111 C 294.400 240.814,295.439 241.948,297.468 242.459 C 299.832 243.054,300.664 244.711,300.142 247.787 L 299.800 249.800 296.291 249.848 C 294.362 249.874,292.686 249.739,292.568 249.548 C 292.450 249.357,293.002 249.200,293.795 249.200 C 298.095 249.200,298.199 244.181,293.915 243.391 C 292.634 243.154,290.608 240.949,289.824 238.938 C 289.523 238.165,288.206 238.858,287.803 240.000 C 287.532 240.770,286.656 242.725,285.855 244.344 C 285.055 245.963,284.400 247.786,284.400 248.395 C 284.400 249.004,284.150 249.710,283.844 249.963 C 283.539 250.217,283.089 251.219,282.844 252.189 C 282.284 254.414,280.801 255.666,280.232 254.394 C 279.970 253.807,280.103 252.974,280.697 251.486 C 281.155 250.338,281.649 248.680,281.795 247.800 C 281.940 246.920,282.477 245.480,282.986 244.600 C 283.496 243.720,284.190 242.065,284.528 240.922 C 285.648 237.141,287.810 235.326,289.200 237.000 C 289.849 237.782,290.227 237.746,292.493 236.686 C 294.025 235.969,294.858 235.838,296.862 236.000 C 299.336 236.200,300.793 237.200,298.610 237.200 C 298.007 237.200,297.659 237.372,297.800 237.600 C 298.196 238.241,299.419 238.063,300.148 237.257 C 301.590 235.665,296.682 233.603,294.000 234.674 M305.263 236.535 C 303.673 238.156,303.522 238.507,302.978 241.835 L 302.396 245.400 303.527 247.600 C 305.195 250.846,309.845 252.580,313.300 251.245 C 315.518 250.388,314.561 248.147,311.960 248.106 C 305.642 248.005,305.602 238.828,311.915 237.851 C 315.820 237.247,314.141 234.800,309.821 234.800 C 306.982 234.800,306.957 234.809,305.263 236.535 M318.238 236.500 C 313.690 241.547,314.311 248.186,319.558 250.617 C 326.700 253.926,333.843 247.957,331.566 240.584 C 330.989 238.715,330.466 237.806,329.683 237.308 C 329.088 236.929,328.510 236.514,328.400 236.386 C 327.385 235.206,326.000 234.800,322.996 234.800 L 319.769 234.800 318.238 236.500 M312.386 236.383 C 313.023 236.786,311.462 237.600,310.052 237.600 C 308.420 237.600,306.648 240.238,306.477 242.923 C 306.272 246.153,307.335 247.623,310.629 248.662 C 313.401 249.535,312.777 249.988,308.800 249.988 C 305.119 249.988,304.988 249.907,303.973 247.021 C 301.974 241.332,304.680 236.041,309.600 236.021 C 310.810 236.016,312.064 236.179,312.386 236.383 M326.909 236.800 C 327.469 237.240,328.222 237.600,328.583 237.600 C 330.504 237.600,331.616 245.134,330.000 247.200 C 329.570 247.750,329.214 248.411,329.209 248.669 C 329.186 249.899,321.352 250.692,318.854 249.717 C 315.897 248.564,315.154 238.717,317.948 237.701 C 318.307 237.570,319.029 237.134,319.554 236.732 C 320.952 235.659,325.512 235.701,326.909 236.800 M277.338 237.057 C 278.032 237.418,278.870 237.837,279.200 237.987 C 280.670 238.656,282.143 245.200,280.824 245.200 C 280.411 245.200,277.321 239.541,276.947 238.100 C 276.818 237.605,276.463 237.200,276.157 237.200 C 275.850 237.200,275.600 237.020,275.600 236.800 C 275.600 236.253,275.872 236.294,277.338 237.057 M208.271 237.758 C 208.153 238.065,208.177 241.080,208.324 244.458 L 208.590 250.600 208.823 246.600 C 208.989 243.734,209.304 242.043,209.934 240.635 C 210.417 239.554,210.708 238.339,210.579 237.935 C 210.303 237.065,208.588 236.933,208.271 237.758 M321.356 237.906 C 319.967 238.825,318.739 242.745,319.255 244.614 C 320.682 249.784,325.910 250.004,327.831 244.975 C 329.536 240.509,324.965 235.518,321.356 237.906 M326.819 240.438 C 329.144 244.995,324.966 250.302,321.459 247.247 C 319.530 245.567,319.108 242.933,320.370 240.459 C 321.854 237.550,325.340 237.539,326.819 240.438 M244.260 238.989 C 243.993 239.683,244.388 249.745,244.671 249.463 C 244.752 249.381,244.888 248.074,244.972 246.557 C 245.056 245.041,245.334 243.230,245.590 242.534 C 245.981 241.468,245.934 241.034,245.291 239.780 C 244.671 238.573,244.477 238.423,244.260 238.989 M237.674 239.555 C 236.723 240.142,236.122 244.935,236.374 249.924 C 236.465 251.728,237.127 249.479,237.280 246.848 C 237.409 244.609,237.659 243.484,238.132 243.011 C 239.313 241.830,238.910 238.790,237.674 239.555 M216.281 239.852 C 215.915 240.218,215.915 244.182,216.281 244.548 C 216.884 245.151,217.584 241.522,217.059 240.518 C 216.786 239.997,216.436 239.697,216.281 239.852 M231.647 240.900 C 231.673 241.615,231.817 242.740,231.966 243.400 L 232.237 244.600 232.507 243.000 C 232.798 241.277,232.525 239.600,231.953 239.600 C 231.759 239.600,231.621 240.185,231.647 240.900 M252.000 245.776 C 252.000 248.059,252.161 249.600,252.400 249.600 C 252.637 249.600,252.800 248.141,252.800 246.024 C 252.800 244.057,252.620 242.336,252.400 242.200 C 252.144 242.042,252.000 243.329,252.000 245.776 M222.406 245.924 C 222.402 246.972,222.557 247.550,222.800 247.400 C 223.307 247.086,223.307 245.585,222.800 244.800 C 222.516 244.361,222.411 244.663,222.406 245.924 " stroke="none" fill="#f6bd85" fill-rule="evenodd"></path><path id="path4" d="M285.221 157.026 C 283.803 158.273,281.913 159.765,281.021 160.343 C 280.130 160.920,279.309 161.513,279.199 161.660 C 279.088 161.807,278.232 162.234,277.295 162.609 C 276.041 163.110,275.532 163.568,275.363 164.345 C 275.237 164.925,275.046 165.670,274.940 166.000 C 274.834 166.330,274.763 178.267,274.783 192.526 C 274.820 218.983,275.007 222.713,276.272 222.228 C 276.598 222.103,276.947 222.000,277.047 222.000 C 277.147 222.000,277.028 221.625,276.783 221.168 C 276.236 220.147,275.962 168.492,276.492 166.499 C 276.809 165.309,280.928 162.000,282.093 162.000 C 282.276 162.000,283.057 161.370,283.827 160.600 C 284.597 159.830,285.524 159.200,285.888 159.200 C 286.251 159.200,286.960 158.813,287.463 158.341 C 288.852 157.036,293.481 157.189,301.000 158.788 C 304.300 159.490,308.152 160.226,309.559 160.424 C 310.967 160.622,312.407 161.034,312.759 161.340 C 313.132 161.664,314.740 161.991,316.600 162.121 C 318.360 162.244,321.150 162.697,322.800 163.126 C 324.450 163.556,327.150 164.039,328.800 164.200 C 333.922 164.700,335.013 165.743,334.867 170.000 C 334.733 173.917,334.491 174.698,333.274 175.144 C 332.316 175.494,332.294 175.540,333.074 175.568 C 336.674 175.699,337.858 172.448,336.006 167.515 C 334.649 163.899,332.599 162.467,328.280 162.116 C 326.696 161.988,325.045 161.639,324.611 161.341 C 324.177 161.044,322.996 160.800,321.986 160.800 C 320.213 160.800,315.667 159.776,312.051 158.563 C 311.089 158.240,307.553 157.702,304.193 157.368 C 300.834 157.033,296.671 156.389,294.943 155.936 C 288.860 154.341,288.189 154.417,285.221 157.026 M92.381 162.377 C 83.530 162.629,83.525 162.631,80.400 166.076 C 78.918 167.708,78.298 168.099,76.890 168.284 C 74.931 168.541,74.966 168.506,74.588 170.524 L 74.303 172.042 75.653 171.121 C 76.396 170.614,77.632 169.721,78.402 169.135 C 84.449 164.528,102.844 161.657,108.200 164.484 C 108.861 164.832,110.470 165.251,111.778 165.415 C 114.403 165.743,123.611 170.122,124.900 171.656 L 125.600 172.489 125.600 171.470 C 125.600 169.355,124.965 168.536,122.931 168.029 C 121.869 167.764,119.620 166.741,117.934 165.755 C 114.128 163.531,105.003 161.574,100.800 162.081 C 100.470 162.121,96.681 162.254,92.381 162.377 M207.200 163.805 C 203.149 165.491,202.673 167.138,204.157 174.339 C 204.418 175.606,204.568 177.982,204.490 179.621 C 204.412 181.259,204.351 186.380,204.354 191.000 C 204.359 199.099,204.329 199.424,203.508 200.056 C 202.665 200.705,202.664 200.728,203.381 202.605 C 203.958 204.116,204.040 204.993,203.789 206.949 C 203.616 208.297,203.497 209.940,203.524 210.600 C 203.550 211.260,203.637 213.737,203.716 216.105 C 203.866 220.573,204.267 221.537,206.000 221.595 C 206.330 221.606,207.353 222.125,208.274 222.749 C 211.726 225.089,217.045 224.434,220.107 221.292 L 221.561 219.800 220.747 216.200 C 219.274 209.684,220.115 205.891,223.486 203.855 C 224.474 203.258,225.375 202.418,225.487 201.988 C 225.667 201.302,225.836 201.389,226.865 202.703 C 228.701 205.048,232.777 208.762,235.196 210.296 C 236.408 211.064,238.840 213.173,240.600 214.983 C 244.562 219.056,248.497 221.232,253.000 221.843 C 254.100 221.992,255.720 222.368,256.600 222.679 C 259.039 223.541,264.356 223.812,266.229 223.171 C 267.093 222.875,268.250 222.626,268.800 222.616 C 270.266 222.592,271.297 220.213,271.521 216.332 L 271.702 213.222 270.291 211.811 C 269.515 211.035,268.457 210.383,267.940 210.361 C 267.423 210.340,265.200 210.295,263.000 210.261 C 259.253 210.204,258.886 210.123,257.200 208.983 C 255.039 207.522,253.442 206.800,252.368 206.800 C 251.931 206.800,250.943 206.170,250.173 205.400 C 249.403 204.630,248.505 204.000,248.178 204.000 C 247.850 204.000,247.073 203.197,246.450 202.215 C 245.448 200.634,242.970 198.081,238.900 194.433 C 236.511 192.293,238.218 188.900,242.298 187.678 C 243.240 187.396,244.338 186.679,244.871 185.999 C 245.382 185.347,246.215 184.275,246.722 183.617 C 247.397 182.741,248.371 182.204,250.358 181.613 C 254.032 180.518,255.634 178.490,254.282 176.643 C 253.688 175.832,252.500 176.615,247.143 181.356 C 246.121 182.260,244.620 183.540,243.807 184.200 C 242.993 184.860,241.736 185.895,241.011 186.500 C 240.287 187.105,239.508 187.600,239.280 187.600 C 239.052 187.600,238.116 188.320,237.200 189.200 C 236.284 190.080,235.369 190.800,235.167 190.800 C 233.083 190.800,241.055 200.117,248.000 205.797 C 252.352 209.357,258.277 211.572,264.480 211.958 C 269.502 212.271,269.348 212.082,269.232 217.800 C 269.146 221.987,268.933 222.153,263.703 222.111 C 254.427 222.037,247.385 218.977,237.800 210.854 C 237.580 210.668,235.060 208.146,232.200 205.249 C 225.152 198.111,225.810 198.665,225.221 199.375 C 224.950 199.702,224.347 200.090,223.882 200.237 C 223.417 200.385,221.928 201.647,220.574 203.042 C 217.686 206.016,217.663 206.114,217.813 214.628 C 217.948 222.263,217.975 222.225,212.197 222.129 C 206.566 222.036,206.142 221.764,205.946 218.121 C 205.554 210.822,206.212 166.427,206.720 165.920 C 207.310 165.329,213.215 164.964,215.434 165.380 C 216.789 165.634,218.638 167.692,218.179 168.434 C 218.041 168.658,217.877 187.178,217.980 190.914 C 218.005 191.827,219.001 191.347,221.656 189.142 C 222.676 188.294,223.601 187.600,223.710 187.600 C 223.819 187.600,224.992 186.557,226.316 185.281 C 227.639 184.006,229.505 182.437,230.461 181.794 C 232.488 180.433,236.716 176.941,239.909 173.992 C 240.509 173.438,241.720 172.420,242.600 171.730 C 243.480 171.039,245.096 169.648,246.191 168.637 C 247.286 167.627,248.389 166.800,248.642 166.800 C 248.895 166.800,249.308 166.551,249.561 166.248 C 250.112 165.583,259.027 165.019,261.200 165.511 C 264.167 166.183,262.749 168.949,257.373 172.979 C 256.508 173.627,255.710 174.273,255.600 174.413 C 255.490 174.553,255.040 174.873,254.600 175.122 C 253.905 175.516,254.020 175.577,255.474 175.588 C 257.767 175.604,259.055 175.040,259.741 173.717 C 260.059 173.103,261.526 171.623,262.999 170.428 C 267.042 167.152,267.152 165.567,263.448 163.972 C 260.620 162.754,250.694 163.002,249.776 164.313 C 249.473 164.745,248.455 165.296,247.513 165.537 C 244.681 166.262,239.810 170.848,239.332 173.241 C 239.138 174.208,238.880 174.369,237.133 174.609 C 235.535 174.829,234.722 175.259,232.914 176.841 C 231.683 177.918,230.539 178.800,230.372 178.800 C 230.205 178.800,229.414 179.691,228.615 180.779 C 227.816 181.867,226.798 182.874,226.352 183.015 C 225.904 183.158,225.212 184.039,224.807 184.985 C 223.767 187.410,220.640 188.244,219.892 186.296 C 219.534 185.362,219.909 173.951,220.362 172.000 C 221.128 168.702,220.991 168.241,218.700 166.427 C 213.635 162.416,211.633 161.960,207.200 163.805 M164.800 163.614 C 163.370 163.775,160.929 163.928,159.376 163.953 C 155.849 164.012,155.491 164.281,153.811 168.147 C 153.060 169.874,152.186 171.582,151.868 171.943 C 150.861 173.087,149.600 176.304,149.600 177.731 C 149.600 178.826,149.321 179.318,148.227 180.152 C 147.472 180.728,146.730 181.605,146.579 182.100 C 146.131 183.568,142.910 190.120,141.420 192.595 C 140.659 193.858,139.814 195.906,139.542 197.146 C 138.913 200.014,137.662 202.522,136.341 203.560 C 135.252 204.417,134.789 205.389,133.983 208.511 C 132.847 212.911,128.719 213.356,127.406 209.220 C 127.263 208.769,126.897 208.400,126.592 208.400 C 126.287 208.400,125.669 207.567,125.219 206.550 L 124.401 204.700 121.100 204.877 C 117.473 205.071,116.272 205.622,112.659 208.749 C 107.464 213.245,90.492 213.555,87.802 209.203 C 87.661 208.975,86.873 208.446,86.052 208.026 C 83.630 206.791,82.096 204.940,81.608 202.662 C 81.368 201.546,80.919 200.352,80.609 200.010 C 77.522 196.599,79.546 187.930,84.800 182.063 C 86.133 180.574,87.604 178.585,88.071 177.643 C 89.116 175.530,88.506 175.689,96.400 175.473 C 104.761 175.244,107.338 175.505,107.537 176.600 C 107.746 177.751,108.717 178.715,110.575 179.619 C 111.469 180.054,113.370 181.033,114.800 181.796 C 119.493 184.299,125.600 183.757,125.600 180.837 C 125.600 180.658,126.230 179.844,127.000 179.027 C 128.555 177.379,128.899 175.600,127.662 175.600 C 126.822 175.600,125.813 176.611,125.446 177.821 C 124.421 181.198,120.603 182.501,117.836 180.419 C 116.936 179.742,115.030 178.591,113.600 177.862 C 112.170 177.134,110.640 176.341,110.200 176.100 C 106.791 174.239,96.035 173.464,91.400 174.745 C 90.520 174.988,89.305 175.283,88.700 175.401 C 88.095 175.519,87.600 175.869,87.600 176.178 C 87.600 176.488,86.655 177.292,85.500 177.965 C 84.345 178.639,82.950 179.829,82.400 180.611 C 81.850 181.392,80.817 182.790,80.104 183.716 C 79.391 184.642,78.800 185.580,78.790 185.800 C 78.781 186.020,78.425 186.920,78.000 187.800 C 76.866 190.148,76.870 197.276,78.007 199.922 C 79.618 203.671,83.114 208.344,85.202 209.539 C 85.974 209.980,87.008 210.805,87.500 211.371 C 88.111 212.073,88.808 212.404,89.697 212.414 C 90.414 212.422,91.450 212.686,92.000 213.000 C 93.445 213.826,104.149 213.831,106.122 213.007 C 106.902 212.681,108.534 212.297,109.748 212.155 C 111.008 212.006,112.042 211.667,112.159 211.364 C 112.271 211.072,113.315 210.350,114.479 209.760 C 115.643 209.170,117.387 208.083,118.355 207.344 C 121.253 205.131,122.621 205.495,125.980 209.377 C 128.239 211.986,127.309 214.700,123.267 217.300 C 122.497 217.795,121.389 218.513,120.804 218.896 C 118.540 220.377,110.764 222.938,106.400 223.640 C 100.940 224.519,88.089 223.915,87.367 222.746 C 87.249 222.556,86.807 222.400,86.384 222.400 C 83.654 222.400,76.460 218.223,73.136 214.707 C 67.503 208.749,65.590 203.916,65.307 194.927 L 65.116 188.854 66.586 184.441 C 67.395 182.014,68.454 179.437,68.939 178.714 C 69.424 177.991,70.230 176.699,70.731 175.843 L 71.640 174.286 69.787 174.540 C 67.377 174.870,67.318 174.918,66.994 176.833 C 66.843 177.729,66.063 179.843,65.262 181.531 L 63.804 184.600 63.669 191.964 C 63.567 197.542,63.394 199.542,62.955 200.213 C 61.591 202.295,70.102 216.511,72.997 216.986 C 73.655 217.094,74.252 217.357,74.324 217.571 C 74.594 218.382,76.079 220.000,76.553 220.000 C 76.825 220.000,77.983 220.798,79.126 221.774 C 81.541 223.835,82.372 224.169,84.221 223.822 C 85.101 223.657,86.541 223.863,88.347 224.411 C 92.037 225.532,109.368 225.483,110.659 224.348 C 111.925 223.235,113.903 222.400,115.280 222.398 C 117.454 222.394,119.726 221.597,121.000 220.391 C 121.660 219.766,122.698 219.133,123.306 218.983 C 123.915 218.833,124.752 218.278,125.168 217.750 C 126.224 216.407,127.672 216.997,128.520 219.117 C 129.316 221.106,130.326 221.643,130.077 219.944 C 129.953 219.099,130.297 218.130,131.305 216.485 C 132.654 214.286,134.400 210.727,134.400 210.180 C 134.400 210.035,134.903 209.170,135.518 208.258 C 136.457 206.866,138.386 203.113,139.351 200.800 C 139.489 200.470,140.669 198.220,141.974 195.800 C 143.278 193.380,145.182 189.780,146.205 187.800 C 147.227 185.820,148.390 183.840,148.789 183.400 C 149.187 182.960,149.637 182.017,149.788 181.305 C 149.938 180.592,150.193 179.928,150.354 179.828 C 150.515 179.729,151.522 177.882,152.592 175.724 C 153.662 173.566,154.854 171.387,155.241 170.881 C 155.628 170.376,156.056 169.456,156.192 168.837 C 157.188 164.302,168.293 163.584,170.457 167.915 C 170.818 168.638,171.551 169.898,172.085 170.715 C 173.418 172.753,175.600 177.327,175.600 178.083 C 175.600 178.424,175.951 178.949,176.379 179.251 C 176.808 179.553,178.721 182.856,180.632 186.591 C 182.542 190.326,184.550 194.087,185.093 194.947 C 185.636 195.808,186.256 197.015,186.471 197.631 C 187.064 199.332,188.108 201.268,189.265 202.810 C 189.838 203.574,190.437 204.650,190.596 205.200 C 190.755 205.750,191.387 207.010,192.000 208.000 C 192.613 208.990,193.248 210.250,193.412 210.800 C 193.576 211.350,194.202 212.520,194.805 213.400 C 195.407 214.280,196.442 216.139,197.105 217.530 L 198.310 220.060 197.455 221.046 C 196.642 221.983,196.367 222.034,191.831 222.089 L 187.062 222.146 185.731 220.606 C 184.999 219.760,184.396 218.872,184.391 218.633 C 184.387 218.395,183.759 217.030,182.998 215.600 C 182.236 214.170,181.347 212.437,181.021 211.748 C 180.696 211.059,179.869 210.024,179.184 209.448 L 177.939 208.400 163.555 208.400 C 147.325 208.400,147.799 208.315,146.609 211.433 C 143.098 220.625,141.257 222.402,135.390 222.255 C 131.053 222.147,130.866 222.176,131.250 222.894 C 131.841 223.999,132.530 224.132,135.303 223.681 C 142.826 222.456,144.052 221.776,145.600 217.977 C 146.150 216.626,147.275 214.747,148.100 213.799 C 148.925 212.852,149.600 211.908,149.600 211.701 C 149.600 211.493,149.929 211.026,150.331 210.662 C 151.162 209.910,173.093 209.669,176.149 210.378 C 178.650 210.959,181.600 214.264,181.600 216.487 C 181.600 221.204,190.090 225.261,195.181 222.976 C 197.217 222.063,197.816 221.942,198.427 222.324 C 200.193 223.427,200.775 217.486,199.057 215.881 C 198.539 215.396,197.814 214.415,197.447 213.700 C 197.080 212.985,196.649 212.398,196.490 212.397 C 195.944 212.390,191.200 202.385,191.200 201.241 C 191.200 201.007,190.507 200.463,189.659 200.030 C 188.175 199.273,188.109 199.152,187.858 196.722 C 187.632 194.529,187.311 193.781,185.400 190.990 C 184.191 189.224,182.565 186.270,181.786 184.424 C 180.344 181.004,178.305 177.844,176.310 175.940 C 175.409 175.079,175.200 174.530,175.200 173.026 C 175.200 171.442,174.997 170.970,173.800 169.773 C 173.030 169.003,171.953 167.492,171.407 166.414 C 170.375 164.377,169.060 163.156,168.011 163.261 C 167.675 163.295,166.230 163.454,164.800 163.614 M288.090 181.900 L 288.200 188.200 310.536 188.278 C 336.507 188.368,334.772 188.095,334.846 192.109 C 334.913 195.742,334.836 196.089,333.685 197.306 L 332.638 198.412 313.219 198.358 C 302.539 198.329,292.495 198.326,290.900 198.352 L 288.000 198.400 288.000 205.190 L 288.000 211.981 310.780 212.090 C 336.644 212.215,334.498 211.864,334.732 216.002 C 335.105 222.596,337.730 222.066,304.936 222.017 L 277.419 221.975 278.788 223.388 C 280.379 225.029,280.795 225.074,284.413 223.996 C 286.522 223.368,288.105 223.209,291.656 223.266 C 294.155 223.307,303.346 223.299,312.080 223.250 C 325.768 223.172,328.126 223.245,329.161 223.780 C 330.955 224.708,332.155 224.540,334.032 223.100 C 338.299 219.825,338.927 216.017,335.742 212.727 C 332.973 209.866,333.842 209.977,315.920 210.200 C 291.991 210.498,292.758 210.516,291.601 209.657 C 289.789 208.312,288.702 200.830,290.233 200.243 C 291.319 199.826,297.611 199.978,298.477 200.441 C 299.110 200.780,299.379 200.757,299.636 200.341 C 300.086 199.612,320.067 199.340,325.800 199.985 C 330.071 200.465,333.445 200.120,334.065 199.140 C 338.062 192.824,338.225 192.207,336.619 189.471 C 334.760 186.303,335.072 186.343,312.435 186.374 C 287.176 186.409,287.857 186.749,291.896 176.100 C 292.032 175.740,291.509 175.600,290.033 175.600 L 287.980 175.600 288.090 181.900 M295.600 175.938 C 295.600 177.670,299.388 178.370,300.206 176.789 L 300.821 175.600 298.210 175.600 C 296.775 175.600,295.600 175.752,295.600 175.938 M324.400 175.774 C 324.400 178.262,328.190 178.792,330.373 176.609 L 331.382 175.600 327.891 175.600 C 325.971 175.600,324.400 175.678,324.400 175.774 M161.776 182.012 C 155.943 193.463,153.929 197.663,154.162 197.895 C 154.493 198.226,172.684 198.249,173.014 197.919 C 173.267 197.667,171.630 194.206,169.364 190.200 C 167.759 187.365,166.800 185.367,166.800 184.862 C 166.800 184.662,166.516 184.262,166.168 183.974 C 165.821 183.685,165.033 182.454,164.418 181.237 L 163.299 179.024 161.776 182.012 M164.912 185.102 C 165.261 185.489,166.271 187.271,167.156 189.063 C 170.389 195.609,169.906 196.883,164.571 195.897 C 162.630 195.538,161.337 195.501,160.254 195.774 C 157.664 196.427,157.301 195.379,158.964 192.051 C 159.692 190.593,160.597 188.456,160.975 187.302 C 161.897 184.489,163.531 183.576,164.912 185.102 M272.600 225.835 C 271.720 226.112,269.686 226.352,268.080 226.369 C 264.010 226.412,260.842 228.470,260.170 231.507 C 260.037 232.108,259.700 233.551,259.422 234.714 C 258.704 237.717,258.997 238.564,261.491 240.695 C 264.066 242.895,264.722 244.181,263.794 245.207 C 263.016 246.066,263.437 246.285,266.534 246.633 C 270.080 247.032,271.500 244.849,268.600 243.456 C 267.720 243.033,266.550 242.448,266.000 242.156 C 265.450 241.865,264.403 241.311,263.673 240.926 C 262.808 240.470,262.268 239.841,262.124 239.122 C 262.003 238.515,261.655 237.812,261.352 237.560 C 259.623 236.125,261.528 230.254,264.155 228.922 C 267.742 227.103,274.105 227.268,275.084 229.204 C 275.741 230.502,275.797 229.324,275.183 227.114 C 274.670 225.268,274.566 225.216,272.600 225.835 M275.200 232.337 C 275.200 233.791,275.288 233.900,276.855 234.369 C 278.783 234.947,282.000 237.987,282.000 239.232 C 282.000 240.718,283.325 239.936,283.844 238.144 C 284.855 234.654,286.638 233.465,289.553 234.339 C 290.634 234.663,291.430 234.648,292.673 234.281 C 293.682 233.983,295.467 233.871,297.182 233.999 C 299.574 234.176,300.004 234.114,299.906 233.605 C 299.660 232.318,290.372 232.191,286.654 233.424 C 282.968 234.647,281.428 234.521,279.491 232.839 C 276.577 230.308,275.200 230.147,275.200 232.337 M309.997 231.574 C 309.446 231.741,308.454 232.159,307.792 232.501 C 307.131 232.843,305.733 233.251,304.687 233.408 C 302.455 233.743,300.839 235.283,301.670 236.284 C 302.334 237.084,300.306 238.654,298.254 238.929 C 295.756 239.264,295.811 239.746,298.499 241.108 C 301.424 242.589,302.081 242.270,302.616 239.104 C 302.828 237.848,303.349 236.971,304.632 235.706 L 306.362 234.000 309.607 234.000 C 313.326 234.000,314.093 234.294,314.794 235.985 C 315.459 237.591,316.241 237.518,317.812 235.700 L 319.108 234.200 323.082 234.200 C 326.747 234.200,327.185 234.285,328.719 235.300 C 331.312 237.015,333.552 236.656,333.038 234.609 C 332.433 232.198,329.631 230.913,327.484 232.062 C 327.009 232.316,325.944 232.498,325.117 232.465 C 324.290 232.433,322.608 232.783,321.379 233.242 C 318.696 234.246,317.309 234.069,314.800 232.400 C 312.995 231.200,311.865 231.006,309.997 231.574 M207.694 232.436 C 207.196 232.624,206.623 233.213,206.421 233.745 C 205.883 235.161,206.086 249.695,206.647 249.882 C 207.317 250.106,207.600 248.018,207.600 242.844 C 207.600 239.185,207.771 237.720,208.400 236.000 C 209.621 232.659,209.446 231.774,207.694 232.436 M268.500 233.219 C 266.434 234.035,267.861 236.860,270.600 237.374 C 271.430 237.529,272.607 238.025,273.217 238.475 C 274.211 239.210,275.203 239.211,275.198 238.476 C 275.197 238.324,274.560 237.507,273.782 236.660 C 272.637 235.414,272.459 235.011,272.847 234.543 C 273.748 233.458,270.443 232.451,268.500 233.219 M213.000 234.933 C 210.946 235.865,210.532 236.663,211.545 237.741 L 212.407 238.659 211.103 241.229 C 209.379 244.630,209.124 250.477,210.694 250.597 C 211.425 250.653,211.636 250.403,211.848 249.233 C 212.254 246.987,213.149 245.460,213.762 245.969 C 214.557 246.629,215.200 244.772,215.200 241.814 C 215.200 237.795,215.813 237.057,217.453 239.100 L 218.336 240.200 218.768 239.074 C 220.083 235.646,216.731 233.239,213.000 234.933 M240.603 236.862 C 239.068 237.686,238.844 237.699,234.752 237.212 C 229.462 236.583,228.337 236.959,231.106 238.431 C 233.450 239.677,235.122 244.139,233.794 245.607 C 233.430 246.009,233.031 247.090,232.908 248.010 C 232.728 249.352,232.478 249.754,231.642 250.048 C 230.636 250.401,229.400 252.229,229.941 252.563 C 231.713 253.658,234.491 253.034,234.122 251.624 C 233.992 251.127,234.187 250.795,234.703 250.631 C 235.403 250.409,235.503 249.871,235.709 245.223 C 235.994 238.822,236.064 238.682,239.272 238.096 C 244.944 237.059,248.556 239.378,246.600 242.800 C 245.867 244.083,245.826 246.000,246.533 246.000 C 247.100 246.000,247.168 247.081,246.653 247.914 C 246.484 248.188,246.177 248.309,245.972 248.183 C 245.768 248.056,245.600 248.334,245.600 248.801 C 245.600 249.536,245.799 249.632,247.100 249.524 C 248.202 249.433,248.558 249.241,248.440 248.800 C 247.902 246.777,247.931 246.000,248.547 246.000 C 249.188 246.000,249.488 246.784,249.690 248.997 C 249.753 249.679,250.058 250.242,250.400 250.306 C 250.905 250.402,251.000 249.686,251.000 245.768 L 251.000 241.116 249.647 239.984 C 247.695 238.352,248.145 237.521,250.896 237.679 L 253.000 237.800 253.310 240.600 C 253.481 242.140,253.512 244.975,253.380 246.900 C 253.124 250.627,253.142 250.658,255.132 249.964 C 256.337 249.544,256.363 249.488,255.826 248.450 C 254.875 246.611,254.718 244.686,255.310 242.122 C 256.426 237.294,255.548 236.627,247.600 236.257 C 242.578 236.023,242.088 236.065,240.603 236.862 M222.889 237.023 C 222.400 237.365,222.000 237.840,222.000 238.078 C 222.000 238.316,221.267 239.306,220.371 240.277 C 216.945 243.994,215.454 250.000,217.957 250.000 C 218.624 250.000,219.213 249.742,219.348 249.391 C 219.546 248.875,219.705 248.905,220.391 249.591 C 220.836 250.036,221.631 250.400,222.157 250.400 L 223.114 250.400 222.357 248.915 C 220.911 246.079,222.059 240.781,224.400 239.496 C 226.512 238.335,226.626 238.114,225.564 237.229 C 224.390 236.251,224.030 236.224,222.889 237.023 M331.614 238.100 C 331.621 238.595,331.975 239.720,332.400 240.600 C 333.647 243.181,332.867 246.678,330.460 249.300 L 329.450 250.400 330.849 250.400 C 333.186 250.400,333.593 249.806,334.004 245.792 C 334.207 243.817,334.489 241.525,334.630 240.701 C 335.065 238.168,334.612 237.200,332.992 237.200 C 331.811 237.200,331.602 237.336,331.614 238.100 M314.200 238.139 C 313.760 238.447,312.638 238.828,311.707 238.984 C 307.349 239.715,306.609 245.357,310.650 247.046 C 312.978 248.020,314.533 247.038,314.235 244.782 C 314.082 243.629,314.223 242.194,314.621 240.854 C 315.429 238.133,315.310 237.361,314.200 238.139 M241.743 239.670 C 240.762 239.928,240.338 240.373,239.810 241.700 C 239.438 242.635,238.900 243.670,238.616 244.000 C 238.023 244.689,237.396 250.231,237.879 250.517 C 238.056 250.622,239.305 250.526,240.655 250.306 C 243.490 249.842,243.630 249.546,243.548 244.200 C 243.481 239.827,243.260 239.272,241.743 239.670 M321.570 240.233 C 320.355 241.527,320.242 244.721,321.368 245.964 C 322.518 247.235,324.218 247.665,324.939 246.867 C 328.331 243.119,325.006 236.573,321.570 240.233 M226.498 241.432 C 224.531 243.585,224.176 245.051,224.959 247.800 L 225.528 249.800 225.564 247.713 C 225.603 245.473,226.794 244.926,226.805 247.143 C 226.820 250.045,227.763 250.736,229.303 248.973 C 231.247 246.748,231.674 243.697,230.392 241.184 C 229.340 239.121,228.564 239.171,226.498 241.432 M324.794 243.276 C 324.801 245.367,324.407 245.846,323.208 245.204 C 322.100 244.611,322.135 242.533,323.274 241.321 C 324.375 240.149,324.785 240.677,324.794 243.276 M313.037 242.204 C 313.859 243.444,312.920 245.027,311.427 244.918 C 310.125 244.823,310.181 244.865,309.829 243.720 C 309.237 241.794,311.924 240.523,313.037 242.204 M287.773 243.500 C 287.629 244.325,287.274 245.379,286.984 245.842 C 286.695 246.304,286.330 247.368,286.173 248.204 C 286.016 249.041,285.644 250.192,285.346 250.763 C 285.048 251.333,284.804 252.028,284.802 252.307 C 284.798 253.281,282.680 256.860,281.746 257.472 C 278.608 259.528,276.874 255.819,279.020 251.640 C 279.908 249.912,279.861 248.435,278.852 246.297 C 278.411 245.364,277.883 244.060,277.678 243.400 C 277.314 242.230,277.298 242.250,277.027 244.200 C 276.196 250.163,273.510 252.214,266.909 251.925 C 262.560 251.735,260.946 250.714,261.289 248.373 C 261.514 246.844,260.791 246.845,259.227 248.373 L 258.027 249.547 259.530 250.265 C 260.356 250.660,261.389 251.527,261.824 252.191 C 264.272 255.928,274.217 255.672,274.837 251.857 C 275.430 248.209,276.800 249.060,276.800 253.076 L 276.800 256.105 278.537 257.843 C 281.401 260.707,285.006 258.725,285.985 253.748 C 286.631 250.466,286.609 250.506,287.973 250.206 C 288.777 250.029,289.200 249.693,289.200 249.230 C 289.200 247.825,290.615 247.067,292.764 247.321 C 294.221 247.494,294.865 247.404,295.219 246.978 C 295.827 246.245,295.070 245.200,293.931 245.200 C 292.755 245.200,290.996 244.158,290.250 243.020 C 289.229 241.462,288.092 241.682,287.773 243.500 M301.822 248.730 C 301.078 251.075,299.414 251.800,294.775 251.800 C 289.888 251.800,289.059 252.394,291.700 254.004 C 293.506 255.105,298.135 253.880,300.329 251.720 C 300.763 251.293,300.956 251.298,301.408 251.751 C 302.023 252.366,306.558 253.290,307.800 253.053 C 308.240 252.969,309.207 253.148,309.949 253.450 C 310.724 253.766,312.728 254.000,314.662 254.000 C 316.747 254.000,318.572 254.228,319.462 254.600 C 321.186 255.320,324.054 255.386,324.720 254.720 C 325.246 254.194,325.380 252.430,324.900 252.350 C 324.735 252.323,323.728 252.241,322.663 252.168 C 321.598 252.095,320.152 251.697,319.451 251.283 C 317.842 250.334,316.000 249.853,316.000 250.382 C 316.000 253.317,304.693 252.117,303.288 249.034 C 302.737 247.823,302.149 247.702,301.822 248.730 " stroke="none" fill="#d9834a" fill-rule="evenodd"></path></g></svg>